SplineFontDB: 3.2
FontName: Barlow-Light
FullName: Barlow Light
FamilyName: Barlow Light
Weight: Light
Copyright: Copyright 2017 The Barlow Project Authors \\(https://github.com/jpt/barlow\\)
Version: 001.422
ItalicAngle: 0
UnderlinePosition: -100
UnderlineWidth: 50
Ascent: 800
Descent: 200
InvalidEm: 0
sfntRevision: 0x00016c08
LayerCount: 2
Layer: 0 0 "Back" 1
Layer: 1 0 "Fore" 0
XUID: [1021 912 426210005 811]
StyleMap: 0x0040
FSType: 0
OS2Version: 4
OS2_WeightWidthSlopeOnly: 1
OS2_UseTypoMetrics: 1
CreationTime: 1563981066
ModificationTime: 1616947959
PfmFamily: 81
TTFWeight: 300
TTFWidth: 5
LineGap: 0
VLineGap: 0
Panose: 0 0 4 0 0 0 0 0 0 0
OS2TypoAscent: 1000
OS2TypoAOffset: 0
OS2TypoDescent: -200
OS2TypoDOffset: 0
OS2TypoLinegap: 0
OS2WinAscent: 1112
OS2WinAOffset: 0
OS2WinDescent: 249
OS2WinDOffset: 0
HheadAscent: 1000
HheadAOffset: 0
HheadDescent: -200
HheadDOffset: 0
OS2SubXSize: 650
OS2SubYSize: 600
OS2SubXOff: 0
OS2SubYOff: 75
OS2SupXSize: 650
OS2SupYSize: 600
OS2SupXOff: 0
OS2SupYOff: 350
OS2StrikeYSize: 50
OS2StrikeYPos: 302
OS2CapHeight: 700
OS2XHeight: 504
OS2Vendor: 'TRBY'
OS2CodePages: 20000193.00000000
OS2UnicodeRanges: 20000007.00000000.00000000.00000000
Lookup: 1 0 0 "'aalt' Access All Alternates in Latin lookup 0" { "'aalt' Access All Alternates in Latin lookup 0 subtable"  } ['aalt' ('DFLT' <'dflt' > 'latn' <'AZE ' 'CAT ' 'CRT ' 'KAZ ' 'TAT ' 'TRK ' 'dflt' > ) ]
Lookup: 3 0 0 "'aalt' Access All Alternates in Latin lookup 1" { "'aalt' Access All Alternates in Latin lookup 1 subtable"  } ['aalt' ('DFLT' <'dflt' > 'latn' <'AZE ' 'CAT ' 'CRT ' 'KAZ ' 'TAT ' 'TRK ' 'dflt' > ) ]
Lookup: 6 0 0 "'ccmp' Glyph Composition/Decomposition in Latin lookup 2" { "'ccmp' Glyph Composition/Decomposition in Latin lookup 2 contextual 0"  "'ccmp' Glyph Composition/Decomposition in Latin lookup 2 contextual 1"  } ['ccmp' ('DFLT' <'dflt' > 'latn' <'AZE ' 'CAT ' 'CRT ' 'KAZ ' 'TAT ' 'TRK ' 'dflt' > ) ]

StartChar: .notdef
Encoding: 65536 -1 0
Width: 584
Flags: MW
HStem: 91 72<271 291.5> 560 36<267 320.5>
VStem: 166 38<453 474 449 510> 246 71<116.5 137.5> 262 39<238 280> 383 38<424 500>
LayerCount: 2
Fore
SplineSet
90 4 m 2x6c
 90 2 92 0 94 0 c 2
 490 0 l 2
 492 0 494 2 494 4 c 2
 494 696 l 2
 494 698 492 700 490 700 c 2
 94 700 l 2
 92 700 90 698 90 696 c 2
 90 4 l 2x6c
272 228 m 2
 266 228 262 232 262 238 c 2
 262 282 l 2
 262 373 383 374 383 474 c 0
 383 526 347 560 294 560 c 0
 240 560 204 526 204 474 c 2
 204 452 l 2
 204 446 200 442 194 442 c 2
 176 443 l 2
 170 443 166 447 166 453 c 2
 166 474 l 2
 166 546 219 596 295 596 c 0
 371 596 421 547 421 473 c 0
 421 354 301 350 301 280 c 2
 301 238 l 2
 301 232 297 228 291 228 c 2
 272 228 l 2
281 91 m 0xf4
 261 91 246 106 246 127 c 0
 246 148 261 163 281 163 c 0
 302 163 317 148 317 127 c 0
 317 106 302 91 281 91 c 0xf4
EndSplineSet
EndChar

StartChar: A
Encoding: 65 65 4
Width: 573
GlyphClass: 2
Flags: MW
HStem: 0 21G<34.5 38 38 73 498.5 501 501 536> 144 44<130 426 147 426 426 427.5 147 442> 629.25 70.75
VStem: 29.41 515.16
AnchorPoint: "Anchor-7" 286 700 basechar 0
AnchorPoint: "Anchor-6" 287 0 basechar 0
LayerCount: 2
Fore
SplineSet
501 0 m 2
 496 0 491 3 489 8 c 2
 446 141 l 2
 445 144 444 144 442 144 c 2
 131 144 l 2
 129 144 128 144 127 141 c 2
 85 8 l 2
 83 3 78 0 73 0 c 2
 38 0 l 2
 31 0 28 4 30 11 c 2
 252 692 l 2
 254 697 259 700 264 700 c 2
 308 700 l 2
 313 700 318 697 320 692 c 2
 544 11 l 2
 546 4 543 0 536 0 c 2
 501 0 l 2
143 193 m 2
 142 191 144 188 147 188 c 2
 426 188 l 2
 429 188 431 191 430 193 c 2
 289 627 l 2
 288 630 284 630 283 627 c 2
 143 193 l 2
EndSplineSet
Substitution2: "Single Substitution lookup 25 subtable" ordfeminine
Substitution2: "'c2sc' Capitals to Small Capitals in Latin lookup 19 subtable" a.sc
AlternateSubs2: "'aalt' Access All Alternates in Latin lookup 1 subtable" ordfeminine a.sc
EndChar

StartChar: Aacute
Encoding: 193 193 5
Width: 573
GlyphClass: 2
Flags: MW
HStem: 0 21G<34.5 38 38 73 498.5 501 501 536> 144 44<130 426 147 426 426 427.5 147 442> 629.25 70.75 767 129<255 354 259 354>
VStem: 29.41 515.16
AnchorPoint: "Anchor-7" 309 896 basechar 0
AnchorPoint: "Anchor-6" 287 0 basechar 0
LayerCount: 2
Fore
SplineSet
354 896 m 2
 362 896 365 891 361 884 c 2
 294 774 l 2
 291 770 287 767 282 767 c 2
 259 767 l 2
 251 767 248 772 252 779 c 2
 313 889 l 2
 315 893 320 896 325 896 c 2
 354 896 l 2
501 0 m 2
 496 0 491 3 489 8 c 2
 446 141 l 2
 445 144 444 144 442 144 c 2
 131 144 l 2
 129 144 128 144 127 141 c 2
 85 8 l 2
 83 3 78 0 73 0 c 2
 38 0 l 2
 31 0 28 4 30 11 c 2
 252 692 l 2
 254 697 259 700 264 700 c 2
 308 700 l 2
 313 700 318 697 320 692 c 2
 544 11 l 2
 546 4 543 0 536 0 c 2
 501 0 l 2
143 193 m 2
 142 191 144 188 147 188 c 2
 426 188 l 2
 429 188 431 191 430 193 c 2
 289 627 l 2
 288 630 284 630 283 627 c 2
 143 193 l 2
EndSplineSet
Substitution2: "'c2sc' Capitals to Small Capitals in Latin lookup 19 subtable" aacute.sc
Substitution2: "'aalt' Access All Alternates in Latin lookup 0 subtable" aacute.sc
EndChar

StartChar: Abreve
Encoding: 258 258 6
Width: 573
GlyphClass: 2
Flags: MW
HStem: 0 21G<34.5 38 38 73 498.5 501 501 536> 144 44<130 426 147 426 426 427.5 147 442> 629.25 70.75 759 34<267 305 267 316.5>
VStem: 29.41 515.16
AnchorPoint: "Anchor-7" 286 700 basechar 0
AnchorPoint: "Anchor-6" 287 0 basechar 0
LayerCount: 2
Fore
SplineSet
286 759 m 0
 225 759 178 800 172 854 c 0
 172 860 176 864 182 864 c 2
 201 864 l 2
 207 864 211 861 212 854 c 0
 217 819 248 793 286 793 c 0
 324 793 355 819 360 854 c 0
 361 861 365 864 371 864 c 2
 390 864 l 2
 396 864 400 861 400 854 c 0
 395 800 347 759 286 759 c 0
501 0 m 2
 496 0 491 3 489 8 c 2
 446 141 l 2
 445 144 444 144 442 144 c 2
 131 144 l 2
 129 144 128 144 127 141 c 2
 85 8 l 2
 83 3 78 0 73 0 c 2
 38 0 l 2
 31 0 28 4 30 11 c 2
 252 692 l 2
 254 697 259 700 264 700 c 2
 308 700 l 2
 313 700 318 697 320 692 c 2
 544 11 l 2
 546 4 543 0 536 0 c 2
 501 0 l 2
143 193 m 2
 142 191 144 188 147 188 c 2
 426 188 l 2
 429 188 431 191 430 193 c 2
 289 627 l 2
 288 630 284 630 283 627 c 2
 143 193 l 2
EndSplineSet
Substitution2: "'c2sc' Capitals to Small Capitals in Latin lookup 19 subtable" abreve.sc
Substitution2: "'aalt' Access All Alternates in Latin lookup 0 subtable" abreve.sc
EndChar

StartChar: uni1EAE
Encoding: 7854 7854 7
Width: 573
GlyphClass: 2
Flags: MW
HStem: 0 21G<34.5 38 38 73 498.5 501 501 536> 144 44<130 426 147 426 426 427.5 147 442> 629.25 70.75 782 33<266.5 305.5 266.5 316.5> 911 130<270 369 274 369>
VStem: 29.41 515.16
AnchorPoint: "Anchor-7" 324 1041 basechar 0
AnchorPoint: "Anchor-6" 287 0 basechar 0
LayerCount: 2
Fore
SplineSet
369 1041 m 2
 377 1041 380 1036 376 1029 c 2
 309 918 l 2
 306 914 302 911 297 911 c 2
 274 911 l 2
 266 911 263 916 267 923 c 2
 328 1034 l 2
 330 1039 335 1041 340 1041 c 2
 369 1041 l 2
286 782 m 0
 225 782 178 823 173 876 c 0
 172 882 176 886 182 886 c 2
 199 886 l 2
 205 886 209 883 210 876 c 0
 215 841 247 815 286 815 c 0
 325 815 357 841 362 876 c 0
 363 883 367 886 373 886 c 2
 390 886 l 2
 396 886 400 883 400 877 c 0
 395 823 347 782 286 782 c 0
501 0 m 2
 496 0 491 3 489 8 c 2
 446 141 l 2
 445 144 444 144 442 144 c 2
 131 144 l 2
 129 144 128 144 127 141 c 2
 85 8 l 2
 83 3 78 0 73 0 c 2
 38 0 l 2
 31 0 28 4 30 11 c 2
 252 692 l 2
 254 697 259 700 264 700 c 2
 308 700 l 2
 313 700 318 697 320 692 c 2
 544 11 l 2
 546 4 543 0 536 0 c 2
 501 0 l 2
143 193 m 2
 142 191 144 188 147 188 c 2
 426 188 l 2
 429 188 431 191 430 193 c 2
 289 627 l 2
 288 630 284 630 283 627 c 2
 143 193 l 2
EndSplineSet
EndChar

StartChar: uni1EB6
Encoding: 7862 7862 8
Width: 573
GlyphClass: 2
Flags: MW
HStem: -174 94<274 301.5> 0 21G<34.5 38 38 73 498.5 501 501 536> 144 44<130 426 147 426 426 427.5 147 442> 629.25 70.75 782 33<266.5 305.5 266.5 316.5>
VStem: 241 94<-140.5 -113.5>
AnchorPoint: "Anchor-7" 286 884 basechar 0
AnchorPoint: "Anchor-6" 287 -175 basechar 0
LayerCount: 2
Fore
SplineSet
286 782 m 0
 225 782 178 823 173 876 c 0
 172 882 176 886 182 886 c 2
 199 886 l 2
 205 886 209 883 210 876 c 0
 215 841 247 815 286 815 c 0
 325 815 357 841 362 876 c 0
 363 883 367 886 373 886 c 2
 390 886 l 2
 396 886 400 883 400 877 c 0
 395 823 347 782 286 782 c 0
544 11 m 2
 546 4 543 0 536 0 c 2
 501 0 l 2
 496 0 491 3 489 8 c 2
 446 141 l 2
 445 144 444 144 442 144 c 2
 131 144 l 2
 129 144 128 144 127 141 c 2
 85 8 l 2
 83 3 78 0 73 0 c 2
 38 0 l 2
 31 0 28 4 30 11 c 2
 252 692 l 2
 254 697 259 700 264 700 c 2
 308 700 l 2
 313 700 318 697 320 692 c 2
 544 11 l 2
143 193 m 2
 142 191 144 188 147 188 c 2
 426 188 l 2
 429 188 431 191 430 193 c 2
 289 627 l 2
 288 630 284 630 283 627 c 2
 143 193 l 2
288 -80 m 0
 315 -80 335 -100 335 -127 c 0
 335 -154 315 -174 288 -174 c 0
 260 -174 241 -154 241 -127 c 0
 241 -100 260 -80 288 -80 c 0
EndSplineSet
EndChar

StartChar: uni1EB0
Encoding: 7856 7856 9
Width: 573
GlyphClass: 2
Flags: MW
HStem: 0 21G<34.5 38 38 73 498.5 501 501 536> 144 44<130 426 147 426 426 427.5 147 442> 629.25 70.75 782 33<266.5 305.5 266.5 316.5> 911 130<205 277 205 300>
VStem: 29.41 515.16
AnchorPoint: "Anchor-7" 243 1041 basechar 0
AnchorPoint: "Anchor-6" 287 0 basechar 0
LayerCount: 2
Fore
SplineSet
307 923 m 2
 311 916 308 911 300 911 c 2
 277 911 l 2
 272 911 268 914 265 918 c 2
 198 1029 l 2
 194 1036 197 1041 205 1041 c 2
 234 1041 l 2
 239 1041 244 1039 246 1034 c 2
 307 923 l 2
286 782 m 0
 225 782 178 823 173 876 c 0
 172 882 176 886 182 886 c 2
 199 886 l 2
 205 886 209 883 210 876 c 0
 215 841 247 815 286 815 c 0
 325 815 357 841 362 876 c 0
 363 883 367 886 373 886 c 2
 390 886 l 2
 396 886 400 883 400 877 c 0
 395 823 347 782 286 782 c 0
501 0 m 2
 496 0 491 3 489 8 c 2
 446 141 l 2
 445 144 444 144 442 144 c 2
 131 144 l 2
 129 144 128 144 127 141 c 2
 85 8 l 2
 83 3 78 0 73 0 c 2
 38 0 l 2
 31 0 28 4 30 11 c 2
 252 692 l 2
 254 697 259 700 264 700 c 2
 308 700 l 2
 313 700 318 697 320 692 c 2
 544 11 l 2
 546 4 543 0 536 0 c 2
 501 0 l 2
143 193 m 2
 142 191 144 188 147 188 c 2
 426 188 l 2
 429 188 431 191 430 193 c 2
 289 627 l 2
 288 630 284 630 283 627 c 2
 143 193 l 2
EndSplineSet
EndChar

StartChar: uni1EB2
Encoding: 7858 7858 10
Width: 573
GlyphClass: 2
Flags: MW
HStem: 0 21G<34.5 38 38 73 498.5 501 501 536> 144 44<130 426 147 426 426 427.5 147 442> 629.25 70.75 782 33<266.5 305.5 266.5 316.5> 1045 33<276 301.5>
VStem: 334 36<986 1017.5>
AnchorPoint: "Anchor-7" 286 1076 basechar 0
AnchorPoint: "Anchor-6" 287 0 basechar 0
LayerCount: 2
Fore
SplineSet
289 1045 m 0
 263 1045 251 1035 233 1009 c 0
 229 1003 224 1002 219 1006 c 2
 209 1013 l 2
 204 1017 203 1021 206 1026 c 0
 229 1061 246 1078 290 1078 c 0
 336 1078 370 1049 370 1007 c 0
 370 956 323 937 305 905 c 0
 304 904 304 902 303 901 c 0
 301 897 297 895 292 896 c 2
 280 899 l 2
 274 901 271 906 274 912 c 0
 294 960 334 965 334 1007 c 0
 334 1028 314 1045 289 1045 c 0
286 782 m 0
 225 782 178 823 173 876 c 0
 172 882 176 886 182 886 c 2
 199 886 l 2
 205 886 209 883 210 876 c 0
 215 841 247 815 286 815 c 0
 325 815 357 841 362 876 c 0
 363 883 367 886 373 886 c 2
 390 886 l 2
 396 886 400 883 400 877 c 0
 395 823 347 782 286 782 c 0
501 0 m 2
 496 0 491 3 489 8 c 2
 446 141 l 2
 445 144 444 144 442 144 c 2
 131 144 l 2
 129 144 128 144 127 141 c 2
 85 8 l 2
 83 3 78 0 73 0 c 2
 38 0 l 2
 31 0 28 4 30 11 c 2
 252 692 l 2
 254 697 259 700 264 700 c 2
 308 700 l 2
 313 700 318 697 320 692 c 2
 544 11 l 2
 546 4 543 0 536 0 c 2
 501 0 l 2
143 193 m 2
 142 191 144 188 147 188 c 2
 426 188 l 2
 429 188 431 191 430 193 c 2
 289 627 l 2
 288 630 284 630 283 627 c 2
 143 193 l 2
EndSplineSet
EndChar

StartChar: uni1EB4
Encoding: 7860 7860 11
Width: 573
GlyphClass: 2
Flags: MW
HStem: 0 21G<34.5 38 38 73 498.5 501 501 536> 144 44<130 426 147 426 426 427.5 147 442> 629.25 70.75 782 33<266.5 305.5 266.5 316> 927 40<339 356.5 339 361> 969 41<229.5 249.5>
VStem: 29.41 515.16
AnchorPoint: "Anchor-7" 292 1011 basechar 0
AnchorPoint: "Anchor-6" 287 0 basechar 0
LayerCount: 2
Fore
SplineSet
240 969 m 0
 219 969 204 963 187 943 c 0
 183 938 178 937 173 942 c 2
 162 951 l 2
 158 955 156 960 160 965 c 0
 181 996 208 1010 238 1010 c 0xf6
 264 1010 281 998 299 987 c 0
 316 977 331 967 347 967 c 0
 366 967 383 973 399 996 c 0
 403 1001 408 1002 413 998 c 2
 423 989 l 2
 427 985 429 980 426 975 c 0
 408 942 375 927 347 927 c 0xfa
 322 927 304 939 288 949 c 0
 271 960 259 969 240 969 c 0
286 815 m 0
 325 815 357 841 362 876 c 0
 363 883 367 886 373 886 c 2
 390 886 l 2
 396 886 400 882 399 876 c 0
 394 823 346 782 286 782 c 0
 225 782 178 823 173 876 c 0
 172 882 176 886 182 886 c 2
 199 886 l 2
 205 886 209 883 210 877 c 0
 214 841 247 815 286 815 c 0
501 0 m 2
 496 0 491 3 489 8 c 2
 446 141 l 2
 445 144 444 144 442 144 c 2
 131 144 l 2
 129 144 128 144 127 141 c 2
 85 8 l 2
 83 3 78 0 73 0 c 2
 38 0 l 2
 31 0 28 4 30 11 c 2
 252 692 l 2
 254 697 259 700 264 700 c 2
 308 700 l 2
 313 700 318 697 320 692 c 2
 544 11 l 2
 546 4 543 0 536 0 c 2
 501 0 l 2
143 193 m 2
 142 191 144 188 147 188 c 2
 426 188 l 2
 429 188 431 191 430 193 c 2
 289 627 l 2
 288 630 284 630 283 627 c 2
 143 193 l 2
EndSplineSet
EndChar

StartChar: uni01CD
Encoding: 461 461 12
Width: 573
GlyphClass: 2
Flags: MW
HStem: 0 21G<34.5 38 38 73 498.5 501 501 536> 144 44<130 426 147 426 426 427.5 147 442> 629.25 70.75 768 126<180 268 180 306>
VStem: 29.41 515.16
AnchorPoint: "Anchor-7" 286 700 basechar 0
AnchorPoint: "Anchor-6" 287 0 basechar 0
LayerCount: 2
Fore
SplineSet
319 774 m 2
 316 769 311 768 306 768 c 2
 268 768 l 2
 263 768 258 769 255 774 c 2
 174 882 l 2
 169 888 172 894 180 894 c 2
 206 894 l 2
 211 894 216 893 219 888 c 2
 285 801 l 2
 287 798 290 799 291 801 c 2
 356 888 l 2
 359 893 364 894 369 894 c 2
 395 894 l 2
 403 894 406 888 401 882 c 2
 319 774 l 2
501 0 m 2
 496 0 491 3 489 8 c 2
 446 141 l 2
 445 144 444 144 442 144 c 2
 131 144 l 2
 129 144 128 144 127 141 c 2
 85 8 l 2
 83 3 78 0 73 0 c 2
 38 0 l 2
 31 0 28 4 30 11 c 2
 252 692 l 2
 254 697 259 700 264 700 c 2
 308 700 l 2
 313 700 318 697 320 692 c 2
 544 11 l 2
 546 4 543 0 536 0 c 2
 501 0 l 2
143 193 m 2
 142 191 144 188 147 188 c 2
 426 188 l 2
 429 188 431 191 430 193 c 2
 289 627 l 2
 288 630 284 630 283 627 c 2
 143 193 l 2
EndSplineSet
Substitution2: "'c2sc' Capitals to Small Capitals in Latin lookup 19 subtable" uni01CE.sc
Substitution2: "'aalt' Access All Alternates in Latin lookup 0 subtable" uni01CE.sc
EndChar

StartChar: Acircumflex
Encoding: 194 194 13
Width: 573
GlyphClass: 2
Flags: MW
HStem: 0 21G<34.5 38 38 73 498.5 501 501 536> 144 44<130 426 147 426 426 427.5 147 442> 629.25 70.75 770 126<174 304 178 304 266 367 266 393>
VStem: 29.41 515.16
AnchorPoint: "Anchor-7" 285 896 basechar 0
AnchorPoint: "Anchor-6" 287 0 basechar 0
LayerCount: 2
Fore
SplineSet
289 863 m 2
 288 865 285 866 283 863 c 2
 217 776 l 2
 214 771 209 770 204 770 c 2
 178 770 l 2
 170 770 167 776 172 782 c 2
 253 890 l 2
 256 895 261 896 266 896 c 2
 304 896 l 2
 309 896 314 895 317 890 c 2
 399 782 l 2
 404 776 401 770 393 770 c 2
 367 770 l 2
 362 770 357 771 354 776 c 2
 289 863 l 2
501 0 m 2
 496 0 491 3 489 8 c 2
 446 141 l 2
 445 144 444 144 442 144 c 2
 131 144 l 2
 129 144 128 144 127 141 c 2
 85 8 l 2
 83 3 78 0 73 0 c 2
 38 0 l 2
 31 0 28 4 30 11 c 2
 252 692 l 2
 254 697 259 700 264 700 c 2
 308 700 l 2
 313 700 318 697 320 692 c 2
 544 11 l 2
 546 4 543 0 536 0 c 2
 501 0 l 2
143 193 m 2
 142 191 144 188 147 188 c 2
 426 188 l 2
 429 188 431 191 430 193 c 2
 289 627 l 2
 288 630 284 630 283 627 c 2
 143 193 l 2
EndSplineSet
Substitution2: "'c2sc' Capitals to Small Capitals in Latin lookup 19 subtable" acircumflex.sc
Substitution2: "'aalt' Access All Alternates in Latin lookup 0 subtable" acircumflex.sc
EndChar

StartChar: uni1EA4
Encoding: 7844 7844 14
Width: 573
GlyphClass: 2
Flags: MW
HStem: 0 21G<34.5 38 38 73 498.5 501 501 536> 144 44<130 426 147 426 426 427.5 147 442> 629.25 70.75 770 126<174 304 178 304 266 367 266 393> 843 129<407 506 411 506>
VStem: 29.41 515.16
AnchorPoint: "Anchor-7" 461 972 basechar 0
AnchorPoint: "Anchor-6" 287 0 basechar 0
LayerCount: 2
Fore
SplineSet
506 972 m 2xec
 514 972 517 967 513 960 c 2
 446 850 l 2
 443 846 439 843 434 843 c 2
 411 843 l 2
 403 843 400 848 404 855 c 2
 465 965 l 2
 467 969 472 972 477 972 c 2
 506 972 l 2xec
289 863 m 2xf4
 288 865 285 866 283 863 c 2
 217 776 l 2
 214 771 209 770 204 770 c 2
 178 770 l 2
 170 770 167 776 172 782 c 2
 253 890 l 2
 256 895 261 896 266 896 c 2
 304 896 l 2
 309 896 314 895 317 890 c 2
 399 782 l 2
 404 776 401 770 393 770 c 2
 367 770 l 2
 362 770 357 771 354 776 c 2
 289 863 l 2xf4
501 0 m 2
 496 0 491 3 489 8 c 2
 446 141 l 2
 445 144 444 144 442 144 c 2
 131 144 l 2
 129 144 128 144 127 141 c 2
 85 8 l 2
 83 3 78 0 73 0 c 2
 38 0 l 2
 31 0 28 4 30 11 c 2
 252 692 l 2
 254 697 259 700 264 700 c 2
 308 700 l 2
 313 700 318 697 320 692 c 2
 544 11 l 2
 546 4 543 0 536 0 c 2
 501 0 l 2
143 193 m 2
 142 191 144 188 147 188 c 2
 426 188 l 2
 429 188 431 191 430 193 c 2
 289 627 l 2
 288 630 284 630 283 627 c 2
 143 193 l 2
EndSplineSet
EndChar

StartChar: uni1EAC
Encoding: 7852 7852 15
Width: 573
GlyphClass: 2
Flags: MW
HStem: -174 94<274 301.5> 0 21G<34.5 38 38 73 498.5 501 501 536> 144 44<130 426 147 426 426 427.5 147 442> 629.25 70.75 770 126<174 304 178 304 266 367 266 393>
VStem: 241 94<-140.5 -113.5>
AnchorPoint: "Anchor-7" 285 896 basechar 0
AnchorPoint: "Anchor-6" 287 -175 basechar 0
LayerCount: 2
Fore
SplineSet
289 863 m 2
 288 865 285 866 283 863 c 2
 217 776 l 2
 214 771 209 770 204 770 c 2
 178 770 l 2
 170 770 167 776 172 782 c 2
 253 890 l 2
 256 895 261 896 266 896 c 2
 304 896 l 2
 309 896 314 895 317 890 c 2
 399 782 l 2
 404 776 401 770 393 770 c 2
 367 770 l 2
 362 770 357 771 354 776 c 2
 289 863 l 2
544 11 m 2
 546 4 543 0 536 0 c 2
 501 0 l 2
 496 0 491 3 489 8 c 2
 446 141 l 2
 445 144 444 144 442 144 c 2
 131 144 l 2
 129 144 128 144 127 141 c 2
 85 8 l 2
 83 3 78 0 73 0 c 2
 38 0 l 2
 31 0 28 4 30 11 c 2
 252 692 l 2
 254 697 259 700 264 700 c 2
 308 700 l 2
 313 700 318 697 320 692 c 2
 544 11 l 2
143 193 m 2
 142 191 144 188 147 188 c 2
 426 188 l 2
 429 188 431 191 430 193 c 2
 289 627 l 2
 288 630 284 630 283 627 c 2
 143 193 l 2
288 -80 m 0
 315 -80 335 -100 335 -127 c 0
 335 -154 315 -174 288 -174 c 0
 260 -174 241 -154 241 -127 c 0
 241 -100 260 -80 288 -80 c 0
EndSplineSet
EndChar

StartChar: uni1EA6
Encoding: 7846 7846 16
Width: 573
GlyphClass: 2
Flags: MW
HStem: 0 21G<34.5 38 38 73 498.5 501 501 536> 144 44<130 426 147 426 426 427.5 147 442> 629.25 70.75 770 126<174 304 178 304 266 367 266 393> 882 129<331 403 331 425>
VStem: 29.41 515.16
AnchorPoint: "Anchor-7" 369 1011 basechar 0
AnchorPoint: "Anchor-6" 287 0 basechar 0
LayerCount: 2
Fore
SplineSet
432 894 m 2xec
 436 887 433 882 425 882 c 2
 403 882 l 2
 398 882 394 885 391 889 c 2
 324 999 l 2
 320 1006 323 1011 331 1011 c 2
 360 1011 l 2
 365 1011 370 1009 372 1004 c 2
 432 894 l 2xec
289 863 m 2xf4
 288 865 285 866 283 863 c 2
 217 776 l 2
 214 771 209 770 204 770 c 2
 178 770 l 2
 170 770 167 776 172 782 c 2
 253 890 l 2
 256 895 261 896 266 896 c 2
 304 896 l 2
 309 896 314 895 317 890 c 2
 399 782 l 2
 404 776 401 770 393 770 c 2
 367 770 l 2
 362 770 357 771 354 776 c 2
 289 863 l 2xf4
501 0 m 2
 496 0 491 3 489 8 c 2
 446 141 l 2
 445 144 444 144 442 144 c 2
 131 144 l 2
 129 144 128 144 127 141 c 2
 85 8 l 2
 83 3 78 0 73 0 c 2
 38 0 l 2
 31 0 28 4 30 11 c 2
 252 692 l 2
 254 697 259 700 264 700 c 2
 308 700 l 2
 313 700 318 697 320 692 c 2
 544 11 l 2
 546 4 543 0 536 0 c 2
 501 0 l 2
143 193 m 2
 142 191 144 188 147 188 c 2
 426 188 l 2
 429 188 431 191 430 193 c 2
 289 627 l 2
 288 630 284 630 283 627 c 2
 143 193 l 2
EndSplineSet
EndChar

StartChar: uni1EA8
Encoding: 7848 7848 17
Width: 573
GlyphClass: 2
Flags: MW
HStem: 0 21G<34.5 38 38 73 498.5 501 501 536> 144 44<130 426 147 426 426 427.5 147 442> 629.25 70.75 770 126<174 304 178 304 266 367 266 393> 1014 34<383.5 409>
VStem: 442 35<955 986.5>
AnchorPoint: "Anchor-7" 393 1045 basechar 0
AnchorPoint: "Anchor-6" 287 0 basechar 0
LayerCount: 2
Fore
SplineSet
397 1014 m 0
 370 1014 359 1004 341 978 c 0
 337 972 332 971 327 975 c 2
 316 982 l 2
 311 986 310 991 313 996 c 0
 336 1030 354 1048 398 1048 c 0
 444 1048 477 1018 477 976 c 0
 477 924 428 905 412 872 c 0
 409 866 405 863 399 865 c 2
 388 868 l 2
 382 870 379 875 382 881 c 0
 402 929 442 934 442 976 c 0
 442 997 421 1014 397 1014 c 0
289 863 m 2
 288 865 285 866 283 863 c 2
 217 776 l 2
 214 771 209 770 204 770 c 2
 178 770 l 2
 170 770 167 776 172 782 c 2
 253 890 l 2
 256 895 261 896 266 896 c 2
 304 896 l 2
 309 896 314 895 317 890 c 2
 399 782 l 2
 404 776 401 770 393 770 c 2
 367 770 l 2
 362 770 357 771 354 776 c 2
 289 863 l 2
501 0 m 2
 496 0 491 3 489 8 c 2
 446 141 l 2
 445 144 444 144 442 144 c 2
 131 144 l 2
 129 144 128 144 127 141 c 2
 85 8 l 2
 83 3 78 0 73 0 c 2
 38 0 l 2
 31 0 28 4 30 11 c 2
 252 692 l 2
 254 697 259 700 264 700 c 2
 308 700 l 2
 313 700 318 697 320 692 c 2
 544 11 l 2
 546 4 543 0 536 0 c 2
 501 0 l 2
143 193 m 2
 142 191 144 188 147 188 c 2
 426 188 l 2
 429 188 431 191 430 193 c 2
 289 627 l 2
 288 630 284 630 283 627 c 2
 143 193 l 2
EndSplineSet
EndChar

StartChar: uni1EAA
Encoding: 7850 7850 18
Width: 573
GlyphClass: 2
Flags: MW
HStem: 0 21G<34.5 38 38 73 498.5 501 501 536> 144 44<130 426 147 426 426 427.5 147 442> 629.25 70.75 770 126<174 304 178 304 266 367 266 393> 927 40<338.5 356.5 338.5 360.5> 970 42<225 245.5>
VStem: 29.41 515.16
AnchorPoint: "Anchor-7" 289 1013 basechar 0
AnchorPoint: "Anchor-6" 287 0 basechar 0
LayerCount: 2
Fore
SplineSet
236 970 m 0
 214 970 199 964 181 943 c 0
 177 937 172 936 167 941 c 2
 155 952 l 2
 151 956 150 961 153 966 c 0
 174 997 203 1012 234 1012 c 0xf6
 260 1012 278 1000 297 989 c 0
 315 978 330 967 347 967 c 0
 366 967 384 973 401 998 c 0
 405 1004 410 1004 415 1000 c 2
 426 990 l 2
 430 986 432 981 429 976 c 0
 409 942 375 927 346 927 c 0xfa
 320 927 302 939 286 949 c 0
 268 961 255 970 236 970 c 0
253 890 m 2
 256 895 261 896 266 896 c 2
 304 896 l 2
 309 896 314 895 317 890 c 2
 399 782 l 2
 404 776 401 770 393 770 c 2
 367 770 l 2
 362 770 357 771 354 776 c 2
 289 863 l 2
 288 865 285 866 283 863 c 2
 217 776 l 2
 214 771 209 770 204 770 c 2
 178 770 l 2
 170 770 167 776 172 782 c 2
 253 890 l 2
501 0 m 2
 496 0 491 3 489 8 c 2
 446 141 l 2
 445 144 444 144 442 144 c 2
 131 144 l 2
 129 144 128 144 127 141 c 2
 85 8 l 2
 83 3 78 0 73 0 c 2
 38 0 l 2
 31 0 28 4 30 11 c 2
 252 692 l 2
 254 697 259 700 264 700 c 2
 308 700 l 2
 313 700 318 697 320 692 c 2
 544 11 l 2
 546 4 543 0 536 0 c 2
 501 0 l 2
143 193 m 2
 142 191 144 188 147 188 c 2
 426 188 l 2
 429 188 431 191 430 193 c 2
 289 627 l 2
 288 630 284 630 283 627 c 2
 143 193 l 2
EndSplineSet
EndChar

StartChar: Adieresis
Encoding: 196 196 19
Width: 573
GlyphClass: 2
Flags: MW
HStem: 0 21G<34.5 38 38 73 498.5 501 501 536> 144 44<130 426 147 426 426 427.5 147 442> 629.25 70.75 802 100<189.5 218.5 353.5 382.5>
VStem: 154 100<838 867> 318 100<838 867>
AnchorPoint: "Anchor-7" 286 700 basechar 0
AnchorPoint: "Anchor-6" 287 0 basechar 0
LayerCount: 2
Fore
SplineSet
204 802 m 0
 175 802 154 824 154 852 c 0
 154 882 175 902 204 902 c 0
 233 902 254 882 254 852 c 0
 254 824 233 802 204 802 c 0
368 802 m 0
 339 802 318 824 318 852 c 0
 318 882 339 902 368 902 c 0
 397 902 418 882 418 852 c 0
 418 824 397 802 368 802 c 0
501 0 m 2
 496 0 491 3 489 8 c 2
 446 141 l 2
 445 144 444 144 442 144 c 2
 131 144 l 2
 129 144 128 144 127 141 c 2
 85 8 l 2
 83 3 78 0 73 0 c 2
 38 0 l 2
 31 0 28 4 30 11 c 2
 252 692 l 2
 254 697 259 700 264 700 c 2
 308 700 l 2
 313 700 318 697 320 692 c 2
 544 11 l 2
 546 4 543 0 536 0 c 2
 501 0 l 2
143 193 m 2
 142 191 144 188 147 188 c 2
 426 188 l 2
 429 188 431 191 430 193 c 2
 289 627 l 2
 288 630 284 630 283 627 c 2
 143 193 l 2
EndSplineSet
Substitution2: "'c2sc' Capitals to Small Capitals in Latin lookup 19 subtable" adieresis.sc
Substitution2: "'aalt' Access All Alternates in Latin lookup 0 subtable" adieresis.sc
EndChar

StartChar: uni1EA0
Encoding: 7840 7840 20
Width: 573
GlyphClass: 2
Flags: MW
HStem: -174 94<274 301.5> 0 21G<34.5 38 38 73 498.5 501 501 536> 144 44<130 426 147 426 426 427.5 147 442> 629.25 70.75
VStem: 241 94<-140.5 -113.5>
AnchorPoint: "Anchor-7" 286 700 basechar 0
AnchorPoint: "Anchor-6" 287 -175 basechar 0
LayerCount: 2
Fore
SplineSet
544 11 m 2
 546 4 543 0 536 0 c 2
 501 0 l 2
 496 0 491 3 489 8 c 2
 446 141 l 2
 445 144 444 144 442 144 c 2
 131 144 l 2
 129 144 128 144 127 141 c 2
 85 8 l 2
 83 3 78 0 73 0 c 2
 38 0 l 2
 31 0 28 4 30 11 c 2
 252 692 l 2
 254 697 259 700 264 700 c 2
 308 700 l 2
 313 700 318 697 320 692 c 2
 544 11 l 2
143 193 m 2
 142 191 144 188 147 188 c 2
 426 188 l 2
 429 188 431 191 430 193 c 2
 289 627 l 2
 288 630 284 630 283 627 c 2
 143 193 l 2
288 -80 m 0
 315 -80 335 -100 335 -127 c 0
 335 -154 315 -174 288 -174 c 0
 260 -174 241 -154 241 -127 c 0
 241 -100 260 -80 288 -80 c 0
EndSplineSet
EndChar

StartChar: Agrave
Encoding: 192 192 21
Width: 573
GlyphClass: 2
Flags: MW
HStem: 0 21G<34.5 38 38 73 498.5 501 501 536> 144 44<130 426 147 426 426 427.5 147 442> 629.25 70.75 767 129<205 277 205 300>
VStem: 29.41 515.16
AnchorPoint: "Anchor-7" 243 896 basechar 0
AnchorPoint: "Anchor-6" 287 0 basechar 0
LayerCount: 2
Fore
SplineSet
307 779 m 2
 311 772 308 767 300 767 c 2
 277 767 l 2
 272 767 268 770 265 774 c 2
 198 884 l 2
 194 891 197 896 205 896 c 2
 235 896 l 2
 240 896 245 894 247 889 c 2
 307 779 l 2
501 0 m 2
 496 0 491 3 489 8 c 2
 446 141 l 2
 445 144 444 144 442 144 c 2
 131 144 l 2
 129 144 128 144 127 141 c 2
 85 8 l 2
 83 3 78 0 73 0 c 2
 38 0 l 2
 31 0 28 4 30 11 c 2
 252 692 l 2
 254 697 259 700 264 700 c 2
 308 700 l 2
 313 700 318 697 320 692 c 2
 544 11 l 2
 546 4 543 0 536 0 c 2
 501 0 l 2
143 193 m 2
 142 191 144 188 147 188 c 2
 426 188 l 2
 429 188 431 191 430 193 c 2
 289 627 l 2
 288 630 284 630 283 627 c 2
 143 193 l 2
EndSplineSet
Substitution2: "'c2sc' Capitals to Small Capitals in Latin lookup 19 subtable" agrave.sc
Substitution2: "'aalt' Access All Alternates in Latin lookup 0 subtable" agrave.sc
EndChar

StartChar: uni1EA2
Encoding: 7842 7842 22
Width: 573
GlyphClass: 2
Flags: MW
HStem: 0 21G<34.5 38 38 73 498.5 501 501 536> 144 44<130 426 147 426 426 427.5 147 442> 629.25 70.75 894 33<276.5 302>
VStem: 335 35<834.5 865.5>
AnchorPoint: "Anchor-7" 286 925 basechar 0
AnchorPoint: "Anchor-6" 287 0 basechar 0
LayerCount: 2
Fore
SplineSet
290 894 m 0
 263 894 251 884 234 858 c 0
 230 852 225 851 220 855 c 2
 209 862 l 2
 203 866 203 870 206 876 c 0
 229 910 247 927 291 927 c 0
 337 927 370 897 370 855 c 0
 370 804 321 785 305 752 c 0
 302 746 298 743 292 745 c 2
 281 748 l 2
 275 750 272 755 275 761 c 0
 295 809 335 814 335 855 c 0
 335 876 314 894 290 894 c 0
501 0 m 2
 496 0 491 3 489 8 c 2
 446 141 l 2
 445 144 444 144 442 144 c 2
 131 144 l 2
 129 144 128 144 127 141 c 2
 85 8 l 2
 83 3 78 0 73 0 c 2
 38 0 l 2
 31 0 28 4 30 11 c 2
 252 692 l 2
 254 697 259 700 264 700 c 2
 308 700 l 2
 313 700 318 697 320 692 c 2
 544 11 l 2
 546 4 543 0 536 0 c 2
 501 0 l 2
143 193 m 2
 142 191 144 188 147 188 c 2
 426 188 l 2
 429 188 431 191 430 193 c 2
 289 627 l 2
 288 630 284 630 283 627 c 2
 143 193 l 2
EndSplineSet
EndChar

StartChar: Amacron
Encoding: 256 256 23
Width: 573
GlyphClass: 2
Flags: MW
HStem: 0 21G<34.5 38 38 73 498.5 501 501 536> 144 44<130 426 147 426 426 427.5 147 442> 629.25 70.75 794 40<162 407 165 407>
VStem: 29.41 515.16
AnchorPoint: "Anchor-7" 286 700 basechar 0
AnchorPoint: "Anchor-6" 287 0 basechar 0
LayerCount: 2
Fore
SplineSet
407 834 m 2
 413 834 417 830 417 824 c 2
 417 804 l 2
 417 798 413 794 407 794 c 2
 165 794 l 2
 159 794 155 798 155 804 c 2
 155 824 l 2
 155 830 159 834 165 834 c 2
 407 834 l 2
501 0 m 2
 496 0 491 3 489 8 c 2
 446 141 l 2
 445 144 444 144 442 144 c 2
 131 144 l 2
 129 144 128 144 127 141 c 2
 85 8 l 2
 83 3 78 0 73 0 c 2
 38 0 l 2
 31 0 28 4 30 11 c 2
 252 692 l 2
 254 697 259 700 264 700 c 2
 308 700 l 2
 313 700 318 697 320 692 c 2
 544 11 l 2
 546 4 543 0 536 0 c 2
 501 0 l 2
143 193 m 2
 142 191 144 188 147 188 c 2
 426 188 l 2
 429 188 431 191 430 193 c 2
 289 627 l 2
 288 630 284 630 283 627 c 2
 143 193 l 2
EndSplineSet
Substitution2: "'c2sc' Capitals to Small Capitals in Latin lookup 19 subtable" amacron.sc
Substitution2: "'aalt' Access All Alternates in Latin lookup 0 subtable" amacron.sc
EndChar

StartChar: Aogonek
Encoding: 260 260 24
Width: 590
GlyphClass: 2
Flags: MW
HStem: -184.62 35.38 0 21G<34.5 38 38 73 498.5 501 501 507> 144 44<130 426 147 426 426 427.5 147 442> 629.25 70.75
VStem: 449.72 42.28
AnchorPoint: "Anchor-7" 286 700 basechar 0
AnchorPoint: "Anchor-6" 287 0 basechar 0
LayerCount: 2
Fore
SplineSet
565 -147 m 0
 572 -145 576 -147 577 -154 c 2
 580 -168 l 2
 581 -175 579 -179 573 -180 c 0
 528 -191 465 -186 452 -125 c 0
 443 -87 457 -45 508 -5 c 0
 512 -3 510 0 507 0 c 2
 501 0 l 2
 496 0 491 3 489 8 c 2
 446 141 l 2
 445 144 444 144 442 144 c 2
 131 144 l 2
 129 144 128 144 127 141 c 2
 85 8 l 2
 83 3 78 0 73 0 c 2
 38 0 l 2
 31 0 28 4 30 11 c 2
 252 692 l 2
 254 697 259 700 264 700 c 2
 308 700 l 2
 313 700 318 697 320 692 c 2
 547 2 l 2
 547 1 550 0 550 -1 c 0
 549 -4 546 -8 541 -12 c 0
 509 -40 485 -75 492 -111 c 0
 498 -146 531 -154 565 -147 c 0
143 193 m 2
 142 191 144 188 147 188 c 2
 426 188 l 2
 429 188 431 191 430 193 c 2
 289 627 l 2
 288 630 284 630 283 627 c 2
 143 193 l 2
EndSplineSet
Substitution2: "'c2sc' Capitals to Small Capitals in Latin lookup 19 subtable" aogonek.sc
Substitution2: "'aalt' Access All Alternates in Latin lookup 0 subtable" aogonek.sc
EndChar

StartChar: Aring
Encoding: 197 197 25
Width: 573
GlyphClass: 2
Flags: MW
HStem: 0 21G<34.5 38 38 73 498.5 501 501 536> 144 44<130 426 147 426 426 427.5 147 442> 629.25 70.75 779 35<267 305.5 267 315.5> 952 35<267 305.5>
VStem: 181 35<863.5 902.5 863.5 912> 356 36<863 902.5>
AnchorPoint: "Anchor-7" 286 700 basechar 0
AnchorPoint: "Anchor-6" 287 0 basechar 0
LayerCount: 2
Fore
SplineSet
286 779 m 0
 227 779 181 825 181 883 c 0
 181 941 227 987 286 987 c 0
 345 987 392 941 392 883 c 0
 392 825 345 779 286 779 c 0
286 952 m 0
 248 952 216 922 216 883 c 0
 216 844 248 814 286 814 c 0
 325 814 356 843 356 883 c 0
 356 922 325 952 286 952 c 0
501 0 m 2
 496 0 491 3 489 8 c 2
 446 141 l 2
 445 144 444 144 442 144 c 2
 131 144 l 2
 129 144 128 144 127 141 c 2
 85 8 l 2
 83 3 78 0 73 0 c 2
 38 0 l 2
 31 0 28 4 30 11 c 2
 252 692 l 2
 254 697 259 700 264 700 c 2
 308 700 l 2
 313 700 318 697 320 692 c 2
 544 11 l 2
 546 4 543 0 536 0 c 2
 501 0 l 2
143 193 m 2
 142 191 144 188 147 188 c 2
 426 188 l 2
 429 188 431 191 430 193 c 2
 289 627 l 2
 288 630 284 630 283 627 c 2
 143 193 l 2
EndSplineSet
Substitution2: "'c2sc' Capitals to Small Capitals in Latin lookup 19 subtable" aring.sc
Substitution2: "'aalt' Access All Alternates in Latin lookup 0 subtable" aring.sc
EndChar

StartChar: Atilde
Encoding: 195 195 26
Width: 573
GlyphClass: 2
Flags: MW
HStem: 0 21G<34.5 38 38 73 498.5 501 501 536> 144 44<130 426 147 426 426 427.5 147 442> 629.25 70.75 807 41<340.5 358.5 340.5 363> 850 42<228 248.5>
VStem: 29.41 515.16
AnchorPoint: "Anchor-7" 292 893 basechar 0
AnchorPoint: "Anchor-6" 287 0 basechar 0
LayerCount: 2
Fore
SplineSet
239 850 m 0
 217 850 201 844 184 823 c 0
 180 817 175 816 170 821 c 2
 157 832 l 2
 153 836 152 841 155 846 c 0
 177 878 205 892 237 892 c 0xec
 263 892 281 880 299 869 c 0
 317 858 332 848 349 848 c 0
 368 848 386 854 403 878 c 0
 407 884 412 884 417 880 c 2
 428 870 l 2
 432 866 434 861 431 856 c 0
 412 822 377 807 349 807 c 0xf4
 323 807 304 819 288 829 c 0
 270 841 258 850 239 850 c 0
501 0 m 2
 496 0 491 3 489 8 c 2
 446 141 l 2
 445 144 444 144 442 144 c 2
 131 144 l 2
 129 144 128 144 127 141 c 2
 85 8 l 2
 83 3 78 0 73 0 c 2
 38 0 l 2
 31 0 28 4 30 11 c 2
 252 692 l 2
 254 697 259 700 264 700 c 2
 308 700 l 2
 313 700 318 697 320 692 c 2
 544 11 l 2
 546 4 543 0 536 0 c 2
 501 0 l 2
143 193 m 2
 142 191 144 188 147 188 c 2
 426 188 l 2
 429 188 431 191 430 193 c 2
 289 627 l 2
 288 630 284 630 283 627 c 2
 143 193 l 2
EndSplineSet
Substitution2: "'c2sc' Capitals to Small Capitals in Latin lookup 19 subtable" atilde.sc
Substitution2: "'aalt' Access All Alternates in Latin lookup 0 subtable" atilde.sc
EndChar

StartChar: AE
Encoding: 198 198 27
Width: 864
Flags: MW
HStem: 0 47<466 812 466 812> 144 44<146 405 172 405 172 405> 328 47<465 702 466 702> 639.13 60.87 653 47<465 466 466 812>
VStem: 409 53<50 51 51 140 140 141 192 324 378 379 379 636 636 638>
LayerCount: 2
Fore
SplineSet
822 663 m 2xec
 822 657 818 653 812 653 c 2
 466 653 l 2
 464 653 462 651 462 649 c 2
 462 379 l 2
 462 377 464 375 466 375 c 2
 702 375 l 2
 708 375 712 371 712 365 c 2
 712 338 l 2
 712 332 708 328 702 328 c 2
 466 328 l 2
 464 328 462 326 462 324 c 2
 462 51 l 2
 462 49 464 47 466 47 c 2
 812 47 l 2
 818 47 822 43 822 37 c 2
 822 10 l 2
 822 4 818 0 812 0 c 2
 419 0 l 2
 413 0 409 4 409 10 c 2
 409 140 l 2
 409 142 407 144 405 144 c 2
 147 144 l 2
 145 144 143 143 142 141 c 2
 72 7 l 2
 70 2 65 0 60 0 c 2
 22 0 l 2
 15 0 12 5 15 12 c 2
 377 693 l 2
 379 698 384 700 389 700 c 2
 812 700 l 2
 818 700 822 696 822 690 c 2
 822 663 l 2xec
170 193 m 2
 169 190 169 188 172 188 c 2
 405 188 l 2
 407 188 409 190 409 192 c 2
 409 636 l 2
 409 640 406 640 404 637 c 2xf4
 170 193 l 2
EndSplineSet
Substitution2: "'c2sc' Capitals to Small Capitals in Latin lookup 19 subtable" ae.sc
Substitution2: "'aalt' Access All Alternates in Latin lookup 0 subtable" ae.sc
EndChar

StartChar: B
Encoding: 66 66 28
Width: 596
Flags: MW
HStem: 0 48<98 338 148 338 148 338> 338 45<147 331 148 331 331 333> 653 47<147 148 148 331>
VStem: 91 53<51 52 52 334 386 387 387 649> 480 52<481.5 557.5> 487 53<148.5 230 129.5 236.5>
LayerCount: 2
Fore
SplineSet
428 365 m 0xf4
 424 364 424 362 428 360 c 0
 499 331 540 271 540 189 c 0xf4
 540 70 457 0 338 0 c 2
 101 0 l 2
 95 0 91 4 91 10 c 2
 91 690 l 2
 91 696 95 700 101 700 c 2
 331 700 l 2
 453 700 532 633 532 519 c 0xf8
 532 444 494 391 428 365 c 0xf4
148 653 m 2
 146 653 144 651 144 649 c 2
 144 387 l 2
 144 385 146 383 148 383 c 2
 331 383 l 2
 421 383 480 436 480 516 c 0xf8
 480 599 421 653 331 653 c 2
 148 653 l 2
338 48 m 2
 428 48 487 105 487 192 c 0
 487 281 426 338 333 338 c 2
 148 338 l 2
 146 338 144 336 144 334 c 2
 144 52 l 2
 144 50 146 48 148 48 c 2
 338 48 l 2
EndSplineSet
Substitution2: "'c2sc' Capitals to Small Capitals in Latin lookup 19 subtable" b.sc
Substitution2: "'aalt' Access All Alternates in Latin lookup 0 subtable" b.sc
EndChar

StartChar: C
Encoding: 67 67 29
Width: 565
GlyphClass: 2
Flags: MW
HStem: -9 47<238 343.5 238 359.5> 661 47<238 343.5>
VStem: 62 53<208 493 493 495> 466 53<205 207 207 208 141 210 492 495 495 496>
AnchorPoint: "Anchor-7" 291 700 basechar 0
AnchorPoint: "Anchor-6" 258 -9 basechar 0
LayerCount: 2
Fore
SplineSet
291 -9 m 0
 153 -9 62 78 62 208 c 2
 62 493 l 2
 62 622 153 708 291 708 c 0
 428 708 519 623 519 496 c 2
 519 495 l 2
 519 489 515 484 509 484 c 2
 476 482 l 2
 470 482 466 486 466 492 c 2
 466 495 l 2
 466 595 396 661 291 661 c 0
 185 661 115 595 115 495 c 2
 115 205 l 2
 115 105 185 38 291 38 c 0
 396 38 466 105 466 205 c 2
 466 207 l 2
 466 213 470 216 476 216 c 2
 509 214 l 2
 515 214 519 211 519 205 c 0
 519 77 428 -9 291 -9 c 0
EndSplineSet
Substitution2: "'c2sc' Capitals to Small Capitals in Latin lookup 19 subtable" c.sc
Substitution2: "'aalt' Access All Alternates in Latin lookup 0 subtable" c.sc
EndChar

StartChar: Cacute
Encoding: 262 262 30
Width: 565
GlyphClass: 2
Flags: MW
HStem: -9 47<238 343.5 238 359.5> 661 47<238 343.5> 767 129<260 359 264 359>
VStem: 62 53<208 493 493 495> 466 53<205 207 207 208 141 210 492 495 495 496>
AnchorPoint: "Anchor-7" 314 896 basechar 0
AnchorPoint: "Anchor-6" 258 -9 basechar 0
LayerCount: 2
Fore
SplineSet
264 767 m 2
 256 767 253 772 257 779 c 2
 318 889 l 2
 320 893 325 896 330 896 c 2
 359 896 l 2
 367 896 370 891 366 884 c 2
 299 774 l 2
 296 770 292 767 287 767 c 2
 264 767 l 2
291 -9 m 0
 153 -9 62 78 62 208 c 2
 62 493 l 2
 62 622 153 708 291 708 c 0
 428 708 519 623 519 496 c 2
 519 495 l 2
 519 489 515 484 509 484 c 2
 476 482 l 2
 470 482 466 486 466 492 c 2
 466 495 l 2
 466 595 396 661 291 661 c 0
 185 661 115 595 115 495 c 2
 115 205 l 2
 115 105 185 38 291 38 c 0
 396 38 466 105 466 205 c 2
 466 207 l 2
 466 213 470 216 476 216 c 2
 509 214 l 2
 515 214 519 211 519 205 c 0
 519 77 428 -9 291 -9 c 0
EndSplineSet
Substitution2: "'c2sc' Capitals to Small Capitals in Latin lookup 19 subtable" cacute.sc
Substitution2: "'aalt' Access All Alternates in Latin lookup 0 subtable" cacute.sc
EndChar

StartChar: Ccaron
Encoding: 268 268 31
Width: 565
GlyphClass: 2
Flags: MW
HStem: -9 47<238 343.5 238 359.5> 661 47<238 343.5> 770 126<185 273 185 311>
VStem: 62 53<208 493 493 495> 466 53<205 207 207 208 141 210 492 495 495 496>
AnchorPoint: "Anchor-7" 291 700 basechar 0
AnchorPoint: "Anchor-6" 258 -9 basechar 0
LayerCount: 2
Fore
SplineSet
179 884 m 2
 174 890 177 896 185 896 c 2
 211 896 l 2
 216 896 221 895 224 890 c 2
 290 803 l 2
 292 800 295 801 296 803 c 2
 361 890 l 2
 364 895 369 896 374 896 c 2
 400 896 l 2
 408 896 411 890 406 884 c 2
 324 776 l 2
 321 771 316 770 311 770 c 2
 273 770 l 2
 268 770 263 771 260 776 c 2
 179 884 l 2
291 -9 m 0
 153 -9 62 78 62 208 c 2
 62 493 l 2
 62 622 153 708 291 708 c 0
 428 708 519 623 519 496 c 2
 519 495 l 2
 519 489 515 484 509 484 c 2
 476 482 l 2
 470 482 466 486 466 492 c 2
 466 495 l 2
 466 595 396 661 291 661 c 0
 185 661 115 595 115 495 c 2
 115 205 l 2
 115 105 185 38 291 38 c 0
 396 38 466 105 466 205 c 2
 466 207 l 2
 466 213 470 216 476 216 c 2
 509 214 l 2
 515 214 519 211 519 205 c 0
 519 77 428 -9 291 -9 c 0
EndSplineSet
Substitution2: "'c2sc' Capitals to Small Capitals in Latin lookup 19 subtable" ccaron.sc
Substitution2: "'aalt' Access All Alternates in Latin lookup 0 subtable" ccaron.sc
EndChar

StartChar: Ccedilla
Encoding: 199 199 32
Width: 565
GlyphClass: 2
Flags: MW
HStem: -187.62 35.24 -9 47<283.5 285 285 291> 661 47<238 343.5>
VStem: 62 53<208 493 493 495> 466 53<205 207 207 208 141 210 492 495 495 496>
AnchorPoint: "Anchor-7" 291 700 basechar 0
AnchorPoint: "Anchor-6" 258 -9 basechar 0
LayerCount: 2
Fore
SplineSet
519 491 m 2
 519 488 515 484 509 484 c 2
 476 482 l 2
 470 482 466 486 466 492 c 2
 466 495 l 2
 466 595 396 661 291 661 c 0
 185 661 115 595 115 495 c 2
 115 205 l 2
 115 105 185 38 291 38 c 0
 396 38 466 105 466 205 c 2
 466 207 l 2
 466 213 470 216 476 216 c 2
 509 214 l 2
 515 214 519 211 519 205 c 0
 519 77 428 -9 291 -9 c 2
 285 -9 l 2
 282 -9 280 -12 283 -14 c 0
 329 -52 342 -92 334 -128 c 0
 320 -189 257 -194 212 -183 c 0
 206 -182 204 -178 205 -171 c 2
 208 -157 l 2
 209 -150 213 -148 220 -150 c 0
 254 -157 287 -150 294 -114 c 0
 300 -78 276 -43 244 -15 c 2
 230 -3 l 1
 231 -3 l 1
 127 19 62 98 62 208 c 2
 62 493 l 2
 62 622 153 708 291 708 c 0
 428 708 519 623 519 496 c 2
 519 491 l 2
EndSplineSet
Substitution2: "'c2sc' Capitals to Small Capitals in Latin lookup 19 subtable" ccedilla.sc
Substitution2: "'aalt' Access All Alternates in Latin lookup 0 subtable" ccedilla.sc
EndChar

StartChar: Ccircumflex
Encoding: 264 264 33
Width: 565
GlyphClass: 2
Flags: MW
HStem: -9 47<238 343.5 238 359.5> 661 47<238 343.5> 770 126<179 309 183 309 271 372 271 398>
VStem: 62 53<208 493 493 495> 466 53<205 207 207 208 141 210 492 495 495 496>
AnchorPoint: "Anchor-7" 290 896 basechar 0
AnchorPoint: "Anchor-6" 258 -9 basechar 0
LayerCount: 2
Fore
SplineSet
183 770 m 2
 175 770 172 776 177 782 c 2
 258 890 l 2
 261 895 266 896 271 896 c 2
 309 896 l 2
 314 896 319 895 322 890 c 2
 404 782 l 2
 409 776 406 770 398 770 c 2
 372 770 l 2
 367 770 362 771 359 776 c 2
 294 863 l 2
 293 865 290 866 288 863 c 2
 222 776 l 2
 219 771 214 770 209 770 c 2
 183 770 l 2
291 -9 m 0
 153 -9 62 78 62 208 c 2
 62 493 l 2
 62 622 153 708 291 708 c 0
 428 708 519 623 519 496 c 2
 519 495 l 2
 519 489 515 484 509 484 c 2
 476 482 l 2
 470 482 466 486 466 492 c 2
 466 495 l 2
 466 595 396 661 291 661 c 0
 185 661 115 595 115 495 c 2
 115 205 l 2
 115 105 185 38 291 38 c 0
 396 38 466 105 466 205 c 2
 466 207 l 2
 466 213 470 216 476 216 c 2
 509 214 l 2
 515 214 519 211 519 205 c 0
 519 77 428 -9 291 -9 c 0
EndSplineSet
EndChar

StartChar: Cdotaccent
Encoding: 266 266 34
Width: 565
GlyphClass: 2
Flags: MW
HStem: -9 47<238 343.5 238 359.5> 661 47<238 343.5> 801 100<275.5 304.5>
VStem: 62 53<208 493 493 495> 240 100<836.5 865.5> 466 53<205 207 207 208 141 210 492 495 495 496>
AnchorPoint: "Anchor-7" 291 700 basechar 0
AnchorPoint: "Anchor-6" 258 -9 basechar 0
LayerCount: 2
Fore
SplineSet
290 801 m 0
 261 801 240 822 240 851 c 0
 240 880 261 901 290 901 c 0
 319 901 340 880 340 851 c 0
 340 822 319 801 290 801 c 0
291 -9 m 0
 153 -9 62 78 62 208 c 2
 62 493 l 2
 62 622 153 708 291 708 c 0
 428 708 519 623 519 496 c 2
 519 495 l 2
 519 489 515 484 509 484 c 2
 476 482 l 2
 470 482 466 486 466 492 c 2
 466 495 l 2
 466 595 396 661 291 661 c 0
 185 661 115 595 115 495 c 2
 115 205 l 2
 115 105 185 38 291 38 c 0
 396 38 466 105 466 205 c 2
 466 207 l 2
 466 213 470 216 476 216 c 2
 509 214 l 2
 515 214 519 211 519 205 c 0
 519 77 428 -9 291 -9 c 0
EndSplineSet
Substitution2: "'c2sc' Capitals to Small Capitals in Latin lookup 19 subtable" cdotaccent.sc
Substitution2: "'aalt' Access All Alternates in Latin lookup 0 subtable" cdotaccent.sc
EndChar

StartChar: D
Encoding: 68 68 35
Width: 602
GlyphClass: 2
Flags: MW
HStem: 0 47<148 333> 653 47<147 148 148 333 333 336>
VStem: 91 53<50 51 51 649> 487 53<194 506 506 512>
AnchorPoint: "Anchor-7" 302 700 basechar 0
LayerCount: 2
Fore
SplineSet
101 0 m 2
 95 0 91 4 91 10 c 2
 91 690 l 2
 91 696 95 700 101 700 c 2
 333 700 l 2
 460 700 540 628 540 512 c 2
 540 188 l 2
 540 72 460 0 333 0 c 2
 101 0 l 2
144 51 m 2
 144 49 146 47 148 47 c 2
 336 47 l 2
 429 47 487 103 487 194 c 2
 487 506 l 2
 487 597 429 653 336 653 c 2
 148 653 l 2
 146 653 144 651 144 649 c 2
 144 51 l 2
EndSplineSet
Substitution2: "'c2sc' Capitals to Small Capitals in Latin lookup 19 subtable" d.sc
Substitution2: "'aalt' Access All Alternates in Latin lookup 0 subtable" d.sc
EndChar

StartChar: Eth
Encoding: 208 208 36
Width: 597
GlyphClass: 2
Flags: MW
HStem: 0 47<143 328> 345 40<35 82 38 82 143 282> 653 47<142 143 143 328 328 330>
VStem: 86 53<50 51 51 341 389 649> 482 53<194 506 506 512>
AnchorPoint: "Anchor-7" 297 700 basechar 0
LayerCount: 2
Fore
SplineSet
328 700 m 2
 455 700 535 628 535 512 c 2
 535 188 l 2
 535 72 455 0 328 0 c 2
 96 0 l 2
 90 0 86 4 86 10 c 2
 86 341 l 2
 86 343 84 345 82 345 c 2
 38 345 l 2
 32 345 28 349 28 355 c 2
 28 375 l 2
 28 381 32 385 38 385 c 2
 82 385 l 2
 84 385 86 387 86 389 c 2
 86 690 l 2
 86 696 90 700 96 700 c 2
 328 700 l 2
482 194 m 2
 482 506 l 2
 482 597 424 653 330 653 c 2
 143 653 l 2
 141 653 139 651 139 649 c 2
 139 389 l 2
 139 387 141 385 143 385 c 2
 282 385 l 2
 288 385 292 381 292 375 c 2
 292 355 l 2
 292 349 288 345 282 345 c 2
 143 345 l 2
 141 345 139 343 139 341 c 2
 139 51 l 2
 139 49 141 47 143 47 c 2
 331 47 l 2
 424 47 482 103 482 194 c 2
EndSplineSet
Substitution2: "'c2sc' Capitals to Small Capitals in Latin lookup 19 subtable" eth.sc
Substitution2: "'aalt' Access All Alternates in Latin lookup 0 subtable" eth.sc
EndChar

StartChar: Dcaron
Encoding: 270 270 37
Width: 602
GlyphClass: 2
Flags: MW
HStem: 0 47<148 333> 653 47<147 148 148 333 333 336> 768 126<196 284 196 322>
VStem: 91 53<50 51 51 649> 487 53<194 506 506 512>
AnchorPoint: "Anchor-7" 302 700 basechar 0
LayerCount: 2
Fore
SplineSet
190 882 m 2
 185 888 188 894 196 894 c 2
 222 894 l 2
 227 894 232 893 235 888 c 2
 301 801 l 2
 303 798 306 799 307 801 c 2
 372 888 l 2
 375 893 380 894 385 894 c 2
 411 894 l 2
 419 894 422 888 417 882 c 2
 335 774 l 2
 332 769 327 768 322 768 c 2
 284 768 l 2
 279 768 274 769 271 774 c 2
 190 882 l 2
101 0 m 2
 95 0 91 4 91 10 c 2
 91 690 l 2
 91 696 95 700 101 700 c 2
 333 700 l 2
 460 700 540 628 540 512 c 2
 540 188 l 2
 540 72 460 0 333 0 c 2
 101 0 l 2
144 51 m 2
 144 49 146 47 148 47 c 2
 336 47 l 2
 429 47 487 103 487 194 c 2
 487 506 l 2
 487 597 429 653 336 653 c 2
 148 653 l 2
 146 653 144 651 144 649 c 2
 144 51 l 2
EndSplineSet
Substitution2: "'c2sc' Capitals to Small Capitals in Latin lookup 19 subtable" dcaron.sc
Substitution2: "'aalt' Access All Alternates in Latin lookup 0 subtable" dcaron.sc
EndChar

StartChar: Dcroat
Encoding: 272 272 38
Width: 597
GlyphClass: 2
Flags: MW
HStem: 0 47<143 328> 345 40<35 82 38 82 143 282> 653 47<142 143 143 328 328 330>
VStem: 86 53<50 51 51 341 389 649> 482 53<194 506 506 512>
AnchorPoint: "Anchor-7" 297 700 basechar 0
LayerCount: 2
Fore
SplineSet
328 700 m 2
 455 700 535 628 535 512 c 2
 535 188 l 2
 535 72 455 0 328 0 c 2
 96 0 l 2
 90 0 86 4 86 10 c 2
 86 341 l 2
 86 343 84 345 82 345 c 2
 38 345 l 2
 32 345 28 349 28 355 c 2
 28 375 l 2
 28 381 32 385 38 385 c 2
 82 385 l 2
 84 385 86 387 86 389 c 2
 86 690 l 2
 86 696 90 700 96 700 c 2
 328 700 l 2
482 194 m 2
 482 506 l 2
 482 597 424 653 330 653 c 2
 143 653 l 2
 141 653 139 651 139 649 c 2
 139 389 l 2
 139 387 141 385 143 385 c 2
 282 385 l 2
 288 385 292 381 292 375 c 2
 292 355 l 2
 292 349 288 345 282 345 c 2
 143 345 l 2
 141 345 139 343 139 341 c 2
 139 51 l 2
 139 49 141 47 143 47 c 2
 331 47 l 2
 424 47 482 103 482 194 c 2
EndSplineSet
Substitution2: "'c2sc' Capitals to Small Capitals in Latin lookup 19 subtable" dcroat.sc
Substitution2: "'aalt' Access All Alternates in Latin lookup 0 subtable" dcroat.sc
EndChar

StartChar: E
Encoding: 69 69 39
Width: 578
GlyphClass: 2
Flags: MW
HStem: 0 47<148 526 148 526> 328 47<147 416 148 416> 653 47<147 148 148 526>
VStem: 91 53<50 51 51 324 378 379 379 649>
AnchorPoint: "Anchor-7" 309 700 basechar 0
AnchorPoint: "Anchor-6" 313 0 basechar 0
LayerCount: 2
Fore
SplineSet
536 663 m 2
 536 657 532 653 526 653 c 2
 148 653 l 2
 146 653 144 651 144 649 c 2
 144 379 l 2
 144 377 146 375 148 375 c 2
 416 375 l 2
 422 375 426 371 426 365 c 2
 426 338 l 2
 426 332 422 328 416 328 c 2
 148 328 l 2
 146 328 144 326 144 324 c 2
 144 51 l 2
 144 49 146 47 148 47 c 2
 526 47 l 2
 532 47 536 43 536 37 c 2
 536 10 l 2
 536 4 532 0 526 0 c 2
 101 0 l 2
 95 0 91 4 91 10 c 2
 91 690 l 2
 91 696 95 700 101 700 c 2
 526 700 l 2
 532 700 536 696 536 690 c 2
 536 663 l 2
EndSplineSet
Substitution2: "'c2sc' Capitals to Small Capitals in Latin lookup 19 subtable" e.sc
Substitution2: "'aalt' Access All Alternates in Latin lookup 0 subtable" e.sc
EndChar

StartChar: Eacute
Encoding: 201 201 40
Width: 578
GlyphClass: 2
Flags: MW
HStem: 0 47<148 526 148 526> 328 47<147 416 148 416> 653 47<147 148 148 526> 767 129<278 377 282 377>
VStem: 91 53<50 51 51 324 378 379 379 649>
AnchorPoint: "Anchor-7" 332 896 basechar 0
AnchorPoint: "Anchor-6" 313 0 basechar 0
LayerCount: 2
Fore
SplineSet
377 896 m 2
 385 896 388 891 384 884 c 2
 317 774 l 2
 314 770 310 767 305 767 c 2
 282 767 l 2
 274 767 271 772 275 779 c 2
 336 889 l 2
 338 893 343 896 348 896 c 2
 377 896 l 2
536 663 m 2
 536 657 532 653 526 653 c 2
 148 653 l 2
 146 653 144 651 144 649 c 2
 144 379 l 2
 144 377 146 375 148 375 c 2
 416 375 l 2
 422 375 426 371 426 365 c 2
 426 338 l 2
 426 332 422 328 416 328 c 2
 148 328 l 2
 146 328 144 326 144 324 c 2
 144 51 l 2
 144 49 146 47 148 47 c 2
 526 47 l 2
 532 47 536 43 536 37 c 2
 536 10 l 2
 536 4 532 0 526 0 c 2
 101 0 l 2
 95 0 91 4 91 10 c 2
 91 690 l 2
 91 696 95 700 101 700 c 2
 526 700 l 2
 532 700 536 696 536 690 c 2
 536 663 l 2
EndSplineSet
Substitution2: "'c2sc' Capitals to Small Capitals in Latin lookup 19 subtable" eacute.sc
Substitution2: "'aalt' Access All Alternates in Latin lookup 0 subtable" eacute.sc
EndChar

StartChar: Ecaron
Encoding: 282 282 41
Width: 578
GlyphClass: 2
Flags: MW
HStem: 0 47<148 526 148 526> 328 47<147 416 148 416> 653 47<147 148 148 526> 770 126<202 290 202 328>
VStem: 91 53<50 51 51 324 378 379 379 649>
AnchorPoint: "Anchor-7" 309 700 basechar 0
AnchorPoint: "Anchor-6" 313 0 basechar 0
LayerCount: 2
Fore
SplineSet
341 776 m 2
 338 771 333 770 328 770 c 2
 290 770 l 2
 285 770 280 771 277 776 c 2
 196 884 l 2
 191 890 194 896 202 896 c 2
 228 896 l 2
 233 896 238 895 241 890 c 2
 307 803 l 2
 309 800 312 801 313 803 c 2
 378 890 l 2
 381 895 386 896 391 896 c 2
 417 896 l 2
 425 896 428 890 423 884 c 2
 341 776 l 2
536 663 m 2
 536 657 532 653 526 653 c 2
 148 653 l 2
 146 653 144 651 144 649 c 2
 144 379 l 2
 144 377 146 375 148 375 c 2
 416 375 l 2
 422 375 426 371 426 365 c 2
 426 338 l 2
 426 332 422 328 416 328 c 2
 148 328 l 2
 146 328 144 326 144 324 c 2
 144 51 l 2
 144 49 146 47 148 47 c 2
 526 47 l 2
 532 47 536 43 536 37 c 2
 536 10 l 2
 536 4 532 0 526 0 c 2
 101 0 l 2
 95 0 91 4 91 10 c 2
 91 690 l 2
 91 696 95 700 101 700 c 2
 526 700 l 2
 532 700 536 696 536 690 c 2
 536 663 l 2
EndSplineSet
Substitution2: "'c2sc' Capitals to Small Capitals in Latin lookup 19 subtable" ecaron.sc
Substitution2: "'aalt' Access All Alternates in Latin lookup 0 subtable" ecaron.sc
EndChar

StartChar: uni0228
Encoding: 552 552 42
Width: 578
GlyphClass: 2
Flags: MW
HStem: -178.62 35.24 0 47<148 289 339.5 341 341 526> 328 47<147 416 148 416> 653 47<147 148 148 526>
VStem: 91 53<50 51 51 324 378 379 379 649>
AnchorPoint: "Anchor-7" 309 700 basechar 0
AnchorPoint: "Anchor-6" 313 0 basechar 0
LayerCount: 2
Fore
SplineSet
536 663 m 2
 536 657 532 653 526 653 c 2
 148 653 l 2
 146 653 144 651 144 649 c 2
 144 379 l 2
 144 377 146 375 148 375 c 2
 416 375 l 2
 422 375 426 371 426 365 c 2
 426 338 l 2
 426 332 422 328 416 328 c 2
 148 328 l 2
 146 328 144 326 144 324 c 2
 144 51 l 2
 144 49 146 47 148 47 c 2
 526 47 l 2
 532 47 536 43 536 37 c 2
 536 10 l 2
 536 4 532 0 526 0 c 2
 341 0 l 2
 338 0 336 -3 339 -5 c 0
 384 -43 397 -83 389 -119 c 0
 375 -180 312 -185 267 -174 c 0
 261 -173 259 -169 260 -162 c 2
 263 -148 l 2
 264 -141 268 -139 275 -141 c 0
 309 -148 342 -141 349 -105 c 0
 356 -68 328 -31 294 -2 c 0
 293 0 291 0 289 0 c 2
 101 0 l 2
 95 0 91 4 91 10 c 2
 91 690 l 2
 91 696 95 700 101 700 c 2
 526 700 l 2
 532 700 536 696 536 690 c 2
 536 663 l 2
EndSplineSet
Substitution2: "'c2sc' Capitals to Small Capitals in Latin lookup 19 subtable" uni0229.sc
Substitution2: "'aalt' Access All Alternates in Latin lookup 0 subtable" uni0229.sc
EndChar

StartChar: Ecircumflex
Encoding: 202 202 43
Width: 578
GlyphClass: 2
Flags: MW
HStem: 0 47<148 526 148 526> 328 47<147 416 148 416> 653 47<147 148 148 526> 770 126<197 327 201 327 289 390 289 416>
VStem: 91 53<50 51 51 324 378 379 379 649>
AnchorPoint: "Anchor-7" 308 896 basechar 0
AnchorPoint: "Anchor-6" 313 0 basechar 0
LayerCount: 2
Fore
SplineSet
312 863 m 2
 311 865 308 866 306 863 c 2
 240 776 l 2
 237 771 232 770 227 770 c 2
 201 770 l 2
 193 770 190 776 195 782 c 2
 276 890 l 2
 279 895 284 896 289 896 c 2
 327 896 l 2
 332 896 337 895 340 890 c 2
 422 782 l 2
 427 776 424 770 416 770 c 2
 390 770 l 2
 385 770 380 771 377 776 c 2
 312 863 l 2
536 663 m 2
 536 657 532 653 526 653 c 2
 148 653 l 2
 146 653 144 651 144 649 c 2
 144 379 l 2
 144 377 146 375 148 375 c 2
 416 375 l 2
 422 375 426 371 426 365 c 2
 426 338 l 2
 426 332 422 328 416 328 c 2
 148 328 l 2
 146 328 144 326 144 324 c 2
 144 51 l 2
 144 49 146 47 148 47 c 2
 526 47 l 2
 532 47 536 43 536 37 c 2
 536 10 l 2
 536 4 532 0 526 0 c 2
 101 0 l 2
 95 0 91 4 91 10 c 2
 91 690 l 2
 91 696 95 700 101 700 c 2
 526 700 l 2
 532 700 536 696 536 690 c 2
 536 663 l 2
EndSplineSet
Substitution2: "'c2sc' Capitals to Small Capitals in Latin lookup 19 subtable" ecircumflex.sc
Substitution2: "'aalt' Access All Alternates in Latin lookup 0 subtable" ecircumflex.sc
EndChar

StartChar: uni1EBE
Encoding: 7870 7870 44
Width: 578
GlyphClass: 2
Flags: MW
HStem: 0 47<148 526 148 526> 328 47<147 416 148 416> 653 47<147 148 148 526> 770 126<197 327 201 327 289 390 289 416> 843 129<430 529 434 529>
VStem: 91 53<50 51 51 324 378 379 379 649>
AnchorPoint: "Anchor-7" 484 972 basechar 0
AnchorPoint: "Anchor-6" 313 0 basechar 0
LayerCount: 2
Fore
SplineSet
529 972 m 2xec
 537 972 540 967 536 960 c 2
 469 850 l 2
 466 846 462 843 457 843 c 2
 434 843 l 2
 426 843 423 848 427 855 c 2
 488 965 l 2
 490 969 495 972 500 972 c 2
 529 972 l 2xec
312 863 m 2xf4
 311 865 308 866 306 863 c 2
 240 776 l 2
 237 771 232 770 227 770 c 2
 201 770 l 2
 193 770 190 776 195 782 c 2
 276 890 l 2
 279 895 284 896 289 896 c 2
 327 896 l 2
 332 896 337 895 340 890 c 2
 422 782 l 2
 427 776 424 770 416 770 c 2
 390 770 l 2
 385 770 380 771 377 776 c 2
 312 863 l 2xf4
101 0 m 2
 95 0 91 4 91 10 c 2
 91 690 l 2
 91 696 95 700 101 700 c 2
 526 700 l 2
 532 700 536 696 536 690 c 2
 536 663 l 2
 536 657 532 653 526 653 c 2
 148 653 l 2
 146 653 144 651 144 649 c 2
 144 379 l 2
 144 377 146 375 148 375 c 2
 416 375 l 2
 422 375 426 371 426 365 c 2
 426 338 l 2
 426 332 422 328 416 328 c 2
 148 328 l 2
 146 328 144 326 144 324 c 2
 144 51 l 2
 144 49 146 47 148 47 c 2
 526 47 l 2
 532 47 536 43 536 37 c 2
 536 10 l 2
 536 4 532 0 526 0 c 2
 101 0 l 2
EndSplineSet
EndChar

StartChar: uni1EC6
Encoding: 7878 7878 45
Width: 578
GlyphClass: 2
Flags: MW
HStem: -174 94<300 327.5> 0 47<148 526 148 526> 328 47<147 416 148 416> 653 47<147 148 148 526> 770 126<197 327 201 327 289 390 289 416>
VStem: 91 53<50 51 51 324 378 379 379 649> 267 94<-140.5 -113.5>
AnchorPoint: "Anchor-7" 308 896 basechar 0
AnchorPoint: "Anchor-6" 313 -175 basechar 0
LayerCount: 2
Fore
SplineSet
312 863 m 2
 311 865 308 866 306 863 c 2
 240 776 l 2
 237 771 232 770 227 770 c 2
 201 770 l 2
 193 770 190 776 195 782 c 2
 276 890 l 2
 279 895 284 896 289 896 c 2
 327 896 l 2
 332 896 337 895 340 890 c 2
 422 782 l 2
 427 776 424 770 416 770 c 2
 390 770 l 2
 385 770 380 771 377 776 c 2
 312 863 l 2
536 663 m 2
 536 657 532 653 526 653 c 2
 148 653 l 2
 146 653 144 651 144 649 c 2
 144 379 l 2
 144 377 146 375 148 375 c 2
 416 375 l 2
 422 375 426 371 426 365 c 2
 426 338 l 2
 426 332 422 328 416 328 c 2
 148 328 l 2
 146 328 144 326 144 324 c 2
 144 51 l 2
 144 49 146 47 148 47 c 2
 526 47 l 2
 532 47 536 43 536 37 c 2
 536 10 l 2
 536 4 532 0 526 0 c 2
 101 0 l 2
 95 0 91 4 91 10 c 2
 91 690 l 2
 91 696 95 700 101 700 c 2
 526 700 l 2
 532 700 536 696 536 690 c 2
 536 663 l 2
314 -80 m 0
 341 -80 361 -100 361 -127 c 0
 361 -154 341 -174 314 -174 c 0
 286 -174 267 -154 267 -127 c 0
 267 -100 286 -80 314 -80 c 0
EndSplineSet
EndChar

StartChar: uni1EC0
Encoding: 7872 7872 46
Width: 578
GlyphClass: 2
Flags: MW
HStem: 0 47<148 526 148 526> 328 47<147 416 148 416> 653 47<147 148 148 526> 770 126<197 327 201 327 289 390 289 416> 882 129<354 426 354 448>
VStem: 91 53<50 51 51 324 378 379 379 649>
AnchorPoint: "Anchor-7" 392 1011 basechar 0
AnchorPoint: "Anchor-6" 313 0 basechar 0
LayerCount: 2
Fore
SplineSet
455 894 m 2xec
 459 887 456 882 448 882 c 2
 426 882 l 2
 421 882 417 885 414 889 c 2
 347 999 l 2
 343 1006 346 1011 354 1011 c 2
 383 1011 l 2
 388 1011 393 1009 395 1004 c 2
 455 894 l 2xec
312 863 m 2xf4
 311 865 308 866 306 863 c 2
 240 776 l 2
 237 771 232 770 227 770 c 2
 201 770 l 2
 193 770 190 776 195 782 c 2
 276 890 l 2
 279 895 284 896 289 896 c 2
 327 896 l 2
 332 896 337 895 340 890 c 2
 422 782 l 2
 427 776 424 770 416 770 c 2
 390 770 l 2
 385 770 380 771 377 776 c 2
 312 863 l 2xf4
536 663 m 2
 536 657 532 653 526 653 c 2
 148 653 l 2
 146 653 144 651 144 649 c 2
 144 379 l 2
 144 377 146 375 148 375 c 2
 416 375 l 2
 422 375 426 371 426 365 c 2
 426 338 l 2
 426 332 422 328 416 328 c 2
 148 328 l 2
 146 328 144 326 144 324 c 2
 144 51 l 2
 144 49 146 47 148 47 c 2
 526 47 l 2
 532 47 536 43 536 37 c 2
 536 10 l 2
 536 4 532 0 526 0 c 2
 101 0 l 2
 95 0 91 4 91 10 c 2
 91 690 l 2
 91 696 95 700 101 700 c 2
 526 700 l 2
 532 700 536 696 536 690 c 2
 536 663 l 2
EndSplineSet
EndChar

StartChar: uni1EC2
Encoding: 7874 7874 47
Width: 578
GlyphClass: 2
Flags: MW
HStem: 0 47<148 526 148 526> 328 47<147 416 148 416> 653 47<147 148 148 526> 770 126<197 327 201 327 289 390 289 416> 1014 34<406.5 432>
VStem: 91 53<50 51 51 324 378 379 379 649> 465 35<955 986.5>
AnchorPoint: "Anchor-7" 416 1045 basechar 0
AnchorPoint: "Anchor-6" 313 0 basechar 0
LayerCount: 2
Fore
SplineSet
420 1014 m 0
 393 1014 382 1004 364 978 c 0
 360 972 355 971 350 975 c 2
 339 982 l 2
 334 986 333 991 336 996 c 0
 359 1030 377 1048 421 1048 c 0
 467 1048 500 1018 500 976 c 0
 500 924 451 905 435 872 c 0
 432 866 428 863 422 865 c 2
 411 868 l 2
 405 870 402 875 405 881 c 0
 425 929 465 934 465 976 c 0
 465 997 444 1014 420 1014 c 0
312 863 m 2
 311 865 308 866 306 863 c 2
 240 776 l 2
 237 771 232 770 227 770 c 2
 201 770 l 2
 193 770 190 776 195 782 c 2
 276 890 l 2
 279 895 284 896 289 896 c 2
 327 896 l 2
 332 896 337 895 340 890 c 2
 422 782 l 2
 427 776 424 770 416 770 c 2
 390 770 l 2
 385 770 380 771 377 776 c 2
 312 863 l 2
536 663 m 2
 536 657 532 653 526 653 c 2
 148 653 l 2
 146 653 144 651 144 649 c 2
 144 379 l 2
 144 377 146 375 148 375 c 2
 416 375 l 2
 422 375 426 371 426 365 c 2
 426 338 l 2
 426 332 422 328 416 328 c 2
 148 328 l 2
 146 328 144 326 144 324 c 2
 144 51 l 2
 144 49 146 47 148 47 c 2
 526 47 l 2
 532 47 536 43 536 37 c 2
 536 10 l 2
 536 4 532 0 526 0 c 2
 101 0 l 2
 95 0 91 4 91 10 c 2
 91 690 l 2
 91 696 95 700 101 700 c 2
 526 700 l 2
 532 700 536 696 536 690 c 2
 536 663 l 2
EndSplineSet
EndChar

StartChar: uni1EC4
Encoding: 7876 7876 48
Width: 578
GlyphClass: 2
Flags: MW
HStem: 0 47<148 526 148 526> 328 47<147 416 148 416> 653 47<147 148 148 526> 770 126<197 327 201 327 289 390 289 416> 927 40<361.5 379.5 361.5 383.5> 970 42<248 268.5>
VStem: 91 53<50 51 51 324 378 379 379 649>
AnchorPoint: "Anchor-7" 312 1013 basechar 0
AnchorPoint: "Anchor-6" 313 0 basechar 0
LayerCount: 2
Fore
SplineSet
259 970 m 0
 237 970 222 964 204 943 c 0
 200 937 195 936 190 941 c 2
 178 952 l 2
 174 956 173 961 176 966 c 0
 197 997 226 1012 257 1012 c 0xe6
 283 1012 301 1000 320 989 c 0
 338 978 353 967 370 967 c 0
 389 967 407 973 424 998 c 0
 428 1004 433 1004 438 1000 c 2
 449 990 l 2
 453 986 455 981 452 976 c 0
 432 942 398 927 369 927 c 0xea
 343 927 325 939 309 949 c 0
 291 961 278 970 259 970 c 0
276 890 m 2xf6
 279 895 284 896 289 896 c 2
 327 896 l 2
 332 896 337 895 340 890 c 2
 422 782 l 2
 427 776 424 770 416 770 c 2
 390 770 l 2
 385 770 380 771 377 776 c 2
 312 863 l 2
 311 865 308 866 306 863 c 2
 240 776 l 2
 237 771 232 770 227 770 c 2
 201 770 l 2
 193 770 190 776 195 782 c 2
 276 890 l 2xf6
536 663 m 2
 536 657 532 653 526 653 c 2
 148 653 l 2
 146 653 144 651 144 649 c 2
 144 379 l 2
 144 377 146 375 148 375 c 2
 416 375 l 2
 422 375 426 371 426 365 c 2
 426 338 l 2
 426 332 422 328 416 328 c 2
 148 328 l 2
 146 328 144 326 144 324 c 2
 144 51 l 2
 144 49 146 47 148 47 c 2
 526 47 l 2
 532 47 536 43 536 37 c 2
 536 10 l 2
 536 4 532 0 526 0 c 2
 101 0 l 2
 95 0 91 4 91 10 c 2
 91 690 l 2
 91 696 95 700 101 700 c 2
 526 700 l 2
 532 700 536 696 536 690 c 2
 536 663 l 2
EndSplineSet
EndChar

StartChar: Edieresis
Encoding: 203 203 49
Width: 578
GlyphClass: 2
Flags: MW
HStem: 0 47<148 526 148 526> 328 47<147 416 148 416> 653 47<147 148 148 526> 802 100<212.5 241.5 376.5 405.5>
VStem: 91 53<50 51 51 324 378 379 379 649> 177 100<838 867> 341 100<838 867>
AnchorPoint: "Anchor-7" 309 700 basechar 0
AnchorPoint: "Anchor-6" 313 0 basechar 0
LayerCount: 2
Fore
SplineSet
227 802 m 0
 198 802 177 824 177 852 c 0
 177 882 198 902 227 902 c 0
 256 902 277 882 277 852 c 0
 277 824 256 802 227 802 c 0
391 802 m 0
 362 802 341 824 341 852 c 0
 341 882 362 902 391 902 c 0
 420 902 441 882 441 852 c 0
 441 824 420 802 391 802 c 0
536 663 m 2
 536 657 532 653 526 653 c 2
 148 653 l 2
 146 653 144 651 144 649 c 2
 144 379 l 2
 144 377 146 375 148 375 c 2
 416 375 l 2
 422 375 426 371 426 365 c 2
 426 338 l 2
 426 332 422 328 416 328 c 2
 148 328 l 2
 146 328 144 326 144 324 c 2
 144 51 l 2
 144 49 146 47 148 47 c 2
 526 47 l 2
 532 47 536 43 536 37 c 2
 536 10 l 2
 536 4 532 0 526 0 c 2
 101 0 l 2
 95 0 91 4 91 10 c 2
 91 690 l 2
 91 696 95 700 101 700 c 2
 526 700 l 2
 532 700 536 696 536 690 c 2
 536 663 l 2
EndSplineSet
Substitution2: "'c2sc' Capitals to Small Capitals in Latin lookup 19 subtable" edieresis.sc
Substitution2: "'aalt' Access All Alternates in Latin lookup 0 subtable" edieresis.sc
EndChar

StartChar: Edotaccent
Encoding: 278 278 50
Width: 578
GlyphClass: 2
Flags: MW
HStem: 0 47<148 526 148 526> 328 47<147 416 148 416> 653 47<147 148 148 526> 801 100<293.5 322.5>
VStem: 91 53<50 51 51 324 378 379 379 649> 258 100<836.5 865.5>
AnchorPoint: "Anchor-7" 309 700 basechar 0
AnchorPoint: "Anchor-6" 313 0 basechar 0
LayerCount: 2
Fore
SplineSet
308 801 m 0
 279 801 258 822 258 851 c 0
 258 880 279 901 308 901 c 0
 337 901 358 880 358 851 c 0
 358 822 337 801 308 801 c 0
536 663 m 2
 536 657 532 653 526 653 c 2
 148 653 l 2
 146 653 144 651 144 649 c 2
 144 379 l 2
 144 377 146 375 148 375 c 2
 416 375 l 2
 422 375 426 371 426 365 c 2
 426 338 l 2
 426 332 422 328 416 328 c 2
 148 328 l 2
 146 328 144 326 144 324 c 2
 144 51 l 2
 144 49 146 47 148 47 c 2
 526 47 l 2
 532 47 536 43 536 37 c 2
 536 10 l 2
 536 4 532 0 526 0 c 2
 101 0 l 2
 95 0 91 4 91 10 c 2
 91 690 l 2
 91 696 95 700 101 700 c 2
 526 700 l 2
 532 700 536 696 536 690 c 2
 536 663 l 2
EndSplineSet
Substitution2: "'c2sc' Capitals to Small Capitals in Latin lookup 19 subtable" edotaccent.sc
Substitution2: "'aalt' Access All Alternates in Latin lookup 0 subtable" edotaccent.sc
EndChar

StartChar: uni1EB8
Encoding: 7864 7864 51
Width: 578
GlyphClass: 2
Flags: MW
HStem: -174 94<300 327.5> 0 47<148 526 148 526> 328 47<147 416 148 416> 653 47<147 148 148 526>
VStem: 91 53<50 51 51 324 378 379 379 649> 267 94<-140.5 -113.5>
AnchorPoint: "Anchor-7" 309 700 basechar 0
AnchorPoint: "Anchor-6" 313 -175 basechar 0
LayerCount: 2
Fore
SplineSet
536 663 m 2
 536 657 532 653 526 653 c 2
 148 653 l 2
 146 653 144 651 144 649 c 2
 144 379 l 2
 144 377 146 375 148 375 c 2
 416 375 l 2
 422 375 426 371 426 365 c 2
 426 338 l 2
 426 332 422 328 416 328 c 2
 148 328 l 2
 146 328 144 326 144 324 c 2
 144 51 l 2
 144 49 146 47 148 47 c 2
 526 47 l 2
 532 47 536 43 536 37 c 2
 536 10 l 2
 536 4 532 0 526 0 c 2
 101 0 l 2
 95 0 91 4 91 10 c 2
 91 690 l 2
 91 696 95 700 101 700 c 2
 526 700 l 2
 532 700 536 696 536 690 c 2
 536 663 l 2
314 -80 m 0
 341 -80 361 -100 361 -127 c 0
 361 -154 341 -174 314 -174 c 0
 286 -174 267 -154 267 -127 c 0
 267 -100 286 -80 314 -80 c 0
EndSplineSet
EndChar

StartChar: Egrave
Encoding: 200 200 52
Width: 578
GlyphClass: 2
Flags: MW
HStem: 0 47<148 526 148 526> 328 47<147 416 148 416> 653 47<147 148 148 526> 767 129<227 299 227 322>
VStem: 91 53<50 51 51 324 378 379 379 649>
AnchorPoint: "Anchor-7" 265 896 basechar 0
AnchorPoint: "Anchor-6" 313 0 basechar 0
LayerCount: 2
Fore
SplineSet
329 779 m 2
 333 772 330 767 322 767 c 2
 299 767 l 2
 294 767 290 770 287 774 c 2
 220 884 l 2
 216 891 219 896 227 896 c 2
 257 896 l 2
 262 896 267 894 269 889 c 2
 329 779 l 2
536 663 m 2
 536 657 532 653 526 653 c 2
 148 653 l 2
 146 653 144 651 144 649 c 2
 144 379 l 2
 144 377 146 375 148 375 c 2
 416 375 l 2
 422 375 426 371 426 365 c 2
 426 338 l 2
 426 332 422 328 416 328 c 2
 148 328 l 2
 146 328 144 326 144 324 c 2
 144 51 l 2
 144 49 146 47 148 47 c 2
 526 47 l 2
 532 47 536 43 536 37 c 2
 536 10 l 2
 536 4 532 0 526 0 c 2
 101 0 l 2
 95 0 91 4 91 10 c 2
 91 690 l 2
 91 696 95 700 101 700 c 2
 526 700 l 2
 532 700 536 696 536 690 c 2
 536 663 l 2
EndSplineSet
Substitution2: "'c2sc' Capitals to Small Capitals in Latin lookup 19 subtable" egrave.sc
Substitution2: "'aalt' Access All Alternates in Latin lookup 0 subtable" egrave.sc
EndChar

StartChar: uni1EBA
Encoding: 7866 7866 53
Width: 578
GlyphClass: 2
Flags: MW
HStem: 0 47<148 526 148 526> 328 47<147 416 148 416> 653 47<147 148 148 526> 894 33<299.5 325>
VStem: 91 53<50 51 51 324 378 379 379 649> 358 35<834.5 865.5>
AnchorPoint: "Anchor-7" 309 925 basechar 0
AnchorPoint: "Anchor-6" 313 0 basechar 0
LayerCount: 2
Fore
SplineSet
313 894 m 0
 286 894 274 884 257 858 c 0
 253 852 248 851 243 855 c 2
 232 862 l 2
 226 866 226 870 229 876 c 0
 252 910 270 927 314 927 c 0
 360 927 393 897 393 855 c 0
 393 804 344 785 328 752 c 0
 325 746 321 743 315 745 c 2
 304 748 l 2
 298 750 295 755 298 761 c 0
 318 809 358 814 358 855 c 0
 358 876 337 894 313 894 c 0
536 663 m 2
 536 657 532 653 526 653 c 2
 148 653 l 2
 146 653 144 651 144 649 c 2
 144 379 l 2
 144 377 146 375 148 375 c 2
 416 375 l 2
 422 375 426 371 426 365 c 2
 426 338 l 2
 426 332 422 328 416 328 c 2
 148 328 l 2
 146 328 144 326 144 324 c 2
 144 51 l 2
 144 49 146 47 148 47 c 2
 526 47 l 2
 532 47 536 43 536 37 c 2
 536 10 l 2
 536 4 532 0 526 0 c 2
 101 0 l 2
 95 0 91 4 91 10 c 2
 91 690 l 2
 91 696 95 700 101 700 c 2
 526 700 l 2
 532 700 536 696 536 690 c 2
 536 663 l 2
EndSplineSet
EndChar

StartChar: Emacron
Encoding: 274 274 54
Width: 578
GlyphClass: 2
Flags: MW
HStem: 0 47<148 526 148 526> 328 47<147 416 148 416> 653 47<147 148 148 526> 794 40<185 430 188 430>
VStem: 91 53<50 51 51 324 378 379 379 649>
AnchorPoint: "Anchor-7" 309 700 basechar 0
AnchorPoint: "Anchor-6" 313 0 basechar 0
LayerCount: 2
Fore
SplineSet
430 834 m 2
 436 834 440 830 440 824 c 2
 440 804 l 2
 440 798 436 794 430 794 c 2
 188 794 l 2
 182 794 178 798 178 804 c 2
 178 824 l 2
 178 830 182 834 188 834 c 2
 430 834 l 2
536 663 m 2
 536 657 532 653 526 653 c 2
 148 653 l 2
 146 653 144 651 144 649 c 2
 144 379 l 2
 144 377 146 375 148 375 c 2
 416 375 l 2
 422 375 426 371 426 365 c 2
 426 338 l 2
 426 332 422 328 416 328 c 2
 148 328 l 2
 146 328 144 326 144 324 c 2
 144 51 l 2
 144 49 146 47 148 47 c 2
 526 47 l 2
 532 47 536 43 536 37 c 2
 536 10 l 2
 536 4 532 0 526 0 c 2
 101 0 l 2
 95 0 91 4 91 10 c 2
 91 690 l 2
 91 696 95 700 101 700 c 2
 526 700 l 2
 532 700 536 696 536 690 c 2
 536 663 l 2
EndSplineSet
Substitution2: "'c2sc' Capitals to Small Capitals in Latin lookup 19 subtable" emacron.sc
Substitution2: "'aalt' Access All Alternates in Latin lookup 0 subtable" emacron.sc
EndChar

StartChar: Eogonek
Encoding: 280 280 55
Width: 578
GlyphClass: 2
Flags: MW
HStem: -177.62 35.38 0 47<148 284 336 337 337 526> 328 47<147 416 148 416> 653 47<147 148 148 526>
VStem: 91 53<50 51 51 324 378 379 379 649> 235.51 42.49
AnchorPoint: "Anchor-7" 309 700 basechar 0
AnchorPoint: "Anchor-6" 313 0 basechar 0
LayerCount: 2
Fore
SplineSet
536 663 m 2
 536 657 532 653 526 653 c 2
 148 653 l 2
 146 653 144 651 144 649 c 2
 144 379 l 2
 144 377 146 375 148 375 c 2
 416 375 l 2
 422 375 426 371 426 365 c 2
 426 338 l 2
 426 332 422 328 416 328 c 2
 148 328 l 2
 146 328 144 326 144 324 c 2
 144 51 l 2
 144 49 146 47 148 47 c 2
 526 47 l 2
 532 47 536 43 536 37 c 2
 536 10 l 2
 536 4 532 0 526 0 c 2
 337 0 l 2
 335 0 333 -1 332 -2 c 0
 297 -31 271 -67 278 -104 c 0
 285 -139 318 -147 352 -140 c 0
 359 -138 363 -140 364 -147 c 2
 367 -161 l 2
 368 -168 366 -172 360 -173 c 0
 315 -184 252 -179 238 -118 c 0
 229 -82 242 -43 286 -5 c 0
 289 -2 287 0 284 0 c 2
 101 0 l 2
 95 0 91 4 91 10 c 2
 91 690 l 2
 91 696 95 700 101 700 c 2
 526 700 l 2
 532 700 536 696 536 690 c 2
 536 663 l 2
EndSplineSet
Substitution2: "'c2sc' Capitals to Small Capitals in Latin lookup 19 subtable" eogonek.sc
Substitution2: "'aalt' Access All Alternates in Latin lookup 0 subtable" eogonek.sc
EndChar

StartChar: uni1EBC
Encoding: 7868 7868 56
Width: 578
GlyphClass: 2
Flags: MW
HStem: 0 47<148 526 148 526> 328 47<147 416 148 416> 653 47<147 148 148 526> 807 41<363.5 381.5 363.5 386> 850 42<251 271.5>
VStem: 91 53<50 51 51 324 378 379 379 649>
AnchorPoint: "Anchor-7" 315 893 basechar 0
AnchorPoint: "Anchor-6" 313 0 basechar 0
LayerCount: 2
Fore
SplineSet
262 850 m 0
 240 850 224 844 207 823 c 0
 203 817 198 816 193 821 c 2
 180 832 l 2
 176 836 175 841 178 846 c 0
 200 878 228 892 260 892 c 0xec
 286 892 304 880 322 869 c 0
 340 858 355 848 372 848 c 0
 391 848 409 854 426 878 c 0
 430 884 435 884 440 880 c 2
 451 870 l 2
 455 866 457 861 454 856 c 0
 435 822 400 807 372 807 c 0xf4
 346 807 327 819 311 829 c 0
 293 841 281 850 262 850 c 0
536 663 m 2
 536 657 532 653 526 653 c 2
 148 653 l 2
 146 653 144 651 144 649 c 2
 144 379 l 2
 144 377 146 375 148 375 c 2
 416 375 l 2
 422 375 426 371 426 365 c 2
 426 338 l 2
 426 332 422 328 416 328 c 2
 148 328 l 2
 146 328 144 326 144 324 c 2
 144 51 l 2
 144 49 146 47 148 47 c 2
 526 47 l 2
 532 47 536 43 536 37 c 2
 536 10 l 2
 536 4 532 0 526 0 c 2
 101 0 l 2
 95 0 91 4 91 10 c 2
 91 690 l 2
 91 696 95 700 101 700 c 2
 526 700 l 2
 532 700 536 696 536 690 c 2
 536 663 l 2
EndSplineSet
EndChar

StartChar: F
Encoding: 70 70 57
Width: 558
Flags: MW
HStem: 0 21G<98 101 101 134> 328 47<147 415 148 415> 653 47<147 148 148 525>
VStem: 91 53<10 324 378 379 379 649>
LayerCount: 2
Fore
SplineSet
535 663 m 2
 535 657 531 653 525 653 c 2
 148 653 l 2
 146 653 144 651 144 649 c 2
 144 379 l 2
 144 377 146 375 148 375 c 2
 415 375 l 2
 421 375 425 371 425 365 c 2
 425 338 l 2
 425 332 421 328 415 328 c 2
 148 328 l 2
 146 328 144 326 144 324 c 2
 144 10 l 2
 144 4 140 0 134 0 c 2
 101 0 l 2
 95 0 91 4 91 10 c 2
 91 690 l 2
 91 696 95 700 101 700 c 2
 525 700 l 2
 531 700 535 696 535 690 c 2
 535 663 l 2
EndSplineSet
Substitution2: "'c2sc' Capitals to Small Capitals in Latin lookup 19 subtable" f.sc
Substitution2: "'aalt' Access All Alternates in Latin lookup 0 subtable" f.sc
EndChar

StartChar: G
Encoding: 71 71 58
Width: 574
GlyphClass: 2
Flags: MW
HStem: -8 47<238 343 238 358.5> 303 47<301 507 304 460> 661 47<237 342.5>
VStem: 61 53<206 494 494 496> 464 53<198 210 210 299 299 300 486 499 499 500>
AnchorPoint: "Anchor-7" 288 700 basechar 0
AnchorPoint: "Anchor-6" 288 -8 basechar 0
LayerCount: 2
Fore
SplineSet
290 -8 m 0
 152 -8 61 78 61 206 c 2
 61 494 l 2
 61 623 152 708 290 708 c 0
 427 708 517 622 517 500 c 2
 517 486 l 2
 517 480 513 476 507 476 c 2
 474 476 l 2
 468 476 464 480 464 486 c 2
 464 499 l 2
 464 595 395 661 290 661 c 0
 184 661 114 595 114 496 c 2
 114 204 l 2
 114 105 185 39 291 39 c 0
 395 39 464 101 464 198 c 2
 464 299 l 2
 464 301 462 303 460 303 c 2
 304 303 l 2
 298 303 294 307 294 313 c 2
 294 340 l 2
 294 346 298 350 304 350 c 2
 507 350 l 2
 513 350 517 346 517 340 c 2
 517 210 l 2
 517 74 427 -8 290 -8 c 0
EndSplineSet
Substitution2: "'c2sc' Capitals to Small Capitals in Latin lookup 19 subtable" g.sc
Substitution2: "'aalt' Access All Alternates in Latin lookup 0 subtable" g.sc
EndChar

StartChar: Gbreve
Encoding: 286 286 59
Width: 574
GlyphClass: 2
Flags: MW
HStem: -8 47<238 343 238 358.5> 303 47<301 507 304 460> 661 47<237 342.5> 759 34<269 307 269 318.5>
VStem: 61 53<206 494 494 496> 464 53<198 210 210 299 299 300 486 499 499 500>
AnchorPoint: "Anchor-7" 288 700 basechar 0
AnchorPoint: "Anchor-6" 288 -8 basechar 0
LayerCount: 2
Fore
SplineSet
288 759 m 0
 227 759 180 800 174 854 c 0
 174 860 178 864 184 864 c 2
 203 864 l 2
 209 864 213 861 214 854 c 0
 219 819 250 793 288 793 c 0
 326 793 357 819 362 854 c 0
 363 861 367 864 373 864 c 2
 392 864 l 2
 398 864 402 861 402 854 c 0
 397 800 349 759 288 759 c 0
290 -8 m 0
 152 -8 61 78 61 206 c 2
 61 494 l 2
 61 623 152 708 290 708 c 0
 427 708 517 622 517 500 c 2
 517 486 l 2
 517 480 513 476 507 476 c 2
 474 476 l 2
 468 476 464 480 464 486 c 2
 464 499 l 2
 464 595 395 661 290 661 c 0
 184 661 114 595 114 496 c 2
 114 204 l 2
 114 105 185 39 291 39 c 0
 395 39 464 101 464 198 c 2
 464 299 l 2
 464 301 462 303 460 303 c 2
 304 303 l 2
 298 303 294 307 294 313 c 2
 294 340 l 2
 294 346 298 350 304 350 c 2
 507 350 l 2
 513 350 517 346 517 340 c 2
 517 210 l 2
 517 74 427 -8 290 -8 c 0
EndSplineSet
Substitution2: "'c2sc' Capitals to Small Capitals in Latin lookup 19 subtable" gbreve.sc
Substitution2: "'aalt' Access All Alternates in Latin lookup 0 subtable" gbreve.sc
EndChar

StartChar: Gcircumflex
Encoding: 284 284 60
Width: 574
GlyphClass: 2
Flags: MW
HStem: -8 47<238 343 238 358.5> 303 47<301 507 304 460> 661 47<237 342.5> 770 126<176 306 180 306 268 369 268 395>
VStem: 61 53<206 494 494 496> 464 53<198 210 210 299 299 300 486 499 499 500>
AnchorPoint: "Anchor-7" 287 896 basechar 0
AnchorPoint: "Anchor-6" 288 -8 basechar 0
LayerCount: 2
Fore
SplineSet
180 770 m 2
 172 770 169 776 174 782 c 2
 255 890 l 2
 258 895 263 896 268 896 c 2
 306 896 l 2
 311 896 316 895 319 890 c 2
 401 782 l 2
 406 776 403 770 395 770 c 2
 369 770 l 2
 364 770 359 771 356 776 c 2
 291 863 l 2
 290 865 287 866 285 863 c 2
 219 776 l 2
 216 771 211 770 206 770 c 2
 180 770 l 2
290 -8 m 0
 152 -8 61 78 61 206 c 2
 61 494 l 2
 61 623 152 708 290 708 c 0
 427 708 517 622 517 500 c 2
 517 486 l 2
 517 480 513 476 507 476 c 2
 474 476 l 2
 468 476 464 480 464 486 c 2
 464 499 l 2
 464 595 395 661 290 661 c 0
 184 661 114 595 114 496 c 2
 114 204 l 2
 114 105 185 39 291 39 c 0
 395 39 464 101 464 198 c 2
 464 299 l 2
 464 301 462 303 460 303 c 2
 304 303 l 2
 298 303 294 307 294 313 c 2
 294 340 l 2
 294 346 298 350 304 350 c 2
 507 350 l 2
 513 350 517 346 517 340 c 2
 517 210 l 2
 517 74 427 -8 290 -8 c 0
EndSplineSet
EndChar

StartChar: Gdotaccent
Encoding: 288 288 61
Width: 574
GlyphClass: 2
Flags: MW
HStem: -8 47<238 343 238 358.5> 303 47<301 507 304 460> 661 47<237 342.5> 801 100<273.5 302.5>
VStem: 61 53<206 494 494 496> 238 100<836.5 865.5> 464 53<198 210 210 299 299 300 486 499 499 500>
AnchorPoint: "Anchor-7" 288 700 basechar 0
AnchorPoint: "Anchor-6" 288 -8 basechar 0
LayerCount: 2
Fore
SplineSet
288 801 m 0
 259 801 238 822 238 851 c 0
 238 880 259 901 288 901 c 0
 317 901 338 880 338 851 c 0
 338 822 317 801 288 801 c 0
290 -8 m 0
 152 -8 61 78 61 206 c 2
 61 494 l 2
 61 623 152 708 290 708 c 0
 427 708 517 622 517 500 c 2
 517 486 l 2
 517 480 513 476 507 476 c 2
 474 476 l 2
 468 476 464 480 464 486 c 2
 464 499 l 2
 464 595 395 661 290 661 c 0
 184 661 114 595 114 496 c 2
 114 204 l 2
 114 105 185 39 291 39 c 0
 395 39 464 101 464 198 c 2
 464 299 l 2
 464 301 462 303 460 303 c 2
 304 303 l 2
 298 303 294 307 294 313 c 2
 294 340 l 2
 294 346 298 350 304 350 c 2
 507 350 l 2
 513 350 517 346 517 340 c 2
 517 210 l 2
 517 74 427 -8 290 -8 c 0
EndSplineSet
Substitution2: "'c2sc' Capitals to Small Capitals in Latin lookup 19 subtable" gdotaccent.sc
Substitution2: "'aalt' Access All Alternates in Latin lookup 0 subtable" gdotaccent.sc
EndChar

StartChar: H
Encoding: 72 72 62
Width: 639
GlyphClass: 2
Flags: MW
HStem: 0 21G<98 101 101 134 502 505 505 538> 328 47<147 491 148 491> 680 20G<101 134 134 137 505 538 538 541>
VStem: 91 53<10 324 378 379 379 690> 495 53<10 324 324 325 379 690>
AnchorPoint: "Anchor-8" 320 508 basechar 0
AnchorPoint: "Anchor-7" 320 701 basechar 0
LayerCount: 2
Fore
SplineSet
495 690 m 2
 495 696 499 700 505 700 c 2
 538 700 l 2
 544 700 548 696 548 690 c 2
 548 10 l 2
 548 4 544 0 538 0 c 2
 505 0 l 2
 499 0 495 4 495 10 c 2
 495 324 l 2
 495 326 493 328 491 328 c 2
 148 328 l 2
 146 328 144 326 144 324 c 2
 144 10 l 2
 144 4 140 0 134 0 c 2
 101 0 l 2
 95 0 91 4 91 10 c 2
 91 690 l 2
 91 696 95 700 101 700 c 2
 134 700 l 2
 140 700 144 696 144 690 c 2
 144 379 l 2
 144 377 146 375 148 375 c 2
 491 375 l 2
 493 375 495 377 495 379 c 2
 495 690 l 2
EndSplineSet
Substitution2: "'c2sc' Capitals to Small Capitals in Latin lookup 19 subtable" h.sc
Substitution2: "'aalt' Access All Alternates in Latin lookup 0 subtable" h.sc
EndChar

StartChar: Hbar
Encoding: 294 294 63
Width: 639
GlyphClass: 2
Flags: MW
HStem: 0 21G<98 101 101 134 502 505 505 538> 328 47<147 491 148 491> 508 41<36 87 39 87 148 491 552 600> 508 192<36 134 39 134 101 148 101 491>
VStem: 91 53<10 324 378 379 379 504 553 690> 495 53<10 324 324 325 379 504 553 690>
AnchorPoint: "Anchor-8" 320 508 basechar 0
AnchorPoint: "Anchor-7" 320 701 basechar 0
LayerCount: 2
Fore
SplineSet
600 549 m 2xec
 606 549 610 545 610 539 c 2
 610 518 l 2
 610 512 606 508 600 508 c 2
 552 508 l 2
 550 508 548 506 548 504 c 2
 548 10 l 2
 548 4 544 0 538 0 c 2
 505 0 l 2
 499 0 495 4 495 10 c 2
 495 324 l 2
 495 326 493 328 491 328 c 2
 148 328 l 2
 146 328 144 326 144 324 c 2
 144 10 l 2
 144 4 140 0 134 0 c 2
 101 0 l 2
 95 0 91 4 91 10 c 2
 91 504 l 2
 91 506 89 508 87 508 c 2
 39 508 l 2
 33 508 29 512 29 518 c 2
 29 539 l 2
 29 545 33 549 39 549 c 2
 87 549 l 2
 89 549 91 551 91 553 c 2xec
 91 690 l 2
 91 696 95 700 101 700 c 2
 134 700 l 2
 140 700 144 696 144 690 c 2xdc
 144 553 l 2
 144 551 146 549 148 549 c 2
 491 549 l 2
 493 549 495 551 495 553 c 2xec
 495 690 l 2
 495 696 499 700 505 700 c 2
 538 700 l 2
 544 700 548 696 548 690 c 2xdc
 548 553 l 2
 548 551 550 549 552 549 c 2
 600 549 l 2xec
491 375 m 2
 493 375 495 377 495 379 c 2
 495 504 l 2
 495 506 493 508 491 508 c 2
 148 508 l 2
 146 508 144 506 144 504 c 2
 144 379 l 2
 144 377 146 375 148 375 c 2
 491 375 l 2
EndSplineSet
Substitution2: "'c2sc' Capitals to Small Capitals in Latin lookup 19 subtable" hbar.sc
Substitution2: "'aalt' Access All Alternates in Latin lookup 0 subtable" hbar.sc
EndChar

StartChar: Hcircumflex
Encoding: 292 292 64
Width: 639
GlyphClass: 2
Flags: MW
HStem: 0 21G<98 101 101 134 502 505 505 538> 328 47<147 491 148 491> 680 20G<101 134 134 137 505 538 538 541> 771 126<208 338 212 338 300 401 300 427>
VStem: 91 53<10 324 378 379 379 690> 495 53<10 324 324 325 379 690>
AnchorPoint: "Anchor-8" 320 508 basechar 0
AnchorPoint: "Anchor-7" 319 897 basechar 0
LayerCount: 2
Fore
SplineSet
323 864 m 2
 322 866 319 867 317 864 c 2
 251 777 l 2
 248 772 243 771 238 771 c 2
 212 771 l 2
 204 771 201 777 206 783 c 2
 287 891 l 2
 290 896 295 897 300 897 c 2
 338 897 l 2
 343 897 348 896 351 891 c 2
 433 783 l 2
 438 777 435 771 427 771 c 2
 401 771 l 2
 396 771 391 772 388 777 c 2
 323 864 l 2
495 690 m 2
 495 696 499 700 505 700 c 2
 538 700 l 2
 544 700 548 696 548 690 c 2
 548 10 l 2
 548 4 544 0 538 0 c 2
 505 0 l 2
 499 0 495 4 495 10 c 2
 495 324 l 2
 495 326 493 328 491 328 c 2
 148 328 l 2
 146 328 144 326 144 324 c 2
 144 10 l 2
 144 4 140 0 134 0 c 2
 101 0 l 2
 95 0 91 4 91 10 c 2
 91 690 l 2
 91 696 95 700 101 700 c 2
 134 700 l 2
 140 700 144 696 144 690 c 2
 144 379 l 2
 144 377 146 375 148 375 c 2
 491 375 l 2
 493 375 495 377 495 379 c 2
 495 690 l 2
EndSplineSet
EndChar

StartChar: I
Encoding: 73 73 65
Width: 235
GlyphClass: 2
Flags: MW
HStem: 0 21G<98 101 101 134> 680 20G<101 134 134 137>
VStem: 91 53<10 690>
AnchorPoint: "Anchor-7" 118 700 basechar 0
AnchorPoint: "Anchor-6" 118 0 basechar 0
LayerCount: 2
Fore
SplineSet
101 0 m 2
 95 0 91 4 91 10 c 2
 91 690 l 2
 91 696 95 700 101 700 c 2
 134 700 l 2
 140 700 144 696 144 690 c 2
 144 10 l 2
 144 4 140 0 134 0 c 2
 101 0 l 2
EndSplineSet
Substitution2: "'c2sc' Capitals to Small Capitals in Latin lookup 19 subtable" i.sc
Substitution2: "'aalt' Access All Alternates in Latin lookup 0 subtable" i.sc
EndChar

StartChar: Iacute
Encoding: 205 205 66
Width: 235
GlyphClass: 2
Flags: MW
HStem: 0 21G<98 101 101 134> 680 20G<101 134 134 137> 767 129<87 186 91 186>
VStem: 91 53<10 690>
AnchorPoint: "Anchor-7" 141 896 basechar 0
AnchorPoint: "Anchor-6" 118 0 basechar 0
LayerCount: 2
Fore
SplineSet
91 767 m 2
 83 767 80 772 84 779 c 2
 145 889 l 2
 147 893 152 896 157 896 c 2
 186 896 l 2
 194 896 197 891 193 884 c 2
 126 774 l 2
 123 770 119 767 114 767 c 2
 91 767 l 2
101 0 m 2
 95 0 91 4 91 10 c 2
 91 690 l 2
 91 696 95 700 101 700 c 2
 134 700 l 2
 140 700 144 696 144 690 c 2
 144 10 l 2
 144 4 140 0 134 0 c 2
 101 0 l 2
EndSplineSet
Substitution2: "'c2sc' Capitals to Small Capitals in Latin lookup 19 subtable" iacute.sc
Substitution2: "'aalt' Access All Alternates in Latin lookup 0 subtable" iacute.sc
EndChar

StartChar: Icircumflex
Encoding: 206 206 67
Width: 235
GlyphClass: 2
Flags: MW
HStem: 0 21G<98 101 101 134> 680 20G<101 134 134 137> 770 126<5 135 9 135 97 198 97 224>
VStem: 91 53<10 690>
AnchorPoint: "Anchor-7" 116 896 basechar 0
AnchorPoint: "Anchor-6" 118 0 basechar 0
LayerCount: 2
Fore
SplineSet
9 770 m 2
 1 770 -2 776 3 782 c 2
 84 890 l 2
 87 895 92 896 97 896 c 2
 135 896 l 2
 140 896 145 895 148 890 c 2
 230 782 l 2
 235 776 232 770 224 770 c 2
 198 770 l 2
 193 770 188 771 185 776 c 2
 120 863 l 2
 119 865 116 866 114 863 c 2
 48 776 l 2
 45 771 40 770 35 770 c 2
 9 770 l 2
101 0 m 2
 95 0 91 4 91 10 c 2
 91 690 l 2
 91 696 95 700 101 700 c 2
 134 700 l 2
 140 700 144 696 144 690 c 2
 144 10 l 2
 144 4 140 0 134 0 c 2
 101 0 l 2
EndSplineSet
Substitution2: "'c2sc' Capitals to Small Capitals in Latin lookup 19 subtable" icircumflex.sc
Substitution2: "'aalt' Access All Alternates in Latin lookup 0 subtable" icircumflex.sc
EndChar

StartChar: Idieresis
Encoding: 207 207 68
Width: 235
GlyphClass: 2
Flags: MW
HStem: 0 21G<98 101 101 134> 680 20G<101 134 134 137> 802 100<20.5 49.5 184.5 213.5>
VStem: -15 100<838 867> 91 53<10 690> 149 100<838 867>
AnchorPoint: "Anchor-7" 118 700 basechar 0
AnchorPoint: "Anchor-6" 118 0 basechar 0
LayerCount: 2
Fore
SplineSet
35 802 m 0
 6 802 -15 824 -15 852 c 0
 -15 882 6 902 35 902 c 0
 64 902 85 882 85 852 c 0
 85 824 64 802 35 802 c 0
199 802 m 0
 170 802 149 824 149 852 c 0
 149 882 170 902 199 902 c 0
 228 902 249 882 249 852 c 0
 249 824 228 802 199 802 c 0
101 0 m 2xe8
 95 0 91 4 91 10 c 2
 91 690 l 2
 91 696 95 700 101 700 c 2
 134 700 l 2
 140 700 144 696 144 690 c 2
 144 10 l 2
 144 4 140 0 134 0 c 2
 101 0 l 2xe8
EndSplineSet
Substitution2: "'c2sc' Capitals to Small Capitals in Latin lookup 19 subtable" idieresis.sc
Substitution2: "'aalt' Access All Alternates in Latin lookup 0 subtable" idieresis.sc
EndChar

StartChar: Idotaccent
Encoding: 304 304 69
Width: 235
GlyphClass: 2
Flags: MW
HStem: 0 21G<98 101 101 134> 680 20G<101 134 134 137> 801 100<102.5 131.5>
VStem: 67 100<836.5 865.5> 91 53<10 690>
AnchorPoint: "Anchor-7" 118 700 basechar 0
AnchorPoint: "Anchor-6" 118 0 basechar 0
LayerCount: 2
Fore
SplineSet
117 801 m 0xf0
 88 801 67 822 67 851 c 0
 67 880 88 901 117 901 c 0
 146 901 167 880 167 851 c 0
 167 822 146 801 117 801 c 0xf0
101 0 m 2xe8
 95 0 91 4 91 10 c 2
 91 690 l 2
 91 696 95 700 101 700 c 2
 134 700 l 2
 140 700 144 696 144 690 c 2
 144 10 l 2
 144 4 140 0 134 0 c 2
 101 0 l 2xe8
EndSplineSet
Substitution2: "'c2sc' Capitals to Small Capitals in Latin lookup 19 subtable" i.sc.loclTRK
Substitution2: "'aalt' Access All Alternates in Latin lookup 0 subtable" i.sc.loclTRK
EndChar

StartChar: uni1ECA
Encoding: 7882 7882 70
Width: 235
GlyphClass: 2
Flags: MW
HStem: -174 94<104 131.5> 0 21G<98 101 101 134> 680 20G<101 134 134 137>
VStem: 71 94<-140.5 -113.5> 91 53<10 690>
AnchorPoint: "Anchor-7" 118 700 basechar 0
AnchorPoint: "Anchor-6" 117 -175 basechar 0
LayerCount: 2
Fore
SplineSet
101 0 m 2xe8
 95 0 91 4 91 10 c 2
 91 690 l 2
 91 696 95 700 101 700 c 2
 134 700 l 2
 140 700 144 696 144 690 c 2
 144 10 l 2
 144 4 140 0 134 0 c 2
 101 0 l 2xe8
118 -174 m 0xf0
 90 -174 71 -154 71 -127 c 0
 71 -100 90 -80 118 -80 c 0
 145 -80 165 -100 165 -127 c 0
 165 -154 145 -174 118 -174 c 0xf0
EndSplineSet
EndChar

StartChar: Igrave
Encoding: 204 204 71
Width: 235
GlyphClass: 2
Flags: MW
HStem: 0 21G<98 101 101 134> 680 20G<101 134 134 137> 767 129<36 108 36 131>
VStem: 91 53<10 690>
AnchorPoint: "Anchor-7" 74 896 basechar 0
AnchorPoint: "Anchor-6" 118 0 basechar 0
LayerCount: 2
Fore
SplineSet
138 779 m 2
 142 772 139 767 131 767 c 2
 108 767 l 2
 103 767 99 770 96 774 c 2
 29 884 l 2
 25 891 28 896 36 896 c 2
 66 896 l 2
 71 896 76 894 78 889 c 2
 138 779 l 2
101 0 m 2
 95 0 91 4 91 10 c 2
 91 690 l 2
 91 696 95 700 101 700 c 2
 134 700 l 2
 140 700 144 696 144 690 c 2
 144 10 l 2
 144 4 140 0 134 0 c 2
 101 0 l 2
EndSplineSet
Substitution2: "'c2sc' Capitals to Small Capitals in Latin lookup 19 subtable" igrave.sc
Substitution2: "'aalt' Access All Alternates in Latin lookup 0 subtable" igrave.sc
EndChar

StartChar: uni1EC8
Encoding: 7880 7880 72
Width: 235
GlyphClass: 2
Flags: MW
HStem: 0 21G<98 101 101 134> 680 20G<101 134 134 137> 894 33<107.5 133>
VStem: 91 53<10 690> 166 35<834.5 865.5>
AnchorPoint: "Anchor-7" 117 925 basechar 0
AnchorPoint: "Anchor-6" 118 0 basechar 0
LayerCount: 2
Fore
SplineSet
112 748 m 2
 106 750 103 755 106 761 c 0
 126 809 166 814 166 855 c 0
 166 876 145 894 121 894 c 0
 94 894 82 884 65 858 c 0
 61 852 56 851 51 855 c 2
 40 862 l 2
 34 866 34 870 37 876 c 0
 60 910 78 927 122 927 c 0
 168 927 201 897 201 855 c 0xf8
 201 805 154 786 136 754 c 0
 135 753 135 751 134 750 c 0
 132 746 128 744 123 745 c 2
 112 748 l 2
101 0 m 2
 95 0 91 4 91 10 c 2
 91 690 l 2
 91 696 95 700 101 700 c 2
 134 700 l 2
 140 700 144 696 144 690 c 2
 144 10 l 2
 144 4 140 0 134 0 c 2
 101 0 l 2
EndSplineSet
EndChar

StartChar: Imacron
Encoding: 298 298 73
Width: 235
GlyphClass: 2
Flags: MW
HStem: 0 21G<98 101 101 134> 680 20G<101 134 134 137> 794 40<-6 239 -3 239>
VStem: 91 53<10 690>
AnchorPoint: "Anchor-7" 118 700 basechar 0
AnchorPoint: "Anchor-6" 118 0 basechar 0
LayerCount: 2
Fore
SplineSet
-3 794 m 2
 -9 794 -13 798 -13 804 c 2
 -13 824 l 2
 -13 830 -9 834 -3 834 c 2
 239 834 l 2
 245 834 249 830 249 824 c 2
 249 804 l 2
 249 798 245 794 239 794 c 2
 -3 794 l 2
101 0 m 2
 95 0 91 4 91 10 c 2
 91 690 l 2
 91 696 95 700 101 700 c 2
 134 700 l 2
 140 700 144 696 144 690 c 2
 144 10 l 2
 144 4 140 0 134 0 c 2
 101 0 l 2
EndSplineSet
Substitution2: "'c2sc' Capitals to Small Capitals in Latin lookup 19 subtable" imacron.sc
Substitution2: "'aalt' Access All Alternates in Latin lookup 0 subtable" imacron.sc
EndChar

StartChar: Iogonek
Encoding: 302 302 74
Width: 230
GlyphClass: 2
Flags: MW
HStem: -184.62 35.38 0 21G<85 88 88 93> 680 20G<88 121 121 124>
VStem: 35.72 42.28 78 53<10 690>
AnchorPoint: "Anchor-7" 105 700 basechar 0
AnchorPoint: "Anchor-6" 105 0 basechar 0
LayerCount: 2
Fore
SplineSet
151 -147 m 0xf0
 158 -145 162 -147 163 -154 c 2
 166 -168 l 2
 167 -175 165 -179 159 -180 c 0
 115 -191 52 -186 38 -125 c 0xf0
 29 -87 43 -45 94 -5 c 0
 98 -3 96 0 93 0 c 2
 88 0 l 2
 82 0 78 4 78 10 c 2
 78 690 l 2
 78 696 82 700 88 700 c 2
 121 700 l 2
 127 700 131 696 131 690 c 2xe8
 131 3 l 2
 131 1 133 0 134 -1 c 0
 135 -3 132 -8 127 -12 c 0
 95 -40 71 -75 78 -111 c 0
 84 -146 117 -154 151 -147 c 0xf0
EndSplineSet
Substitution2: "'c2sc' Capitals to Small Capitals in Latin lookup 19 subtable" iogonek.sc
Substitution2: "'aalt' Access All Alternates in Latin lookup 0 subtable" iogonek.sc
EndChar

StartChar: Itilde
Encoding: 296 296 75
Width: 235
GlyphClass: 2
Flags: MW
HStem: 0 21G<98 101 101 134> 680 20G<101 134 134 137> 807 41<171.5 189.5 171.5 193.5> 850 42<59 79.5>
VStem: 91 53<10 690>
AnchorPoint: "Anchor-7" 123 893 basechar 0
AnchorPoint: "Anchor-6" 118 0 basechar 0
LayerCount: 2
Fore
SplineSet
180 807 m 0
 154 807 135 819 119 829 c 0
 101 841 89 850 70 850 c 0
 48 850 32 844 15 823 c 0
 11 817 6 816 1 821 c 2
 -12 832 l 2
 -16 836 -17 841 -14 846 c 0
 8 878 36 892 68 892 c 0xd8
 94 892 112 880 130 869 c 0
 148 858 163 848 180 848 c 0
 199 848 217 854 234 878 c 0
 238 884 243 884 248 880 c 2
 259 870 l 2
 263 866 265 860 260 853 c 0
 241 821 207 807 180 807 c 0
101 0 m 2xd8
 95 0 91 4 91 10 c 2
 91 690 l 2
 91 696 95 700 101 700 c 2
 134 700 l 2
 140 700 144 696 144 690 c 2
 144 10 l 2
 144 4 140 0 134 0 c 2
 101 0 l 2xd8
EndSplineSet
EndChar

StartChar: J
Encoding: 74 74 76
Width: 568
GlyphClass: 2
Flags: MW
HStem: -8 47<210.5 311.5 210.5 327> 680 20G<439 472 472 475>
VStem: 40 53<196 275> 429 53<196 690>
AnchorPoint: "Anchor-7" 456 701 basechar 0
LayerCount: 2
Fore
SplineSet
261 -8 m 0
 128 -8 40 73 40 196 c 2
 40 275 l 2
 40 281 44 285 50 285 c 2
 83 285 l 2
 89 285 93 281 93 275 c 2
 93 196 l 2
 93 102 160 39 261 39 c 0
 362 39 429 102 429 196 c 2
 429 690 l 2
 429 696 433 700 439 700 c 2
 472 700 l 2
 478 700 482 696 482 690 c 2
 482 196 l 2
 482 73 393 -8 261 -8 c 0
EndSplineSet
Substitution2: "'c2sc' Capitals to Small Capitals in Latin lookup 19 subtable" j.sc
Substitution2: "'aalt' Access All Alternates in Latin lookup 0 subtable" j.sc
EndChar

StartChar: Jcircumflex
Encoding: 308 308 77
Width: 568
GlyphClass: 2
Flags: MW
HStem: -8 47<210.5 311.5 210.5 327> 680 20G<439 472 472 475> 771 126<344 474 348 474 436 537 436 563>
VStem: 40 53<196 275> 429 53<196 690>
AnchorPoint: "Anchor-7" 455 897 basechar 0
LayerCount: 2
Fore
SplineSet
348 771 m 2
 340 771 337 777 342 783 c 2
 423 891 l 2
 426 896 431 897 436 897 c 2
 474 897 l 2
 479 897 484 896 487 891 c 2
 569 783 l 2
 574 777 571 771 563 771 c 2
 537 771 l 2
 532 771 527 772 524 777 c 2
 459 864 l 2
 458 866 455 867 453 864 c 2
 387 777 l 2
 384 772 379 771 374 771 c 2
 348 771 l 2
261 -8 m 0
 128 -8 40 73 40 196 c 2
 40 275 l 2
 40 281 44 285 50 285 c 2
 83 285 l 2
 89 285 93 281 93 275 c 2
 93 196 l 2
 93 102 160 39 261 39 c 0
 362 39 429 102 429 196 c 2
 429 690 l 2
 429 696 433 700 439 700 c 2
 472 700 l 2
 478 700 482 696 482 690 c 2
 482 196 l 2
 482 73 393 -8 261 -8 c 0
EndSplineSet
EndChar

StartChar: K
Encoding: 75 75 78
Width: 586
GlyphClass: 2
Flags: MW
HStem: 0 21G<98 101 101 134 516.5 519 519 558> 680 20G<101 134 134 137 498 535 535 539>
VStem: 91 53<10 258 335.5 337 337 690>
AnchorPoint: "Anchor-6" 311 0 basechar 0
LayerCount: 2
Fore
SplineSet
101 0 m 2
 95 0 91 4 91 10 c 2
 91 690 l 2
 91 696 95 700 101 700 c 2
 134 700 l 2
 140 700 144 696 144 690 c 2
 144 337 l 2
 144 334 147 332 149 335 c 2
 486 695 l 2
 489 698 493 700 498 700 c 2
 535 700 l 2
 543 700 547 695 541 688 c 2
 291 413 l 2
 290 412 290 409 291 407 c 2
 565 12 l 2
 569 6 566 0 558 0 c 2
 519 0 l 2
 514 0 510 1 507 6 c 2
 255 369 l 2
 254 371 251 372 249 370 c 2
 146 263 l 2
 145 262 144 260 144 258 c 2
 144 10 l 2
 144 4 140 0 134 0 c 2
 101 0 l 2
EndSplineSet
Substitution2: "'c2sc' Capitals to Small Capitals in Latin lookup 19 subtable" k.sc
Substitution2: "'aalt' Access All Alternates in Latin lookup 0 subtable" k.sc
EndChar

StartChar: L
Encoding: 76 76 79
Width: 539
GlyphClass: 2
Flags: MW
HStem: 0 47<148 507 148 507> 680 20G<101 134 134 137>
VStem: 91 53<50 51 51 690>
AnchorPoint: "Anchor-7" 117 700 basechar 0
AnchorPoint: "Anchor-6" 277 0 basechar 0
LayerCount: 2
Fore
SplineSet
101 0 m 2
 95 0 91 4 91 10 c 2
 91 690 l 2
 91 696 95 700 101 700 c 2
 134 700 l 2
 140 700 144 696 144 690 c 2
 144 51 l 2
 144 49 146 47 148 47 c 2
 507 47 l 2
 513 47 517 43 517 37 c 2
 517 10 l 2
 517 4 513 0 507 0 c 2
 101 0 l 2
EndSplineSet
Substitution2: "'c2sc' Capitals to Small Capitals in Latin lookup 19 subtable" l.sc
Substitution2: "'aalt' Access All Alternates in Latin lookup 0 subtable" l.sc
EndChar

StartChar: Lacute
Encoding: 313 313 80
Width: 570
GlyphClass: 2
Flags: MW
HStem: 0 47<148 507 148 507> 680 20G<101 134 134 137> 767 129<101 200 105 200>
VStem: 91 53<50 51 51 690>
AnchorPoint: "Anchor-7" 154 896 basechar 0
AnchorPoint: "Anchor-6" 277 0 basechar 0
LayerCount: 2
Fore
SplineSet
105 767 m 2
 97 767 94 772 98 779 c 2
 158 889 l 2
 160 894 165 896 170 896 c 2
 200 896 l 2
 208 896 211 891 207 884 c 2
 140 774 l 2
 137 770 133 767 128 767 c 2
 105 767 l 2
101 0 m 2
 95 0 91 4 91 10 c 2
 91 690 l 2
 91 696 95 700 101 700 c 2
 134 700 l 2
 140 700 144 696 144 690 c 2
 144 51 l 2
 144 49 146 47 148 47 c 2
 507 47 l 2
 513 47 517 43 517 37 c 2
 517 10 l 2
 517 4 513 0 507 0 c 2
 101 0 l 2
EndSplineSet
Substitution2: "'c2sc' Capitals to Small Capitals in Latin lookup 19 subtable" lacute.sc
Substitution2: "'aalt' Access All Alternates in Latin lookup 0 subtable" lacute.sc
EndChar

StartChar: Lcaron
Encoding: 317 317 81
Width: 570
GlyphClass: 2
Flags: MW
HStem: 0 47<148 507 148 507> 571 129<101 261 101 284> 680 20G<101 134 134 137 326 356 356 360>
VStem: 91 53<50 51 51 690>
AnchorPoint: "Anchor-7" 310 700 basechar 0
AnchorPoint: "Anchor-6" 277 0 basechar 0
LayerCount: 2
Fore
SplineSet
101 0 m 2xb0
 95 0 91 4 91 10 c 2
 91 690 l 2
 91 696 95 700 101 700 c 2
 134 700 l 2
 140 700 144 696 144 690 c 2
 144 51 l 2
 144 49 146 47 148 47 c 2
 507 47 l 2
 513 47 517 43 517 37 c 2
 517 10 l 2
 517 4 513 0 507 0 c 2
 101 0 l 2xb0
261 571 m 2xd0
 253 571 250 576 254 583 c 2
 314 693 l 2
 316 698 321 700 326 700 c 2
 356 700 l 2
 364 700 367 695 363 688 c 2
 296 578 l 2
 293 574 289 571 284 571 c 2
 261 571 l 2xd0
EndSplineSet
Substitution2: "'c2sc' Capitals to Small Capitals in Latin lookup 19 subtable" lcaron.sc
Substitution2: "'aalt' Access All Alternates in Latin lookup 0 subtable" lcaron.sc
EndChar

StartChar: uni013B
Encoding: 315 315 82
Width: 570
GlyphClass: 2
Flags: MW
HStem: 0 47<148 507 148 507> 680 20G<101 134 134 137>
VStem: 91 53<50 51 51 690>
AnchorPoint: "Anchor-7" 117 700 basechar 0
AnchorPoint: "Anchor-6" 277 0 basechar 0
LayerCount: 2
Fore
SplineSet
101 0 m 2
 95 0 91 4 91 10 c 2
 91 690 l 2
 91 696 95 700 101 700 c 2
 134 700 l 2
 140 700 144 696 144 690 c 2
 144 51 l 2
 144 49 146 47 148 47 c 2
 507 47 l 2
 513 47 517 43 517 37 c 2
 517 10 l 2
 517 4 513 0 507 0 c 2
 101 0 l 2
238 -195 m 2
 230 -195 227 -190 231 -183 c 2
 291 -73 l 2
 293 -68 298 -66 303 -66 c 2
 332 -66 l 2
 340 -66 343 -71 339 -78 c 2
 272 -188 l 2
 269 -192 265 -195 260 -195 c 2
 238 -195 l 2
EndSplineSet
Substitution2: "'c2sc' Capitals to Small Capitals in Latin lookup 19 subtable" uni013C.sc
Substitution2: "'aalt' Access All Alternates in Latin lookup 0 subtable" uni013C.sc
EndChar

StartChar: Lslash
Encoding: 321 321 83
Width: 587
GlyphClass: 2
Flags: MW
HStem: 0 47<167 526 167 526> 680 20G<120 153 153 156>
VStem: 110 53<50 51 51 250 250 251.5 352.5 354 354 690>
AnchorPoint: "Anchor-7" 137 700 basechar 0
AnchorPoint: "Anchor-6" 297 0 basechar 0
LayerCount: 2
Fore
SplineSet
163 51 m 2
 163 49 165 47 167 47 c 2
 526 47 l 2
 532 47 536 43 536 37 c 2
 536 10 l 2
 536 4 532 0 526 0 c 2
 120 0 l 2
 114 0 110 4 110 10 c 2
 110 250 l 2
 110 253 107 254 105 252 c 2
 9 182 l 2
 4 178 -1 179 -5 184 c 2
 -20 202 l 2
 -24 207 -23 212 -18 216 c 2
 108 308 l 2
 110 310 110 311 110 313 c 2
 110 690 l 2
 110 696 114 700 120 700 c 2
 153 700 l 2
 159 700 163 696 163 690 c 2
 163 354 l 2
 163 351 166 350 168 352 c 2
 414 532 l 2
 419 536 424 535 428 530 c 2
 443 511 l 2
 447 505 446 501 441 497 c 2
 165 296 l 2
 164 295 163 293 163 291 c 2
 163 51 l 2
EndSplineSet
Substitution2: "'c2sc' Capitals to Small Capitals in Latin lookup 19 subtable" lslash.sc
Substitution2: "'aalt' Access All Alternates in Latin lookup 0 subtable" lslash.sc
EndChar

StartChar: M
Encoding: 77 77 84
Width: 693
Flags: MW
HStem: 0 21G<98 101 101 134 556 559 559 592> 680 20G<101 135 135 137.5 558 592 592 595>
VStem: 91 53<10 595> 549 53<10 597 597 599>
LayerCount: 2
Fore
SplineSet
546 693 m 2
 549 697 553 700 558 700 c 2
 592 700 l 2
 598 700 602 696 602 690 c 2
 602 10 l 2
 602 4 598 0 592 0 c 2
 559 0 l 2
 553 0 549 4 549 10 c 2
 549 597 l 2
 549 601 546 602 544 598 c 2
 368 326 l 2
 365 322 361 319 356 319 c 2
 339 319 l 2
 334 319 330 322 327 326 c 2
 149 597 l 2
 147 601 144 599 144 595 c 2
 144 10 l 2
 144 4 140 0 134 0 c 2
 101 0 l 2
 95 0 91 4 91 10 c 2
 91 690 l 2
 91 696 95 700 101 700 c 2
 135 700 l 2
 140 700 144 697 147 693 c 2
 344 393 l 2
 345 391 349 391 350 393 c 2
 546 693 l 2
EndSplineSet
Substitution2: "'c2sc' Capitals to Small Capitals in Latin lookup 19 subtable" m.sc
Substitution2: "'aalt' Access All Alternates in Latin lookup 0 subtable" m.sc
EndChar

StartChar: N
Encoding: 78 78 85
Width: 656
GlyphClass: 2
Flags: MW
HStem: 0 21G<98 101 101 134 519.5 522 522 555> 680 20G<101 134 134 136.5 522 555 555 558>
VStem: 91 53<7 690> 512 53<690 690>
AnchorPoint: "Anchor-7" 328 700 basechar 0
AnchorPoint: "Anchor-6" 331 0 basechar 0
LayerCount: 2
Fore
SplineSet
512 690 m 2
 512 696 516 700 522 700 c 2
 555 700 l 2
 561 700 565 696 565 690 c 2
 565 10 l 2
 565 4 561 0 555 0 c 2
 522 0 l 2
 517 0 513 3 510 7 c 2
 148 596 l 2
 146 600 143 599 143 595 c 2
 144 10 l 2
 144 4 140 0 134 0 c 2
 101 0 l 2
 95 0 91 4 91 10 c 2
 91 690 l 2
 91 696 95 700 101 700 c 2
 134 700 l 2
 139 700 143 697 146 693 c 2
 508 104 l 2
 510 100 513 101 513 105 c 2
 512 690 l 2
EndSplineSet
Substitution2: "'c2sc' Capitals to Small Capitals in Latin lookup 19 subtable" n.sc
Substitution2: "'aalt' Access All Alternates in Latin lookup 0 subtable" n.sc
EndChar

StartChar: Nacute
Encoding: 323 323 86
Width: 684
GlyphClass: 2
Flags: MW
HStem: 0 21G<98 101 101 134 519.5 522 522 555> 680 20G<101 134 134 136.5 522 555 555 558> 767 129<311 410 315 410>
VStem: 91 53<7 690> 512 53<690 690>
AnchorPoint: "Anchor-7" 365 896 basechar 0
AnchorPoint: "Anchor-6" 331 0 basechar 0
LayerCount: 2
Fore
SplineSet
410 896 m 2
 418 896 421 891 417 884 c 2
 350 774 l 2
 347 770 343 767 338 767 c 2
 315 767 l 2
 307 767 304 772 308 779 c 2
 369 889 l 2
 371 893 376 896 381 896 c 2
 410 896 l 2
512 690 m 2
 512 696 516 700 522 700 c 2
 555 700 l 2
 561 700 565 696 565 690 c 2
 565 10 l 2
 565 4 561 0 555 0 c 2
 522 0 l 2
 517 0 513 3 510 7 c 2
 148 596 l 2
 146 600 143 599 143 595 c 2
 144 10 l 2
 144 4 140 0 134 0 c 2
 101 0 l 2
 95 0 91 4 91 10 c 2
 91 690 l 2
 91 696 95 700 101 700 c 2
 134 700 l 2
 139 700 143 697 146 693 c 2
 508 104 l 2
 510 100 513 101 513 105 c 2
 512 690 l 2
EndSplineSet
Substitution2: "'c2sc' Capitals to Small Capitals in Latin lookup 19 subtable" nacute.sc
Substitution2: "'aalt' Access All Alternates in Latin lookup 0 subtable" nacute.sc
EndChar

StartChar: Ncaron
Encoding: 327 327 87
Width: 684
GlyphClass: 2
Flags: MW
HStem: 0 21G<98 101 101 134 519.5 522 522 555> 680 20G<101 134 134 136.5 522 555 555 558> 771 125<235 323 235 361>
VStem: 91 53<7 690> 512 53<690 690>
AnchorPoint: "Anchor-7" 328 700 basechar 0
AnchorPoint: "Anchor-6" 331 0 basechar 0
LayerCount: 2
Fore
SplineSet
374 777 m 2
 371 772 366 771 361 771 c 2
 323 771 l 2
 318 771 313 772 310 777 c 2
 229 884 l 2
 224 890 227 896 235 896 c 2
 261 896 l 2
 266 896 271 895 274 890 c 2
 340 803 l 2
 342 800 345 801 346 803 c 2
 411 890 l 2
 414 895 419 896 424 896 c 2
 450 896 l 2
 458 896 461 890 456 884 c 2
 374 777 l 2
512 690 m 2
 512 696 516 700 522 700 c 2
 555 700 l 2
 561 700 565 696 565 690 c 2
 565 10 l 2
 565 4 561 0 555 0 c 2
 522 0 l 2
 517 0 513 3 510 7 c 2
 148 596 l 2
 146 600 143 599 143 595 c 2
 144 10 l 2
 144 4 140 0 134 0 c 2
 101 0 l 2
 95 0 91 4 91 10 c 2
 91 690 l 2
 91 696 95 700 101 700 c 2
 134 700 l 2
 139 700 143 697 146 693 c 2
 508 104 l 2
 510 100 513 101 513 105 c 2
 512 690 l 2
EndSplineSet
Substitution2: "'c2sc' Capitals to Small Capitals in Latin lookup 19 subtable" ncaron.sc
Substitution2: "'aalt' Access All Alternates in Latin lookup 0 subtable" ncaron.sc
EndChar

StartChar: Eng
Encoding: 330 330 88
Width: 670
GlyphClass: 2
Flags: MW
HStem: -151 47<430 433> 0 21G<98 101 101 134 519.5 522.5> 680 20G<101 134 134 136.5 522 555 555 558>
VStem: 91 53<7 690> 512 65
AnchorPoint: "Anchor-7" 328 700 basechar 0
AnchorPoint: "Anchor-6" 331 0 basechar 0
LayerCount: 2
Fore
SplineSet
565 566 m 2
 565 564 566 562 567 562 c 0
 573 562 577 558 577 552 c 2
 577 4 l 2
 577 -98 540 -149 433 -151 c 0
 427 -151 423 -147 423 -141 c 2
 423 -114 l 2
 423 -108 427 -104 433 -104 c 0
 500 -102 522 -67 524 -4 c 0
 524 -1 523 0 522 0 c 0
 517 0 513 3 510 7 c 2
 148 596 l 2
 146 600 143 599 143 595 c 2
 144 10 l 2
 144 4 140 0 134 0 c 2
 101 0 l 2
 95 0 91 4 91 10 c 2
 91 690 l 2
 91 696 95 700 101 700 c 2
 134 700 l 2
 139 700 143 697 146 693 c 2
 508 104 l 2
 510 100 513 101 513 105 c 2
 512 690 l 2
 512 696 516 700 522 700 c 2
 555 700 l 2
 561 700 565 696 565 690 c 2
 565 566 l 2
EndSplineSet
Substitution2: "'c2sc' Capitals to Small Capitals in Latin lookup 19 subtable" eng.sc
Substitution2: "'aalt' Access All Alternates in Latin lookup 0 subtable" eng.sc
EndChar

StartChar: Ntilde
Encoding: 209 209 89
Width: 684
GlyphClass: 2
Flags: MW
HStem: 0 21G<98 101 101 134 519.5 522 522 555> 680 20G<101 134 134 136.5 522 555 555 558> 807 41<394.5 412.5 394.5 416.5> 850 42<281 301.5>
VStem: 91 53<7 690> 512 53<690 690>
AnchorPoint: "Anchor-7" 345 893 basechar 0
AnchorPoint: "Anchor-6" 331 0 basechar 0
LayerCount: 2
Fore
SplineSet
292 850 m 0
 270 850 255 844 237 823 c 0
 233 818 228 817 223 822 c 2
 211 832 l 2
 207 836 205 841 209 846 c 0
 231 878 259 892 290 892 c 0xdc
 316 892 334 880 353 869 c 0
 371 859 386 848 403 848 c 0
 422 848 440 854 457 878 c 0
 461 884 466 884 471 880 c 2
 482 870 l 2
 486 866 488 861 485 856 c 0
 465 822 431 807 402 807 c 0xec
 376 807 358 819 342 830 c 0
 324 841 311 850 292 850 c 0
512 690 m 2
 512 696 516 700 522 700 c 2
 555 700 l 2
 561 700 565 696 565 690 c 2
 565 10 l 2
 565 4 561 0 555 0 c 2
 522 0 l 2
 517 0 513 3 510 7 c 2
 148 596 l 2
 146 600 143 599 143 595 c 2
 144 10 l 2
 144 4 140 0 134 0 c 2
 101 0 l 2
 95 0 91 4 91 10 c 2
 91 690 l 2
 91 696 95 700 101 700 c 2
 134 700 l 2
 139 700 143 697 146 693 c 2
 508 104 l 2
 510 100 513 101 513 105 c 2
 512 690 l 2
EndSplineSet
Substitution2: "'c2sc' Capitals to Small Capitals in Latin lookup 19 subtable" ntilde.sc
Substitution2: "'aalt' Access All Alternates in Latin lookup 0 subtable" ntilde.sc
EndChar

StartChar: O
Encoding: 79 79 90
Width: 587
GlyphClass: 2
Flags: MW
HStem: -8 46<239.5 347 239.5 362.5> 661 47<239.5 347>
VStem: 61 53<219 481 481 482> 473 53<217 219 219 481>
AnchorPoint: "Anchor-9" 562 700 basechar 0
AnchorPoint: "Anchor-7" 293 700 basechar 0
AnchorPoint: "Anchor-6" 294 0 basechar 0
LayerCount: 2
Fore
SplineSet
293 -8 m 0
 154 -8 61 83 61 219 c 2
 61 481 l 2
 61 617 154 708 293 708 c 0
 432 708 526 617 526 481 c 2
 526 219 l 2
 526 83 432 -8 293 -8 c 0
293 38 m 0
 401 38 473 109 473 217 c 2
 473 482 l 2
 473 589 401 661 293 661 c 0
 186 661 114 589 114 482 c 2
 114 217 l 2
 114 109 186 38 293 38 c 0
EndSplineSet
Substitution2: "Single Substitution lookup 25 subtable" ordmasculine
Substitution2: "'c2sc' Capitals to Small Capitals in Latin lookup 19 subtable" o.sc
AlternateSubs2: "'aalt' Access All Alternates in Latin lookup 1 subtable" ordmasculine o.sc
EndChar

StartChar: Oacute
Encoding: 211 211 91
Width: 621
GlyphClass: 2
Flags: MW
HStem: -8 46<239.5 347 239.5 362.5> 661 47<239.5 347> 767 129<279 378 283 378>
VStem: 61 53<219 481 481 482> 473 53<217 219 219 481>
AnchorPoint: "Anchor-9" 562 700 basechar 0
AnchorPoint: "Anchor-7" 333 896 basechar 0
AnchorPoint: "Anchor-6" 294 0 basechar 0
LayerCount: 2
Fore
SplineSet
283 767 m 2
 275 767 272 772 276 779 c 2
 337 889 l 2
 339 893 344 896 349 896 c 2
 378 896 l 2
 386 896 389 891 385 884 c 2
 318 774 l 2
 315 770 311 767 306 767 c 2
 283 767 l 2
293 -8 m 0
 154 -8 61 83 61 219 c 2
 61 481 l 2
 61 617 154 708 293 708 c 0
 432 708 526 617 526 481 c 2
 526 219 l 2
 526 83 432 -8 293 -8 c 0
293 38 m 0
 401 38 473 109 473 217 c 2
 473 482 l 2
 473 589 401 661 293 661 c 0
 186 661 114 589 114 482 c 2
 114 217 l 2
 114 109 186 38 293 38 c 0
EndSplineSet
Substitution2: "'c2sc' Capitals to Small Capitals in Latin lookup 19 subtable" oacute.sc
Substitution2: "'aalt' Access All Alternates in Latin lookup 0 subtable" oacute.sc
EndChar

StartChar: Ocircumflex
Encoding: 212 212 92
Width: 621
GlyphClass: 2
Flags: MW
HStem: -8 46<239.5 347 239.5 362.5> 661 47<239.5 347> 771 125<197 328 201 328 290 390 290 417>
VStem: 61 53<219 481 481 482> 473 53<217 219 219 481>
AnchorPoint: "Anchor-9" 562 700 basechar 0
AnchorPoint: "Anchor-7" 309 896 basechar 0
AnchorPoint: "Anchor-6" 294 0 basechar 0
LayerCount: 2
Fore
SplineSet
201 771 m 2
 193 771 190 777 195 783 c 2
 277 890 l 2
 280 895 285 896 290 896 c 2
 328 896 l 2
 333 896 338 895 341 890 c 2
 423 783 l 2
 428 777 425 771 417 771 c 2
 390 771 l 2
 385 771 380 772 377 777 c 2
 313 863 l 2
 312 865 309 866 307 863 c 2
 241 777 l 2
 238 772 233 771 228 771 c 2
 201 771 l 2
293 -8 m 0
 154 -8 61 83 61 219 c 2
 61 481 l 2
 61 617 154 708 293 708 c 0
 432 708 526 617 526 481 c 2
 526 219 l 2
 526 83 432 -8 293 -8 c 0
293 38 m 0
 401 38 473 109 473 217 c 2
 473 482 l 2
 473 589 401 661 293 661 c 0
 186 661 114 589 114 482 c 2
 114 217 l 2
 114 109 186 38 293 38 c 0
EndSplineSet
Substitution2: "'c2sc' Capitals to Small Capitals in Latin lookup 19 subtable" ocircumflex.sc
Substitution2: "'aalt' Access All Alternates in Latin lookup 0 subtable" ocircumflex.sc
EndChar

StartChar: uni1ED0
Encoding: 7888 7888 93
Width: 587
GlyphClass: 2
Flags: MW
HStem: -8 46<239.5 347 239.5 362.5> 661 47<239.5 347> 770 126<180 310 184 310 272 373 272 399> 843 129<413 512 417 512>
VStem: 61 53<219 481 481 482> 473 53<217 219 219 481>
AnchorPoint: "Anchor-9" 562 700 basechar 0
AnchorPoint: "Anchor-7" 467 972 basechar 0
AnchorPoint: "Anchor-6" 294 0 basechar 0
LayerCount: 2
Fore
SplineSet
417 843 m 2xdc
 409 843 406 848 410 855 c 2
 471 965 l 2
 473 969 478 972 483 972 c 2
 512 972 l 2
 520 972 523 967 519 960 c 2
 452 850 l 2
 449 846 445 843 440 843 c 2
 417 843 l 2xdc
184 770 m 2xec
 176 770 173 776 178 782 c 2
 259 890 l 2
 262 895 267 896 272 896 c 2
 310 896 l 2
 315 896 320 895 323 890 c 2
 405 782 l 2
 410 776 407 770 399 770 c 2
 373 770 l 2
 368 770 363 771 360 776 c 2
 295 863 l 2
 294 865 291 866 289 863 c 2
 223 776 l 2
 220 771 215 770 210 770 c 2
 184 770 l 2xec
293 -8 m 0
 154 -8 61 83 61 219 c 2
 61 481 l 2
 61 617 154 708 293 708 c 0
 432 708 526 617 526 481 c 2
 526 219 l 2
 526 83 432 -8 293 -8 c 0
293 38 m 0
 401 38 473 109 473 217 c 2
 473 482 l 2
 473 589 401 661 293 661 c 0
 186 661 114 589 114 482 c 2
 114 217 l 2
 114 109 186 38 293 38 c 0
EndSplineSet
EndChar

StartChar: uni1ED8
Encoding: 7896 7896 94
Width: 587
GlyphClass: 2
Flags: MW
HStem: -174 94<280 307.5> -8 46<239.5 347 239.5 362.5> 661 47<239.5 347> 770 126<180 310 184 310 272 373 272 399>
VStem: 61 53<219 481 481 482> 247 94<-140.5 -113.5> 473 53<217 219 219 481>
AnchorPoint: "Anchor-9" 562 700 basechar 0
AnchorPoint: "Anchor-7" 291 896 basechar 0
AnchorPoint: "Anchor-6" 293 -175 basechar 0
LayerCount: 2
Fore
SplineSet
184 770 m 2
 176 770 173 776 178 782 c 2
 259 890 l 2
 262 895 267 896 272 896 c 2
 310 896 l 2
 315 896 320 895 323 890 c 2
 405 782 l 2
 410 776 407 770 399 770 c 2
 373 770 l 2
 368 770 363 771 360 776 c 2
 295 863 l 2
 294 865 291 866 289 863 c 2
 223 776 l 2
 220 771 215 770 210 770 c 2
 184 770 l 2
293 -8 m 0
 154 -8 61 83 61 219 c 2
 61 481 l 2
 61 617 154 708 293 708 c 0
 432 708 526 617 526 481 c 2
 526 219 l 2
 526 83 432 -8 293 -8 c 0
293 38 m 0
 401 38 473 109 473 217 c 2
 473 482 l 2
 473 589 401 661 293 661 c 0
 186 661 114 589 114 482 c 2
 114 217 l 2
 114 109 186 38 293 38 c 0
294 -174 m 0
 266 -174 247 -154 247 -127 c 0
 247 -100 266 -80 294 -80 c 0
 321 -80 341 -100 341 -127 c 0
 341 -154 321 -174 294 -174 c 0
EndSplineSet
EndChar

StartChar: uni1ED2
Encoding: 7890 7890 95
Width: 587
GlyphClass: 2
Flags: MW
HStem: -8 46<239.5 347 239.5 362.5> 661 47<239.5 347> 770 126<180 310 184 310 272 373 272 399> 882 129<337 409 337 431>
VStem: 61 53<219 481 481 482> 473 53<217 219 219 481>
AnchorPoint: "Anchor-9" 562 700 basechar 0
AnchorPoint: "Anchor-7" 375 1011 basechar 0
AnchorPoint: "Anchor-6" 294 0 basechar 0
LayerCount: 2
Fore
SplineSet
438 894 m 2xdc
 442 887 439 882 431 882 c 2
 409 882 l 2
 404 882 400 885 397 889 c 2
 330 999 l 2
 326 1006 329 1011 337 1011 c 2
 366 1011 l 2
 371 1011 376 1009 378 1004 c 2
 438 894 l 2xdc
184 770 m 2xec
 176 770 173 776 178 782 c 2
 259 890 l 2
 262 895 267 896 272 896 c 2
 310 896 l 2
 315 896 320 895 323 890 c 2
 405 782 l 2
 410 776 407 770 399 770 c 2
 373 770 l 2
 368 770 363 771 360 776 c 2
 295 863 l 2
 294 865 291 866 289 863 c 2
 223 776 l 2
 220 771 215 770 210 770 c 2
 184 770 l 2xec
293 -8 m 0
 154 -8 61 83 61 219 c 2
 61 481 l 2
 61 617 154 708 293 708 c 0
 432 708 526 617 526 481 c 2
 526 219 l 2
 526 83 432 -8 293 -8 c 0
293 38 m 0
 401 38 473 109 473 217 c 2
 473 482 l 2
 473 589 401 661 293 661 c 0
 186 661 114 589 114 482 c 2
 114 217 l 2
 114 109 186 38 293 38 c 0
EndSplineSet
EndChar

StartChar: uni1ED4
Encoding: 7892 7892 96
Width: 587
GlyphClass: 2
Flags: MW
HStem: -8 46<239.5 347 239.5 362.5> 661 47<239.5 347> 770 126<180 310 184 310 272 373 272 399> 1014 34<389.5 415>
VStem: 61 53<219 481 481 482> 448 35<955 986.5> 473 53<217 219 219 481>
AnchorPoint: "Anchor-9" 562 700 basechar 0
AnchorPoint: "Anchor-7" 399 1045 basechar 0
AnchorPoint: "Anchor-6" 294 0 basechar 0
LayerCount: 2
Fore
SplineSet
394 868 m 2xfc
 388 870 385 875 388 881 c 0
 408 929 448 934 448 976 c 0
 448 997 427 1014 403 1014 c 0
 376 1014 365 1004 347 978 c 0
 343 972 338 971 333 975 c 2
 322 982 l 2
 317 986 316 991 319 996 c 0
 342 1030 360 1048 404 1048 c 0
 450 1048 483 1018 483 976 c 0
 483 925 436 906 418 874 c 0
 417 873 417 871 416 870 c 0
 414 866 410 864 405 865 c 2
 394 868 l 2xfc
184 770 m 2
 176 770 173 776 178 782 c 2
 259 890 l 2
 262 895 267 896 272 896 c 2
 310 896 l 2
 315 896 320 895 323 890 c 2
 405 782 l 2
 410 776 407 770 399 770 c 2
 373 770 l 2
 368 770 363 771 360 776 c 2
 295 863 l 2
 294 865 291 866 289 863 c 2
 223 776 l 2
 220 771 215 770 210 770 c 2
 184 770 l 2
293 -8 m 0
 154 -8 61 83 61 219 c 2
 61 481 l 2
 61 617 154 708 293 708 c 0
 432 708 526 617 526 481 c 2
 526 219 l 2xda
 526 83 432 -8 293 -8 c 0
293 38 m 0xda
 401 38 473 109 473 217 c 2
 473 482 l 2
 473 589 401 661 293 661 c 0
 186 661 114 589 114 482 c 2
 114 217 l 2
 114 109 186 38 293 38 c 0xda
EndSplineSet
EndChar

StartChar: uni1ED6
Encoding: 7894 7894 97
Width: 587
GlyphClass: 2
Flags: MW
HStem: -8 46<239.5 347 239.5 362.5> 661 47<239.5 347> 770 126<180 310 184 310 272 373 272 399> 927 40<344.5 362.5 344.5 366> 970 42<231 251.5>
VStem: 61 53<219 481 481 482> 473 53<217 219 219 481>
AnchorPoint: "Anchor-9" 562 700 basechar 0
AnchorPoint: "Anchor-7" 295 1013 basechar 0
AnchorPoint: "Anchor-6" 294 0 basechar 0
LayerCount: 2
Fore
SplineSet
352 927 m 0
 326 927 308 939 292 949 c 0
 274 961 261 970 242 970 c 0
 220 970 205 964 187 943 c 0
 183 937 178 936 173 941 c 2
 161 952 l 2
 157 956 156 961 159 966 c 0
 180 997 209 1012 240 1012 c 0xce
 266 1012 284 1000 303 989 c 0
 321 978 336 967 353 967 c 0
 372 967 390 973 407 998 c 0
 411 1004 416 1004 421 1000 c 2
 432 990 l 2
 436 986 438 980 433 973 c 0
 413 941 380 927 352 927 c 0
184 770 m 2xf6
 176 770 173 776 178 782 c 2
 259 890 l 2
 262 895 267 896 272 896 c 2
 310 896 l 2
 315 896 320 895 323 890 c 2
 405 782 l 2
 410 776 407 770 399 770 c 2
 373 770 l 2
 368 770 363 771 360 776 c 2
 295 863 l 2
 294 865 291 866 289 863 c 2
 223 776 l 2
 220 771 215 770 210 770 c 2
 184 770 l 2xf6
293 -8 m 0
 154 -8 61 83 61 219 c 2
 61 481 l 2
 61 617 154 708 293 708 c 0
 432 708 526 617 526 481 c 2
 526 219 l 2
 526 83 432 -8 293 -8 c 0
293 38 m 0
 401 38 473 109 473 217 c 2
 473 482 l 2
 473 589 401 661 293 661 c 0
 186 661 114 589 114 482 c 2
 114 217 l 2
 114 109 186 38 293 38 c 0
EndSplineSet
EndChar

StartChar: Odieresis
Encoding: 214 214 98
Width: 621
GlyphClass: 2
Flags: MW
HStem: -8 46<239.5 347 239.5 362.5> 661 47<239.5 347> 803 100<212.5 241.5 377.5 406.5>
VStem: 61 53<219 481 481 482> 177 101<838.5 867.5> 342 100<838.5 867.5> 473 53<217 219 219 481>
AnchorPoint: "Anchor-9" 562 700 basechar 0
AnchorPoint: "Anchor-7" 293 700 basechar 0
AnchorPoint: "Anchor-6" 294 0 basechar 0
LayerCount: 2
Fore
SplineSet
227 803 m 0
 198 803 177 824 177 853 c 0
 177 882 198 903 227 903 c 0
 256 903 278 882 278 853 c 0
 278 824 256 803 227 803 c 0
392 803 m 0
 363 803 342 824 342 853 c 0
 342 882 363 903 392 903 c 0
 421 903 442 882 442 853 c 0
 442 824 421 803 392 803 c 0
293 -8 m 0
 154 -8 61 83 61 219 c 2
 61 481 l 2
 61 617 154 708 293 708 c 0
 432 708 526 617 526 481 c 2
 526 219 l 2
 526 83 432 -8 293 -8 c 0
293 38 m 0
 401 38 473 109 473 217 c 2
 473 482 l 2
 473 589 401 661 293 661 c 0
 186 661 114 589 114 482 c 2
 114 217 l 2
 114 109 186 38 293 38 c 0
EndSplineSet
Substitution2: "'c2sc' Capitals to Small Capitals in Latin lookup 19 subtable" odieresis.sc
Substitution2: "'aalt' Access All Alternates in Latin lookup 0 subtable" odieresis.sc
EndChar

StartChar: uni1ECC
Encoding: 7884 7884 99
Width: 587
GlyphClass: 2
Flags: MW
HStem: -174 94<280 307.5> -8 46<239.5 347 239.5 362.5> 661 47<239.5 347>
VStem: 61 53<219 481 481 482> 247 94<-140.5 -113.5> 473 53<217 219 219 481>
AnchorPoint: "Anchor-9" 562 700 basechar 0
AnchorPoint: "Anchor-7" 293 700 basechar 0
AnchorPoint: "Anchor-6" 293 -175 basechar 0
LayerCount: 2
Fore
SplineSet
293 -8 m 0
 154 -8 61 83 61 219 c 2
 61 481 l 2
 61 617 154 708 293 708 c 0
 432 708 526 617 526 481 c 2
 526 219 l 2
 526 83 432 -8 293 -8 c 0
293 38 m 0
 401 38 473 109 473 217 c 2
 473 482 l 2
 473 589 401 661 293 661 c 0
 186 661 114 589 114 482 c 2
 114 217 l 2
 114 109 186 38 293 38 c 0
294 -174 m 0
 266 -174 247 -154 247 -127 c 0
 247 -100 266 -80 294 -80 c 0
 321 -80 341 -100 341 -127 c 0
 341 -154 321 -174 294 -174 c 0
EndSplineSet
EndChar

StartChar: Ograve
Encoding: 210 210 100
Width: 621
GlyphClass: 2
Flags: MW
HStem: -8 46<239.5 347 239.5 362.5> 661 47<239.5 347> 767 129<229 301 229 323>
VStem: 61 53<219 481 481 482> 473 53<217 219 219 481>
AnchorPoint: "Anchor-9" 562 700 basechar 0
AnchorPoint: "Anchor-7" 267 896 basechar 0
AnchorPoint: "Anchor-6" 294 0 basechar 0
LayerCount: 2
Fore
SplineSet
330 779 m 2
 334 772 331 767 323 767 c 2
 301 767 l 2
 296 767 292 770 289 774 c 2
 222 884 l 2
 218 891 221 896 229 896 c 2
 258 896 l 2
 263 896 268 894 270 889 c 2
 330 779 l 2
293 -8 m 0
 154 -8 61 83 61 219 c 2
 61 481 l 2
 61 617 154 708 293 708 c 0
 432 708 526 617 526 481 c 2
 526 219 l 2
 526 83 432 -8 293 -8 c 0
293 38 m 0
 401 38 473 109 473 217 c 2
 473 482 l 2
 473 589 401 661 293 661 c 0
 186 661 114 589 114 482 c 2
 114 217 l 2
 114 109 186 38 293 38 c 0
EndSplineSet
Substitution2: "'c2sc' Capitals to Small Capitals in Latin lookup 19 subtable" ograve.sc
Substitution2: "'aalt' Access All Alternates in Latin lookup 0 subtable" ograve.sc
EndChar

StartChar: uni1ECE
Encoding: 7886 7886 101
Width: 587
GlyphClass: 2
Flags: MW
HStem: -8 46<239.5 347 239.5 362.5> 661 47<239.5 347> 894 33<282.5 308>
VStem: 61 53<219 481 481 482> 341 35<834.5 865.5> 473 53<217 219 219 481>
AnchorPoint: "Anchor-9" 562 700 basechar 0
AnchorPoint: "Anchor-7" 292 925 basechar 0
AnchorPoint: "Anchor-6" 294 0 basechar 0
LayerCount: 2
Fore
SplineSet
287 748 m 2
 281 750 278 755 281 761 c 0
 301 809 341 814 341 855 c 0
 341 876 320 894 296 894 c 0
 269 894 257 884 240 858 c 0
 236 852 231 851 226 855 c 2
 215 862 l 2
 209 866 209 870 212 876 c 0
 235 910 253 927 297 927 c 0
 343 927 376 897 376 855 c 0
 376 805 329 786 311 754 c 0
 310 753 310 751 309 750 c 0
 307 746 303 744 298 745 c 2
 287 748 l 2
293 -8 m 0
 154 -8 61 83 61 219 c 2
 61 481 l 2
 61 617 154 708 293 708 c 0
 432 708 526 617 526 481 c 2
 526 219 l 2
 526 83 432 -8 293 -8 c 0
293 38 m 0
 401 38 473 109 473 217 c 2
 473 482 l 2
 473 589 401 661 293 661 c 0
 186 661 114 589 114 482 c 2
 114 217 l 2
 114 109 186 38 293 38 c 0
EndSplineSet
EndChar

StartChar: Ohorn
Encoding: 416 416 102
Width: 587
GlyphClass: 2
Flags: MW
HStem: -8 46<239.5 347 239.5 362.5> 661 47<239.5 321 223.5 347>
VStem: 61 53<219 481 481 482> 473 53<217 219 219 481> 506 38<733 736 733 736.5>
AnchorPoint: "Anchor-9" 486 664 basechar 0
AnchorPoint: "Anchor-7" 293 700 basechar 0
AnchorPoint: "Anchor-6" 294 0 basechar 0
LayerCount: 2
Fore
SplineSet
534 743 m 2xe8
 540 743 544 739 544 733 c 0xe8
 540 686 511 654 475 639 c 0
 472 638 471 636 473 633 c 0
 507 595 526 542 526 481 c 2
 526 219 l 2xf0
 526 83 432 -8 293 -8 c 0
 154 -8 61 83 61 219 c 2
 61 481 l 2
 61 617 154 708 293 708 c 0
 349 708 398 694 437 667 c 0
 438 665 440 665 442 665 c 0
 473 671 501 693 506 733 c 0
 506 740 510 743 516 743 c 2
 534 743 l 2xe8
473 217 m 2xf0
 473 482 l 2
 473 589 401 661 293 661 c 0
 186 661 114 589 114 482 c 2
 114 217 l 2
 114 109 186 38 293 38 c 0
 401 38 473 109 473 217 c 2xf0
EndSplineSet
EndChar

StartChar: uni1EDA
Encoding: 7898 7898 103
Width: 587
GlyphClass: 2
Flags: MW
HStem: -8 46<239.5 347 239.5 362.5> 661 47<239.5 321 223.5 347> 767 129<262 361 266 361>
VStem: 61 53<219 481 481 482> 473 53<217 219 219 481> 506 38<733 736 733 736.5>
AnchorPoint: "Anchor-9" 486 664 basechar 0
AnchorPoint: "Anchor-7" 316 896 basechar 0
AnchorPoint: "Anchor-6" 294 0 basechar 0
LayerCount: 2
Fore
SplineSet
361 896 m 2xf8
 369 896 372 891 368 884 c 2
 301 774 l 2
 298 770 294 767 289 767 c 2
 266 767 l 2
 258 767 255 772 259 779 c 2
 320 889 l 2
 322 893 327 896 332 896 c 2
 361 896 l 2xf8
534 743 m 2xf4
 540 743 544 739 544 733 c 0xf4
 540 686 511 654 475 639 c 0
 472 638 471 636 473 633 c 0
 507 595 526 542 526 481 c 2
 526 219 l 2xf8
 526 83 432 -8 293 -8 c 0
 154 -8 61 83 61 219 c 2
 61 481 l 2
 61 617 154 708 293 708 c 0
 349 708 398 694 437 667 c 0
 438 665 440 665 442 665 c 0
 473 671 501 693 506 733 c 0
 506 740 510 743 516 743 c 2
 534 743 l 2xf4
473 217 m 2xf8
 473 482 l 2
 473 589 401 661 293 661 c 0
 186 661 114 589 114 482 c 2
 114 217 l 2
 114 109 186 38 293 38 c 0
 401 38 473 109 473 217 c 2xf8
EndSplineSet
EndChar

StartChar: uni1EE2
Encoding: 7906 7906 104
Width: 587
GlyphClass: 2
Flags: MW
HStem: -174 94<280 307.5> -8 46<239.5 347 239.5 362.5> 661 47<239.5 321 223.5 347>
VStem: 61 53<219 481 481 482> 247 94<-140.5 -113.5> 473 53<217 219 219 481> 506 38<733 736 733 736.5>
AnchorPoint: "Anchor-9" 486 664 basechar 0
AnchorPoint: "Anchor-7" 293 700 basechar 0
AnchorPoint: "Anchor-6" 293 -175 basechar 0
LayerCount: 2
Fore
SplineSet
534 743 m 2x72
 540 743 544 739 544 733 c 0x72
 540 686 511 654 475 639 c 0
 472 638 471 636 473 633 c 0
 507 595 526 542 526 481 c 2
 526 219 l 2x74
 526 83 432 -8 293 -8 c 0
 154 -8 61 83 61 219 c 2
 61 481 l 2
 61 617 154 708 293 708 c 0
 349 708 398 694 437 667 c 0
 438 665 440 665 442 665 c 0
 473 671 501 693 506 733 c 0
 506 740 510 743 516 743 c 2
 534 743 l 2x72
473 217 m 2xfc
 473 482 l 2
 473 589 401 661 293 661 c 0
 186 661 114 589 114 482 c 2
 114 217 l 2
 114 109 186 38 293 38 c 0
 401 38 473 109 473 217 c 2xfc
294 -80 m 0
 321 -80 341 -100 341 -127 c 0
 341 -154 321 -174 294 -174 c 0
 266 -174 247 -154 247 -127 c 0
 247 -100 266 -80 294 -80 c 0
EndSplineSet
EndChar

StartChar: uni1EDC
Encoding: 7900 7900 105
Width: 587
GlyphClass: 2
Flags: MW
HStem: -8 46<239.5 347 239.5 362.5> 661 47<239.5 321 223.5 347> 767 129<211 283 211 306>
VStem: 61 53<219 481 481 482> 473 53<217 219 219 481> 506 38<733 736 733 736.5>
AnchorPoint: "Anchor-9" 486 664 basechar 0
AnchorPoint: "Anchor-7" 249 896 basechar 0
AnchorPoint: "Anchor-6" 294 0 basechar 0
LayerCount: 2
Fore
SplineSet
313 779 m 2xf8
 317 772 314 767 306 767 c 2
 283 767 l 2
 278 767 274 770 271 774 c 2
 204 884 l 2
 200 891 203 896 211 896 c 2
 241 896 l 2
 246 896 251 894 253 889 c 2
 313 779 l 2xf8
534 743 m 2xf4
 540 743 544 739 544 733 c 0xf4
 540 686 511 654 475 639 c 0
 472 638 471 636 473 633 c 0
 507 595 526 542 526 481 c 2
 526 219 l 2xf8
 526 83 432 -8 293 -8 c 0
 154 -8 61 83 61 219 c 2
 61 481 l 2
 61 617 154 708 293 708 c 0
 349 708 398 694 437 667 c 0
 438 665 440 665 442 665 c 0
 473 671 501 693 506 733 c 0
 506 740 510 743 516 743 c 2
 534 743 l 2xf4
473 217 m 2xf8
 473 482 l 2
 473 589 401 661 293 661 c 0
 186 661 114 589 114 482 c 2
 114 217 l 2
 114 109 186 38 293 38 c 0
 401 38 473 109 473 217 c 2xf8
EndSplineSet
EndChar

StartChar: uni1EDE
Encoding: 7902 7902 106
Width: 587
GlyphClass: 2
Flags: MW
HStem: -8 46<239.5 347 239.5 362.5> 661 47<239.5 321 223.5 347> 894 33<282.5 308>
VStem: 61 53<219 481 481 482> 341 35<834.5 865.5> 473 53<217 219 219 481> 506 38<733 736 733 736.5>
AnchorPoint: "Anchor-9" 486 664 basechar 0
AnchorPoint: "Anchor-7" 292 925 basechar 0
AnchorPoint: "Anchor-6" 294 0 basechar 0
LayerCount: 2
Fore
SplineSet
296 894 m 0xfc
 269 894 257 884 240 858 c 0
 236 852 231 851 226 855 c 2
 215 862 l 2
 209 866 209 870 212 876 c 0
 235 910 253 927 297 927 c 0
 343 927 376 897 376 855 c 0
 376 804 327 785 311 752 c 0
 308 746 304 743 298 745 c 2
 287 748 l 2
 281 750 278 755 281 761 c 0
 301 809 341 814 341 855 c 0
 341 876 320 894 296 894 c 0xfc
534 743 m 2xfa
 540 743 544 739 544 733 c 0xfa
 540 686 511 654 475 639 c 0
 472 638 471 636 473 633 c 0
 507 595 526 542 526 481 c 2
 526 219 l 2xfc
 526 83 432 -8 293 -8 c 0
 154 -8 61 83 61 219 c 2
 61 481 l 2
 61 617 154 708 293 708 c 0
 349 708 398 694 437 667 c 0
 438 665 440 665 442 665 c 0
 473 671 501 693 506 733 c 0
 506 740 510 743 516 743 c 2
 534 743 l 2xfa
473 217 m 2xfc
 473 482 l 2
 473 589 401 661 293 661 c 0
 186 661 114 589 114 482 c 2
 114 217 l 2
 114 109 186 38 293 38 c 0
 401 38 473 109 473 217 c 2xfc
EndSplineSet
EndChar

StartChar: uni1EE0
Encoding: 7904 7904 107
Width: 587
GlyphClass: 2
Flags: MW
HStem: -8 46<239.5 347 239.5 362.5> 661 47<239.5 321 223.5 347> 813 40<342.5 360.5 342.5 364.5> 856 42<230 250>
VStem: 61 53<219 481 481 482> 473 53<217 219 219 481> 506 38<733 736 733 736.5>
AnchorPoint: "Anchor-9" 486 664 basechar 0
AnchorPoint: "Anchor-7" 293 899 basechar 0
AnchorPoint: "Anchor-6" 294 0 basechar 0
LayerCount: 2
Fore
SplineSet
241 856 m 0xdc
 219 856 203 850 186 829 c 0
 182 823 177 822 172 827 c 2
 159 838 l 2
 155 842 154 847 157 852 c 0
 180 883 208 898 239 898 c 0xdc
 265 898 282 886 301 875 c 0
 319 864 334 853 351 853 c 0
 370 853 388 859 405 884 c 0
 409 890 414 890 419 886 c 2
 430 876 l 2
 434 872 436 867 433 862 c 0
 414 828 379 813 350 813 c 0xec
 324 813 306 825 290 835 c 0
 272 847 259 856 241 856 c 0xdc
534 743 m 2xda
 540 743 544 739 544 733 c 0xda
 540 686 511 654 475 639 c 0
 472 638 471 636 473 633 c 0
 507 595 526 542 526 481 c 2
 526 219 l 2xdc
 526 83 432 -8 293 -8 c 0
 154 -8 61 83 61 219 c 2
 61 481 l 2
 61 617 154 708 293 708 c 0
 349 708 398 694 437 667 c 0
 438 665 440 665 442 665 c 0
 473 671 501 693 506 733 c 0
 506 740 510 743 516 743 c 2
 534 743 l 2xda
473 217 m 2xdc
 473 482 l 2
 473 589 401 661 293 661 c 0
 186 661 114 589 114 482 c 2
 114 217 l 2
 114 109 186 38 293 38 c 0
 401 38 473 109 473 217 c 2xdc
EndSplineSet
EndChar

StartChar: Ohungarumlaut
Encoding: 336 336 108
Width: 621
GlyphClass: 2
Flags: MW
HStem: -8 46<239.5 347 239.5 362.5> 661 47<239.5 347> 767 129<208.5 306 212 306 276 372 276 398>
VStem: 61 53<219 481 481 482> 473 53<217 219 219 481>
AnchorPoint: "Anchor-9" 562 700 basechar 0
AnchorPoint: "Anchor-7" 293 700 basechar 0
AnchorPoint: "Anchor-6" 294 0 basechar 0
LayerCount: 2
Fore
SplineSet
212 767 m 2
 205 767 201 772 205 779 c 2
 264 889 l 2
 266 894 271 896 276 896 c 2
 306 896 l 2
 314 896 317 891 313 884 c 2
 251 774 l 2
 248 770 244 767 239 767 c 2
 212 767 l 2
372 767 m 2
 364 767 361 772 365 779 c 2
 425 889 l 2
 427 894 432 896 437 896 c 2
 465 896 l 2
 473 896 476 891 472 884 c 2
 410 774 l 2
 407 770 403 767 398 767 c 2
 372 767 l 2
293 -8 m 0
 154 -8 61 83 61 219 c 2
 61 481 l 2
 61 617 154 708 293 708 c 0
 432 708 526 617 526 481 c 2
 526 219 l 2
 526 83 432 -8 293 -8 c 0
293 38 m 0
 401 38 473 109 473 217 c 2
 473 482 l 2
 473 589 401 661 293 661 c 0
 186 661 114 589 114 482 c 2
 114 217 l 2
 114 109 186 38 293 38 c 0
EndSplineSet
Substitution2: "'c2sc' Capitals to Small Capitals in Latin lookup 19 subtable" ohungarumlaut.sc
Substitution2: "'aalt' Access All Alternates in Latin lookup 0 subtable" ohungarumlaut.sc
EndChar

StartChar: Omacron
Encoding: 332 332 109
Width: 621
GlyphClass: 2
Flags: MW
HStem: -8 46<239.5 347 239.5 362.5> 661 47<239.5 347> 794 41<186 431 189 431>
VStem: 61 53<219 481 481 482> 473 53<217 219 219 481>
AnchorPoint: "Anchor-9" 562 700 basechar 0
AnchorPoint: "Anchor-7" 293 700 basechar 0
AnchorPoint: "Anchor-6" 294 0 basechar 0
LayerCount: 2
Fore
SplineSet
189 794 m 2
 183 794 179 798 179 804 c 2
 179 825 l 2
 179 831 183 835 189 835 c 2
 431 835 l 2
 437 835 441 831 441 825 c 2
 441 804 l 2
 441 798 437 794 431 794 c 2
 189 794 l 2
293 -8 m 0
 154 -8 61 83 61 219 c 2
 61 481 l 2
 61 617 154 708 293 708 c 0
 432 708 526 617 526 481 c 2
 526 219 l 2
 526 83 432 -8 293 -8 c 0
293 38 m 0
 401 38 473 109 473 217 c 2
 473 482 l 2
 473 589 401 661 293 661 c 0
 186 661 114 589 114 482 c 2
 114 217 l 2
 114 109 186 38 293 38 c 0
EndSplineSet
Substitution2: "'c2sc' Capitals to Small Capitals in Latin lookup 19 subtable" omacron.sc
Substitution2: "'aalt' Access All Alternates in Latin lookup 0 subtable" omacron.sc
EndChar

StartChar: Oslash
Encoding: 216 216 110
Width: 617
GlyphClass: 2
Flags: MW
HStem: -8 46<267 347 267 362.5> 661 47<239.5 325.5>
VStem: 61 53<219 481 481 482> 473 53<217 219 219 481>
AnchorPoint: "Anchor-9" 562 700 basechar 0
AnchorPoint: "Anchor-7" 293 700 basechar 0
AnchorPoint: "Anchor-6" 294 0 basechar 0
LayerCount: 2
Fore
SplineSet
547 701 m 2
 552 697 553 692 550 687 c 2
 497 605 l 2
 496 603 496 601 497 599 c 0
 516 566 526 526 526 481 c 2
 526 219 l 2
 526 83 432 -8 293 -8 c 0
 232 -8 180 10 140 40 c 0
 138 42 136 41 135 39 c 2
 103 -10 l 2
 100 -15 95 -17 90 -13 c 2
 75 -3 l 2
 70 1 69 5 72 10 c 2
 109 67 l 2
 110 69 110 71 109 73 c 0
 78 111 61 160 61 219 c 2
 61 481 l 2
 61 617 154 708 293 708 c 0
 366 708 428 682 469 638 c 0
 471 636 473 637 474 639 c 2
 519 708 l 2
 522 713 527 715 532 711 c 2
 547 701 l 2
114 217 m 2
 114 180 122 148 137 121 c 0
 139 118 142 119 143 121 c 2
 440 586 l 2
 441 588 441 590 440 592 c 0
 409 635 358 661 293 661 c 0
 186 661 114 589 114 482 c 2
 114 217 l 2
473 482 m 2
 473 505 470 525 464 544 c 0
 463 547 461 548 459 545 c 2
 167 89 l 2
 166 87 166 85 168 83 c 0
 198 54 241 38 293 38 c 0
 401 38 473 109 473 217 c 2
 473 482 l 2
EndSplineSet
Substitution2: "'c2sc' Capitals to Small Capitals in Latin lookup 19 subtable" oslash.sc
Substitution2: "'aalt' Access All Alternates in Latin lookup 0 subtable" oslash.sc
EndChar

StartChar: Otilde
Encoding: 213 213 111
Width: 621
GlyphClass: 2
Flags: MW
HStem: -8 46<239.5 347 239.5 362.5> 661 47<239.5 347> 807 41<362.5 380.5 362.5 384> 850 42<250 270>
VStem: 61 53<219 481 481 482> 473 53<217 219 219 481>
AnchorPoint: "Anchor-9" 562 700 basechar 0
AnchorPoint: "Anchor-7" 313 893 basechar 0
AnchorPoint: "Anchor-6" 294 0 basechar 0
LayerCount: 2
Fore
SplineSet
370 807 m 0
 344 807 326 819 310 830 c 0
 292 841 279 850 261 850 c 0
 239 850 223 844 206 823 c 0
 202 818 197 818 192 822 c 2
 179 832 l 2
 174 836 174 841 177 846 c 0
 199 878 228 892 259 892 c 0xdc
 285 892 302 880 321 869 c 0
 339 859 354 848 371 848 c 0
 390 848 408 854 425 878 c 0
 429 884 434 884 439 880 c 2
 450 870 l 2
 454 866 456 860 451 853 c 0
 431 821 398 807 370 807 c 0
293 -8 m 0
 154 -8 61 83 61 219 c 2
 61 481 l 2
 61 617 154 708 293 708 c 0
 432 708 526 617 526 481 c 2
 526 219 l 2
 526 83 432 -8 293 -8 c 0
293 38 m 0
 401 38 473 109 473 217 c 2
 473 482 l 2
 473 589 401 661 293 661 c 0
 186 661 114 589 114 482 c 2
 114 217 l 2
 114 109 186 38 293 38 c 0
EndSplineSet
Substitution2: "'c2sc' Capitals to Small Capitals in Latin lookup 19 subtable" otilde.sc
Substitution2: "'aalt' Access All Alternates in Latin lookup 0 subtable" otilde.sc
EndChar

StartChar: OE
Encoding: 338 338 112
Width: 893
GlyphClass: 2
Flags: MW
HStem: -8 46<241.5 316.5> 0 47<511 841 511 841> 328 47<510 731 511 731> 653 47<510 511 511 841> 661 47<241.5 316.5 220.5 339.5>
VStem: 75 53<202 497 497 498> 454 53<50 51 51 68 68 69.5 200 324 378 379 379 498 498 544.5 632 649>
AnchorPoint: "Anchor-7" 470 700 basechar 0
LayerCount: 2
Fore
SplineSet
851 663 m 2x76
 851 657 847 653 841 653 c 2
 511 653 l 2
 509 653 507 651 507 649 c 2
 507 379 l 2
 507 377 509 375 511 375 c 2
 731 375 l 2
 737 375 741 371 741 365 c 2
 741 338 l 2
 741 332 737 328 731 328 c 2
 511 328 l 2
 509 328 507 326 507 324 c 2
 507 51 l 2
 507 49 509 47 511 47 c 2
 841 47 l 2
 847 47 851 43 851 37 c 2
 851 10 l 2
 851 4 847 0 841 0 c 2
 464 0 l 2
 458 0 454 4 454 10 c 2x76
 454 68 l 2
 454 71 452 73 449 70 c 0
 412 21 352 -8 281 -8 c 0
 160 -8 75 80 75 202 c 2
 75 497 l 2
 75 619 160 708 281 708 c 0
 352 708 412 679 449 630 c 0
 452 627 454 629 454 632 c 2xae
 454 690 l 2
 454 696 458 700 464 700 c 2
 841 700 l 2
 847 700 851 696 851 690 c 2
 851 663 l 2x76
290 38 m 0xae
 389 38 454 108 454 200 c 2
 454 498 l 2
 454 591 389 661 290 661 c 0
 193 661 128 591 128 498 c 2
 128 200 l 2
 128 108 193 38 290 38 c 0xae
EndSplineSet
Substitution2: "'c2sc' Capitals to Small Capitals in Latin lookup 19 subtable" oe.sc
Substitution2: "'aalt' Access All Alternates in Latin lookup 0 subtable" oe.sc
EndChar

StartChar: P
Encoding: 80 80 113
Width: 587
Flags: MW
HStem: 0 21G<98 101 101 134> 322 45<147 354 148 354 354 357> 654 48<147 148 148 354>
VStem: 91 53<10 318 370 371 371 650> 495 53<467.5 553.5>
LayerCount: 2
Fore
SplineSet
358 702 m 2
 472 702 548 625 548 511 c 0
 548 397 471 322 357 322 c 2
 148 322 l 2
 146 322 144 320 144 318 c 2
 144 10 l 2
 144 4 140 0 134 0 c 2
 101 0 l 2
 95 0 91 4 91 10 c 2
 91 692 l 2
 91 698 95 702 101 702 c 2
 358 702 l 2
354 367 m 2
 438 367 495 425 495 510 c 0
 495 597 438 654 354 654 c 2
 148 654 l 2
 146 654 144 652 144 650 c 2
 144 371 l 2
 144 369 146 367 148 367 c 2
 354 367 l 2
EndSplineSet
Substitution2: "'c2sc' Capitals to Small Capitals in Latin lookup 19 subtable" p.sc
Substitution2: "'aalt' Access All Alternates in Latin lookup 0 subtable" p.sc
EndChar

StartChar: Thorn
Encoding: 222 222 114
Width: 574
Flags: MW
HStem: 0 21G<98 101 101 134> 161 45<147 328 148 328 328 330> 492 47<147 332 148 328> 680 20G<101 134 134 137>
VStem: 91 53<10 157 209 210 210 488 542 543 543 690> 469 52<305 392>
LayerCount: 2
Fore
SplineSet
332 539 m 2
 446 539 521 462 521 349 c 0
 521 235 443 161 330 161 c 2
 148 161 l 2
 146 161 144 159 144 157 c 2
 144 10 l 2
 144 4 140 0 134 0 c 2
 101 0 l 2
 95 0 91 4 91 10 c 2
 91 690 l 2
 91 696 95 700 101 700 c 2
 134 700 l 2
 140 700 144 696 144 690 c 2
 144 543 l 2
 144 541 146 539 148 539 c 2
 332 539 l 2
328 206 m 2
 412 206 469 262 469 348 c 0
 469 436 412 492 328 492 c 2
 148 492 l 2
 146 492 144 490 144 488 c 2
 144 210 l 2
 144 208 146 206 148 206 c 2
 328 206 l 2
EndSplineSet
Substitution2: "'c2sc' Capitals to Small Capitals in Latin lookup 19 subtable" thorn.sc
Substitution2: "'aalt' Access All Alternates in Latin lookup 0 subtable" thorn.sc
EndChar

StartChar: Q
Encoding: 81 81 115
Width: 569
Flags: MW
HStem: -120 159<265 268 268 301> -7 46<254 255.5 313.5 315> 661 47<234 336>
VStem: 61 53<209 488 488 491> 258 53<-110 -11> 455 53<209 488>
LayerCount: 2
Fore
SplineSet
285 708 m 0x7c
 418 708 508 620 508 488 c 2
 508 209 l 2
 508 89 432 6 315 -7 c 0
 312 -7 311 -9 311 -11 c 2x7c
 311 -110 l 2
 311 -116 307 -120 301 -120 c 2
 268 -120 l 2
 262 -120 258 -116 258 -110 c 2xbc
 258 -11 l 2
 258 -9 257 -7 254 -7 c 0
 137 6 61 89 61 209 c 2
 61 488 l 2
 61 620 151 708 285 708 c 0x7c
455 209 m 2
 455 491 l 2
 455 593 387 661 285 661 c 0
 183 661 114 593 114 491 c 2
 114 209 l 2
 114 107 183 39 285 39 c 0
 387 39 455 107 455 209 c 2
EndSplineSet
Substitution2: "'c2sc' Capitals to Small Capitals in Latin lookup 19 subtable" q.sc
Substitution2: "'aalt' Access All Alternates in Latin lookup 0 subtable" q.sc
EndChar

StartChar: R
Encoding: 82 82 116
Width: 593
GlyphClass: 2
Flags: MW
HStem: 0 21G<98 101 101 134 502.5 505 505 539> 328 44<147 348 148 337> 653 47<147 148 148 348>
VStem: 91 53<10 324 375 376 376 649> 487 52<470.5 554>
AnchorPoint: "Anchor-7" 290 700 basechar 0
AnchorPoint: "Anchor-6" 304 0 basechar 0
LayerCount: 2
Fore
SplineSet
505 0 m 2
 500 0 495 2 493 7 c 2
 341 325 l 2
 340 327 339 328 337 328 c 2
 148 328 l 2
 146 328 144 326 144 324 c 2
 144 10 l 2
 144 4 140 0 134 0 c 2
 101 0 l 2
 95 0 91 4 91 10 c 2
 91 690 l 2
 91 696 95 700 101 700 c 2
 352 700 l 2
 465 700 539 624 539 512 c 0
 539 417 484 348 396 332 c 0
 393 331 392 329 393 327 c 2
 546 12 l 2
 549 5 546 0 539 0 c 2
 505 0 l 2
148 653 m 2
 146 653 144 651 144 649 c 2
 144 376 l 2
 144 374 146 372 148 372 c 2
 348 372 l 2
 431 372 487 429 487 512 c 0
 487 596 431 653 348 653 c 2
 148 653 l 2
EndSplineSet
Substitution2: "'c2sc' Capitals to Small Capitals in Latin lookup 19 subtable" r.sc
Substitution2: "'aalt' Access All Alternates in Latin lookup 0 subtable" r.sc
EndChar

StartChar: Racute
Encoding: 340 340 117
Width: 613
GlyphClass: 2
Flags: MW
HStem: 0 21G<98 101 101 134 502.5 505 505 539> 328 44<147 348 148 337> 653 47<147 148 148 348> 767 129<274 372 278 372>
VStem: 91 53<10 324 375 376 376 649> 487 52<470.5 554>
AnchorPoint: "Anchor-7" 327 896 basechar 0
AnchorPoint: "Anchor-6" 304 0 basechar 0
LayerCount: 2
Fore
SplineSet
372 896 m 2
 380 896 383 891 379 884 c 2
 312 774 l 2
 309 770 305 767 300 767 c 2
 278 767 l 2
 270 767 267 772 271 779 c 2
 331 889 l 2
 333 894 338 896 343 896 c 2
 372 896 l 2
505 0 m 2
 500 0 495 2 493 7 c 2
 341 325 l 2
 340 327 339 328 337 328 c 2
 148 328 l 2
 146 328 144 326 144 324 c 2
 144 10 l 2
 144 4 140 0 134 0 c 2
 101 0 l 2
 95 0 91 4 91 10 c 2
 91 690 l 2
 91 696 95 700 101 700 c 2
 352 700 l 2
 465 700 539 624 539 512 c 0
 539 417 484 348 396 332 c 0
 393 331 392 329 393 327 c 2
 546 12 l 2
 549 5 546 0 539 0 c 2
 505 0 l 2
148 653 m 2
 146 653 144 651 144 649 c 2
 144 376 l 2
 144 374 146 372 148 372 c 2
 348 372 l 2
 431 372 487 429 487 512 c 0
 487 596 431 653 348 653 c 2
 148 653 l 2
EndSplineSet
Substitution2: "'c2sc' Capitals to Small Capitals in Latin lookup 19 subtable" racute.sc
Substitution2: "'aalt' Access All Alternates in Latin lookup 0 subtable" racute.sc
EndChar

StartChar: Rcaron
Encoding: 344 344 118
Width: 613
GlyphClass: 2
Flags: MW
HStem: 0 21G<98 101 101 134 502.5 505 505 539> 328 44<147 348 148 337> 653 47<147 148 148 348> 771 125<197 286 197 324>
VStem: 91 53<10 324 375 376 376 649> 487 52<470.5 554>
AnchorPoint: "Anchor-7" 290 700 basechar 0
AnchorPoint: "Anchor-6" 304 0 basechar 0
LayerCount: 2
Fore
SplineSet
337 777 m 2
 334 772 329 771 324 771 c 2
 286 771 l 2
 281 771 276 772 273 777 c 2
 191 884 l 2
 186 890 189 896 197 896 c 2
 224 896 l 2
 229 896 234 895 237 890 c 2
 303 803 l 2
 305 800 308 801 309 803 c 2
 373 890 l 2
 376 895 381 896 386 896 c 2
 413 896 l 2
 421 896 424 890 419 884 c 2
 337 777 l 2
505 0 m 2
 500 0 495 2 493 7 c 2
 341 325 l 2
 340 327 339 328 337 328 c 2
 148 328 l 2
 146 328 144 326 144 324 c 2
 144 10 l 2
 144 4 140 0 134 0 c 2
 101 0 l 2
 95 0 91 4 91 10 c 2
 91 690 l 2
 91 696 95 700 101 700 c 2
 352 700 l 2
 465 700 539 624 539 512 c 0
 539 417 484 348 396 332 c 0
 393 331 392 329 393 327 c 2
 546 12 l 2
 549 5 546 0 539 0 c 2
 505 0 l 2
148 653 m 2
 146 653 144 651 144 649 c 2
 144 376 l 2
 144 374 146 372 148 372 c 2
 348 372 l 2
 431 372 487 429 487 512 c 0
 487 596 431 653 348 653 c 2
 148 653 l 2
EndSplineSet
Substitution2: "'c2sc' Capitals to Small Capitals in Latin lookup 19 subtable" rcaron.sc
Substitution2: "'aalt' Access All Alternates in Latin lookup 0 subtable" rcaron.sc
EndChar

StartChar: S
Encoding: 83 83 119
Width: 546
GlyphClass: 2
Flags: MW
HStem: -8 47<220.5 337.5 220.5 350.5> 661 47<212.5 322.5>
VStem: 39 51<174 177 177 207 136.5 210> 53 52<498 578.5 498 592> 446 53<501 521 521 524 498 561.5> 452 53<129.5 206.5>
AnchorPoint: "Anchor-7" 267 700 basechar 0
AnchorPoint: "Anchor-6" 271 -8 basechar 0
LayerCount: 2
Fore
SplineSet
277 -8 m 0xe4
 129 -8 39 64 39 174 c 2
 39 207 l 2
 39 213 43 217 49 217 c 2
 80 217 l 2
 86 217 90 213 90 207 c 2
 90 177 l 2
 90 96 160 39 281 39 c 0
 394 39 452 90 452 169 c 0xe4
 452 244 396 282 258 340 c 0
 134 392 53 426 53 537 c 0
 53 647 133 708 266 708 c 0
 413 708 499 635 499 524 c 2
 499 501 l 2
 499 495 495 491 489 491 c 2
 456 491 l 2
 450 491 446 495 446 501 c 2
 446 521 l 2
 446 602 382 661 263 661 c 0
 162 661 105 618 105 539 c 0xd8
 105 457 164 432 288 382 c 0
 419 329 505 279 505 171 c 0
 505 65 424 -8 277 -8 c 0xe4
EndSplineSet
Substitution2: "'c2sc' Capitals to Small Capitals in Latin lookup 19 subtable" s.sc
Substitution2: "'aalt' Access All Alternates in Latin lookup 0 subtable" s.sc
EndChar

StartChar: Sacute
Encoding: 346 346 120
Width: 576
GlyphClass: 2
Flags: MW
HStem: -8 47<220.5 337.5 220.5 350.5> 661 47<212.5 322.5> 767 129<251 350 255 350>
VStem: 39 51<174 177 177 207 136.5 210> 53 52<498 578.5 498 592> 446 53<501 521 521 524 498 561.5> 452 53<129.5 206.5>
AnchorPoint: "Anchor-7" 304 896 basechar 0
AnchorPoint: "Anchor-6" 271 -8 basechar 0
LayerCount: 2
Fore
SplineSet
255 767 m 2xea
 247 767 244 772 248 779 c 2
 308 889 l 2
 310 894 315 896 320 896 c 2
 350 896 l 2
 358 896 361 891 357 884 c 2
 290 774 l 2
 287 770 283 767 278 767 c 2
 255 767 l 2xea
277 -8 m 0xf2
 129 -8 39 64 39 174 c 2
 39 207 l 2
 39 213 43 217 49 217 c 2
 80 217 l 2
 86 217 90 213 90 207 c 2
 90 177 l 2
 90 96 160 39 281 39 c 0
 394 39 452 90 452 169 c 0xf2
 452 244 396 282 258 340 c 0
 134 392 53 426 53 537 c 0
 53 647 133 708 266 708 c 0
 413 708 499 635 499 524 c 2
 499 501 l 2
 499 495 495 491 489 491 c 2
 456 491 l 2
 450 491 446 495 446 501 c 2
 446 521 l 2
 446 602 382 661 263 661 c 0
 162 661 105 618 105 539 c 0xec
 105 457 164 432 288 382 c 0
 419 329 505 279 505 171 c 0
 505 65 424 -8 277 -8 c 0xf2
EndSplineSet
Substitution2: "'c2sc' Capitals to Small Capitals in Latin lookup 19 subtable" sacute.sc
Substitution2: "'aalt' Access All Alternates in Latin lookup 0 subtable" sacute.sc
EndChar

StartChar: Scaron
Encoding: 352 352 121
Width: 576
GlyphClass: 2
Flags: MW
HStem: -8 47<220.5 337.5 220.5 350.5> 661 47<212.5 322.5> 771 125<174 263 174 301>
VStem: 39 51<174 177 177 207 136.5 210> 53 52<498 578.5 498 592> 446 53<501 521 521 524 498 561.5> 452 53<129.5 206.5>
AnchorPoint: "Anchor-7" 267 700 basechar 0
AnchorPoint: "Anchor-6" 271 -8 basechar 0
LayerCount: 2
Fore
SplineSet
168 884 m 2xea
 163 890 166 896 174 896 c 2
 201 896 l 2
 206 896 211 895 214 890 c 2
 280 803 l 2
 282 800 285 801 286 803 c 2
 350 890 l 2
 353 895 358 896 363 896 c 2
 390 896 l 2
 398 896 401 890 396 884 c 2
 314 777 l 2
 311 772 306 771 301 771 c 2
 263 771 l 2
 258 771 253 772 250 777 c 2
 168 884 l 2xea
277 -8 m 0xf2
 129 -8 39 64 39 174 c 2
 39 207 l 2
 39 213 43 217 49 217 c 2
 80 217 l 2
 86 217 90 213 90 207 c 2
 90 177 l 2
 90 96 160 39 281 39 c 0
 394 39 452 90 452 169 c 0xf2
 452 244 396 282 258 340 c 0
 134 392 53 426 53 537 c 0
 53 647 133 708 266 708 c 0
 413 708 499 635 499 524 c 2
 499 501 l 2
 499 495 495 491 489 491 c 2
 456 491 l 2
 450 491 446 495 446 501 c 2
 446 521 l 2
 446 602 382 661 263 661 c 0
 162 661 105 618 105 539 c 0xec
 105 457 164 432 288 382 c 0
 419 329 505 279 505 171 c 0
 505 65 424 -8 277 -8 c 0xf2
EndSplineSet
Substitution2: "'c2sc' Capitals to Small Capitals in Latin lookup 19 subtable" scaron.sc
Substitution2: "'aalt' Access All Alternates in Latin lookup 0 subtable" scaron.sc
EndChar

StartChar: Scedilla
Encoding: 350 350 122
Width: 576
GlyphClass: 2
Flags: MW
HStem: -186.62 35.24 -8 47<261 262> 661 47<212.5 322.5>
VStem: 39 51<174 177 177 207 136.5 210> 53 52<498 578.5 498 592> 321 42.45 446 53<501 521 521 524 498 561.5> 452 53<129.5 206.5>
AnchorPoint: "Anchor-7" 267 700 basechar 0
AnchorPoint: "Anchor-6" 271 -8 basechar 0
LayerCount: 2
Fore
SplineSet
505 171 m 0xed
 505 74 437 5 312 -6 c 0
 308 -7 308 -9 311 -11 c 0
 357 -50 370 -90 361 -127 c 0
 347 -188 285 -193 240 -182 c 0
 234 -181 232 -177 233 -170 c 2
 236 -156 l 2
 237 -149 241 -147 248 -149 c 0
 282 -156 315 -149 321 -113 c 0
 328 -76 301 -39 266 -10 c 0
 265 -8 263 -8 261 -8 c 0
 123 -3 39 68 39 174 c 2
 39 207 l 2
 39 213 43 217 49 217 c 2
 80 217 l 2
 86 217 90 213 90 207 c 2
 90 177 l 2
 90 96 160 39 281 39 c 0
 394 39 452 90 452 169 c 0xf5
 452 244 396 282 258 340 c 0
 134 392 53 426 53 537 c 0
 53 647 133 708 266 708 c 0
 413 708 499 635 499 524 c 2
 499 501 l 2
 499 495 495 491 489 491 c 2
 456 491 l 2
 450 491 446 495 446 501 c 2
 446 521 l 2xee
 446 602 382 661 263 661 c 0
 162 661 105 618 105 539 c 0
 105 457 164 432 288 382 c 0
 419 329 505 279 505 171 c 0xed
EndSplineSet
Substitution2: "'c2sc' Capitals to Small Capitals in Latin lookup 19 subtable" scedilla.sc
Substitution2: "'aalt' Access All Alternates in Latin lookup 0 subtable" scedilla.sc
EndChar

StartChar: Scircumflex
Encoding: 348 348 123
Width: 546
GlyphClass: 2
Flags: MW
HStem: -8 47<220.5 337.5 220.5 350.5> 661 47<212.5 322.5> 770 126<154 284 158 284 246 347 246 373>
VStem: 39 51<174 177 177 207 136.5 210> 53 52<498 578.5 498 592> 446 53<501 521 521 524 498 561.5> 452 53<129.5 206.5>
AnchorPoint: "Anchor-7" 265 896 basechar 0
AnchorPoint: "Anchor-6" 271 -8 basechar 0
LayerCount: 2
Fore
SplineSet
158 770 m 2xea
 150 770 147 776 152 782 c 2
 233 890 l 2
 236 895 241 896 246 896 c 2
 284 896 l 2
 289 896 294 895 297 890 c 2
 379 782 l 2
 384 776 381 770 373 770 c 2
 347 770 l 2
 342 770 337 771 334 776 c 2
 269 863 l 2
 268 865 265 866 263 863 c 2
 197 776 l 2
 194 771 189 770 184 770 c 2
 158 770 l 2xea
277 -8 m 0xf2
 129 -8 39 64 39 174 c 2
 39 207 l 2
 39 213 43 217 49 217 c 2
 80 217 l 2
 86 217 90 213 90 207 c 2
 90 177 l 2
 90 96 160 39 281 39 c 0
 394 39 452 90 452 169 c 0xf2
 452 244 396 282 258 340 c 0
 134 392 53 426 53 537 c 0
 53 647 133 708 266 708 c 0
 413 708 499 635 499 524 c 2
 499 501 l 2
 499 495 495 491 489 491 c 2
 456 491 l 2
 450 491 446 495 446 501 c 2
 446 521 l 2
 446 602 382 661 263 661 c 0
 162 661 105 618 105 539 c 0xec
 105 457 164 432 288 382 c 0
 419 329 505 279 505 171 c 0
 505 65 424 -8 277 -8 c 0xf2
EndSplineSet
EndChar

StartChar: uni018F
Encoding: 399 399 124
Width: 530
GlyphClass: 2
Flags: MW
HStem: -9 47<222 303.5 222 314> 240 46<108 109 109 414> 503 46<260 298.5>
VStem: 52 53<219.5 279> 418 53<218.5 297.5 288.5 297.5 238.5 313>
AnchorPoint: "Anchor-7" 259 541 basechar 0
LayerCount: 2
Fore
SplineSet
460 405 m 0
 470 369 471 327 471 268 c 0
 471 209 470 172 462 138 c 0
 439 51 365 -9 263 -9 c 0
 151 -9 76 58 58 153 c 0
 52 183 52 208 52 276 c 0
 52 282 56 286 62 286 c 2
 414 286 l 2
 416 286 418 287 418 290 c 0
 418 336 416 368 411 387 c 0
 396 456 341 503 256 503 c 0
 186 502 134 465 109 411 c 0
 106 405 102 404 96 407 c 2
 70 420 l 2
 65 423 62 427 65 433 c 0
 95 503 165 550 260 549 c 0
 363 549 435 492 460 405 c 0
263 38 m 0
 344 38 398 86 412 154 c 0
 417 172 418 201 418 236 c 0
 418 239 416 240 414 240 c 2
 109 240 l 2
 107 240 105 239 105 236 c 0
 105 203 107 172 111 155 c 0
 126 87 181 38 263 38 c 0
EndSplineSet
EndChar

StartChar: T
Encoding: 84 84 125
Width: 514
GlyphClass: 2
Flags: MW
HStem: 0 21G<233 236 236 269> 653 47<29 482 32 222 282 283 283 482>
VStem: 226 53<10 649>
AnchorPoint: "Anchor-7" 252 700 basechar 0
AnchorPoint: "Anchor-6" 256 0 basechar 0
LayerCount: 2
Fore
SplineSet
482 700 m 2
 488 700 492 696 492 690 c 2
 492 663 l 2
 492 657 488 653 482 653 c 2
 283 653 l 2
 281 653 279 651 279 649 c 2
 279 10 l 2
 279 4 275 0 269 0 c 2
 236 0 l 2
 230 0 226 4 226 10 c 2
 226 649 l 2
 226 651 224 653 222 653 c 2
 32 653 l 2
 26 653 22 657 22 663 c 2
 22 690 l 2
 22 696 26 700 32 700 c 2
 482 700 l 2
EndSplineSet
Substitution2: "'c2sc' Capitals to Small Capitals in Latin lookup 19 subtable" t.sc
Substitution2: "'aalt' Access All Alternates in Latin lookup 0 subtable" t.sc
EndChar

StartChar: Tbar
Encoding: 358 358 126
Width: 564
GlyphClass: 2
Flags: MW
HStem: 0 21G<233 236 236 269> 383 38<131 222 134 222 283 422> 653 47<29 482 32 222 282 283 283 482>
VStem: 226 53<10 379 425 649>
AnchorPoint: "Anchor-7" 252 700 basechar 0
AnchorPoint: "Anchor-6" 256 0 basechar 0
LayerCount: 2
Fore
SplineSet
492 663 m 2
 492 657 488 653 482 653 c 2
 283 653 l 2
 281 653 279 651 279 649 c 2
 279 425 l 2
 279 423 281 421 283 421 c 2
 422 421 l 2
 428 421 432 417 432 411 c 2
 432 393 l 2
 432 387 428 383 422 383 c 2
 283 383 l 2
 281 383 279 381 279 379 c 2
 279 10 l 2
 279 4 275 0 269 0 c 2
 236 0 l 2
 230 0 226 4 226 10 c 2
 226 379 l 2
 226 381 224 383 222 383 c 2
 134 383 l 2
 128 383 124 387 124 393 c 2
 124 411 l 2
 124 417 128 421 134 421 c 2
 222 421 l 2
 224 421 226 423 226 425 c 2
 226 649 l 2
 226 651 224 653 222 653 c 2
 32 653 l 2
 26 653 22 657 22 663 c 2
 22 690 l 2
 22 696 26 700 32 700 c 2
 482 700 l 2
 488 700 492 696 492 690 c 2
 492 663 l 2
EndSplineSet
Substitution2: "'c2sc' Capitals to Small Capitals in Latin lookup 19 subtable" tbar.sc
Substitution2: "'aalt' Access All Alternates in Latin lookup 0 subtable" tbar.sc
EndChar

StartChar: Tcaron
Encoding: 356 356 127
Width: 564
GlyphClass: 2
Flags: MW
HStem: 0 21G<233 236 236 269> 653 47<29 482 32 222 282 283 283 482> 768 126<171 259 171 297>
VStem: 226 53<10 649>
AnchorPoint: "Anchor-7" 252 700 basechar 0
AnchorPoint: "Anchor-6" 256 0 basechar 0
LayerCount: 2
Fore
SplineSet
310 774 m 2
 307 769 302 768 297 768 c 2
 259 768 l 2
 254 768 249 769 246 774 c 2
 165 882 l 2
 160 888 163 894 171 894 c 2
 197 894 l 2
 202 894 207 893 210 888 c 2
 276 801 l 2
 278 798 281 799 282 801 c 2
 347 888 l 2
 350 893 355 894 360 894 c 2
 386 894 l 2
 394 894 397 888 392 882 c 2
 310 774 l 2
482 700 m 2
 488 700 492 696 492 690 c 2
 492 663 l 2
 492 657 488 653 482 653 c 2
 283 653 l 2
 281 653 279 651 279 649 c 2
 279 10 l 2
 279 4 275 0 269 0 c 2
 236 0 l 2
 230 0 226 4 226 10 c 2
 226 649 l 2
 226 651 224 653 222 653 c 2
 32 653 l 2
 26 653 22 657 22 663 c 2
 22 690 l 2
 22 696 26 700 32 700 c 2
 482 700 l 2
EndSplineSet
Substitution2: "'c2sc' Capitals to Small Capitals in Latin lookup 19 subtable" tcaron.sc
Substitution2: "'aalt' Access All Alternates in Latin lookup 0 subtable" tcaron.sc
EndChar

StartChar: U
Encoding: 85 85 128
Width: 636
GlyphClass: 2
Flags: MW
HStem: -8 47<264 371.5 264 387.5> 680 20G<96 129 129 132 507 540 540 543>
VStem: 86 53<212 690> 497 53<210 212 212 690>
AnchorPoint: "Anchor-9" 624 700 basechar 0
AnchorPoint: "Anchor-7" 318 700 basechar 0
AnchorPoint: "Anchor-6" 319 0 basechar 0
LayerCount: 2
Fore
SplineSet
318 -8 m 0
 179 -8 86 80 86 212 c 2
 86 690 l 2
 86 696 90 700 96 700 c 2
 129 700 l 2
 135 700 139 696 139 690 c 2
 139 210 l 2
 139 108 210 39 318 39 c 0
 425 39 497 108 497 210 c 2
 497 690 l 2
 497 696 501 700 507 700 c 2
 540 700 l 2
 546 700 550 696 550 690 c 2
 550 212 l 2
 550 80 457 -8 318 -8 c 0
EndSplineSet
Substitution2: "'c2sc' Capitals to Small Capitals in Latin lookup 19 subtable" u.sc
Substitution2: "'aalt' Access All Alternates in Latin lookup 0 subtable" u.sc
EndChar

StartChar: Uacute
Encoding: 218 218 129
Width: 657
GlyphClass: 2
Flags: MW
HStem: -8 47<264 371.5 264 387.5> 680 20G<96 129 129 132 507 540 540 543> 767 129<298 397 302 397>
VStem: 86 53<212 690> 497 53<210 212 212 690>
AnchorPoint: "Anchor-9" 624 700 basechar 0
AnchorPoint: "Anchor-7" 351 896 basechar 0
AnchorPoint: "Anchor-6" 319 0 basechar 0
LayerCount: 2
Fore
SplineSet
302 767 m 2
 294 767 291 772 295 779 c 2
 355 889 l 2
 357 894 362 896 367 896 c 2
 397 896 l 2
 405 896 408 891 404 884 c 2
 337 774 l 2
 334 770 330 767 325 767 c 2
 302 767 l 2
318 -8 m 0
 179 -8 86 80 86 212 c 2
 86 690 l 2
 86 696 90 700 96 700 c 2
 129 700 l 2
 135 700 139 696 139 690 c 2
 139 210 l 2
 139 108 210 39 318 39 c 0
 425 39 497 108 497 210 c 2
 497 690 l 2
 497 696 501 700 507 700 c 2
 540 700 l 2
 546 700 550 696 550 690 c 2
 550 212 l 2
 550 80 457 -8 318 -8 c 0
EndSplineSet
Substitution2: "'c2sc' Capitals to Small Capitals in Latin lookup 19 subtable" uacute.sc
Substitution2: "'aalt' Access All Alternates in Latin lookup 0 subtable" uacute.sc
EndChar

StartChar: Ubreve
Encoding: 364 364 130
Width: 636
GlyphClass: 2
Flags: MW
HStem: -8 47<264 371.5 264 387.5> 680 20G<96 129 129 132 507 540 540 543> 782 33<298.5 337.5 298.5 348.5>
VStem: 86 53<212 690> 497 53<210 212 212 690>
AnchorPoint: "Anchor-9" 624 700 basechar 0
AnchorPoint: "Anchor-7" 318 884 basechar 0
AnchorPoint: "Anchor-6" 319 0 basechar 0
LayerCount: 2
Fore
SplineSet
318 782 m 0
 257 782 210 823 205 876 c 0
 204 882 208 886 214 886 c 2
 231 886 l 2
 237 886 241 883 242 876 c 0
 247 841 279 815 318 815 c 0
 357 815 389 841 394 876 c 0
 395 883 399 886 405 886 c 2
 422 886 l 2
 428 886 432 883 432 877 c 0
 427 823 379 782 318 782 c 0
318 -8 m 0
 179 -8 86 80 86 212 c 2
 86 690 l 2
 86 696 90 700 96 700 c 2
 129 700 l 2
 135 700 139 696 139 690 c 2
 139 210 l 2
 139 108 210 39 318 39 c 0
 425 39 497 108 497 210 c 2
 497 690 l 2
 497 696 501 700 507 700 c 2
 540 700 l 2
 546 700 550 696 550 690 c 2
 550 212 l 2
 550 80 457 -8 318 -8 c 0
EndSplineSet
EndChar

StartChar: Ucircumflex
Encoding: 219 219 131
Width: 657
GlyphClass: 2
Flags: MW
HStem: -8 47<264 371.5 264 387.5> 680 20G<96 129 129 132 507 540 540 543> 771 125<216 346 220 346 308 409 308 435>
VStem: 86 53<212 690> 497 53<210 212 212 690>
AnchorPoint: "Anchor-9" 624 700 basechar 0
AnchorPoint: "Anchor-7" 328 896 basechar 0
AnchorPoint: "Anchor-6" 319 0 basechar 0
LayerCount: 2
Fore
SplineSet
220 771 m 2
 212 771 209 777 214 783 c 2
 295 890 l 2
 298 895 303 896 308 896 c 2
 346 896 l 2
 351 896 356 895 359 890 c 2
 441 783 l 2
 446 777 443 771 435 771 c 2
 409 771 l 2
 404 771 399 772 396 777 c 2
 331 863 l 2
 330 865 327 866 325 863 c 2
 259 777 l 2
 256 772 251 771 246 771 c 2
 220 771 l 2
318 -8 m 0
 179 -8 86 80 86 212 c 2
 86 690 l 2
 86 696 90 700 96 700 c 2
 129 700 l 2
 135 700 139 696 139 690 c 2
 139 210 l 2
 139 108 210 39 318 39 c 0
 425 39 497 108 497 210 c 2
 497 690 l 2
 497 696 501 700 507 700 c 2
 540 700 l 2
 546 700 550 696 550 690 c 2
 550 212 l 2
 550 80 457 -8 318 -8 c 0
EndSplineSet
Substitution2: "'c2sc' Capitals to Small Capitals in Latin lookup 19 subtable" ucircumflex.sc
Substitution2: "'aalt' Access All Alternates in Latin lookup 0 subtable" ucircumflex.sc
EndChar

StartChar: Udieresis
Encoding: 220 220 132
Width: 657
GlyphClass: 2
Flags: MW
HStem: -8 47<264 371.5 264 387.5> 680 20G<96 129 129 132 507 540 540 543> 803 100<231.5 260.5 395.5 424.5>
VStem: 86 53<212 690> 196 100<838.5 867.5> 360 100<838.5 867.5> 497 53<210 212 212 690>
AnchorPoint: "Anchor-9" 624 700 basechar 0
AnchorPoint: "Anchor-7" 318 700 basechar 0
AnchorPoint: "Anchor-6" 319 0 basechar 0
LayerCount: 2
Fore
SplineSet
246 803 m 0
 217 803 196 824 196 853 c 0
 196 882 217 903 246 903 c 0
 275 903 296 882 296 853 c 0
 296 824 275 803 246 803 c 0
410 803 m 0
 381 803 360 824 360 853 c 0
 360 882 381 903 410 903 c 0
 439 903 460 882 460 853 c 0
 460 824 439 803 410 803 c 0
318 -8 m 0
 179 -8 86 80 86 212 c 2
 86 690 l 2
 86 696 90 700 96 700 c 2
 129 700 l 2
 135 700 139 696 139 690 c 2
 139 210 l 2
 139 108 210 39 318 39 c 0
 425 39 497 108 497 210 c 2
 497 690 l 2
 497 696 501 700 507 700 c 2
 540 700 l 2
 546 700 550 696 550 690 c 2
 550 212 l 2
 550 80 457 -8 318 -8 c 0
EndSplineSet
Substitution2: "'c2sc' Capitals to Small Capitals in Latin lookup 19 subtable" udieresis.sc
Substitution2: "'aalt' Access All Alternates in Latin lookup 0 subtable" udieresis.sc
EndChar

StartChar: uni1EE4
Encoding: 7908 7908 133
Width: 636
GlyphClass: 2
Flags: MW
HStem: -174 94<306 333.5> -8 47<264 371.5 264 387.5> 680 20G<96 129 129 132 507 540 540 543>
VStem: 86 53<212 690> 273 94<-140.5 -113.5> 497 53<210 212 212 690>
AnchorPoint: "Anchor-9" 624 700 basechar 0
AnchorPoint: "Anchor-7" 318 700 basechar 0
AnchorPoint: "Anchor-6" 319 -175 basechar 0
LayerCount: 2
Fore
SplineSet
318 -8 m 0
 179 -8 86 80 86 212 c 2
 86 690 l 2
 86 696 90 700 96 700 c 2
 129 700 l 2
 135 700 139 696 139 690 c 2
 139 210 l 2
 139 108 210 39 318 39 c 0
 425 39 497 108 497 210 c 2
 497 690 l 2
 497 696 501 700 507 700 c 2
 540 700 l 2
 546 700 550 696 550 690 c 2
 550 212 l 2
 550 80 457 -8 318 -8 c 0
320 -174 m 0
 292 -174 273 -154 273 -127 c 0
 273 -100 292 -80 320 -80 c 0
 347 -80 367 -100 367 -127 c 0
 367 -154 347 -174 320 -174 c 0
EndSplineSet
EndChar

StartChar: Ugrave
Encoding: 217 217 134
Width: 657
GlyphClass: 2
Flags: MW
HStem: -8 47<264 371.5 264 387.5> 680 20G<96 129 129 132 507 540 540 543> 767 129<247 319 247 342>
VStem: 86 53<212 690> 497 53<210 212 212 690>
AnchorPoint: "Anchor-9" 624 700 basechar 0
AnchorPoint: "Anchor-7" 285 896 basechar 0
AnchorPoint: "Anchor-6" 319 0 basechar 0
LayerCount: 2
Fore
SplineSet
349 779 m 2
 353 772 350 767 342 767 c 2
 319 767 l 2
 314 767 310 770 307 774 c 2
 240 884 l 2
 236 891 239 896 247 896 c 2
 276 896 l 2
 281 896 286 893 288 889 c 2
 349 779 l 2
318 -8 m 0
 179 -8 86 80 86 212 c 2
 86 690 l 2
 86 696 90 700 96 700 c 2
 129 700 l 2
 135 700 139 696 139 690 c 2
 139 210 l 2
 139 108 210 39 318 39 c 0
 425 39 497 108 497 210 c 2
 497 690 l 2
 497 696 501 700 507 700 c 2
 540 700 l 2
 546 700 550 696 550 690 c 2
 550 212 l 2
 550 80 457 -8 318 -8 c 0
EndSplineSet
Substitution2: "'c2sc' Capitals to Small Capitals in Latin lookup 19 subtable" ugrave.sc
Substitution2: "'aalt' Access All Alternates in Latin lookup 0 subtable" ugrave.sc
EndChar

StartChar: uni1EE6
Encoding: 7910 7910 135
Width: 636
GlyphClass: 2
Flags: MW
HStem: -8 47<264 371.5 264 387.5> 680 20G<96 129 129 132 507 540 540 543> 894 33<307.5 333>
VStem: 86 53<212 690> 366 35<834.5 865.5> 497 53<210 212 212 690>
AnchorPoint: "Anchor-9" 624 700 basechar 0
AnchorPoint: "Anchor-7" 317 925 basechar 0
AnchorPoint: "Anchor-6" 319 0 basechar 0
LayerCount: 2
Fore
SplineSet
312 748 m 2
 306 750 303 755 306 761 c 0
 326 809 366 814 366 855 c 0
 366 876 345 894 321 894 c 0
 294 894 282 884 265 858 c 0
 261 852 256 851 251 855 c 2
 240 862 l 2
 234 866 234 870 237 876 c 0
 260 910 278 927 322 927 c 0
 368 927 401 897 401 855 c 0
 401 805 354 786 336 754 c 0
 335 753 335 751 334 750 c 0
 332 746 328 744 323 745 c 2
 312 748 l 2
318 -8 m 0
 179 -8 86 80 86 212 c 2
 86 690 l 2
 86 696 90 700 96 700 c 2
 129 700 l 2
 135 700 139 696 139 690 c 2
 139 210 l 2
 139 108 210 39 318 39 c 0
 425 39 497 108 497 210 c 2
 497 690 l 2
 497 696 501 700 507 700 c 2
 540 700 l 2
 546 700 550 696 550 690 c 2
 550 212 l 2
 550 80 457 -8 318 -8 c 0
EndSplineSet
EndChar

StartChar: Uhorn
Encoding: 431 431 136
Width: 636
GlyphClass: 2
Flags: MW
HStem: -8 47<264 371.5 264 387.5> 680 20G<96 129 129 132 507 540 540 543>
VStem: 86 53<212 690> 497 53<210 212 212 627 627 628> 569 38<733 736 733 736.5>
AnchorPoint: "Anchor-9" 549 664 basechar 0
AnchorPoint: "Anchor-7" 318 700 basechar 0
AnchorPoint: "Anchor-6" 319 0 basechar 0
LayerCount: 2
Fore
SplineSet
597 743 m 2
 603 743 607 739 607 733 c 0xf8
 603 693 581 664 553 647 c 0
 551 645 550 644 550 642 c 2
 550 212 l 2
 550 80 457 -8 318 -8 c 0
 179 -8 86 80 86 212 c 2
 86 690 l 2
 86 696 90 700 96 700 c 2
 129 700 l 2
 135 700 139 696 139 690 c 2
 139 210 l 2
 139 108 210 39 318 39 c 0
 425 39 497 108 497 210 c 2
 497 627 l 2
 497 629 496 630 494 631 c 0
 492 632 490 636 490 640 c 2
 490 654 l 2
 490 660 492 664 494 664 c 0
 496 664 497 666 497 668 c 2
 497 690 l 2
 497 696 501 700 507 700 c 2
 540 700 l 2
 546 700 550 698 550 695 c 0
 550 693 553 693 555 696 c 0xf0
 562 706 567 719 569 733 c 0
 569 740 573 743 579 743 c 2
 597 743 l 2
EndSplineSet
EndChar

StartChar: uni1EE8
Encoding: 7912 7912 137
Width: 636
GlyphClass: 2
Flags: MW
HStem: -8 47<264 371.5 264 387.5> 680 20G<96 129 129 132 507 540 540 543> 767 129<287 386 291 386>
VStem: 86 53<212 690> 497 53<210 212 212 627 627 628> 569 38<733 736 733 736.5>
AnchorPoint: "Anchor-9" 549 664 basechar 0
AnchorPoint: "Anchor-7" 341 896 basechar 0
AnchorPoint: "Anchor-6" 319 0 basechar 0
LayerCount: 2
Fore
SplineSet
386 896 m 2
 394 896 397 891 393 884 c 2
 326 774 l 2
 323 770 319 767 314 767 c 2
 291 767 l 2
 283 767 280 772 284 779 c 2
 345 889 l 2
 347 893 352 896 357 896 c 2
 386 896 l 2
597 743 m 2xfc
 603 743 607 739 607 733 c 0xfc
 603 693 581 664 553 647 c 0
 551 645 550 644 550 642 c 2
 550 212 l 2
 550 80 457 -8 318 -8 c 0
 179 -8 86 80 86 212 c 2
 86 690 l 2
 86 696 90 700 96 700 c 2
 129 700 l 2
 135 700 139 696 139 690 c 2
 139 210 l 2
 139 108 210 39 318 39 c 0
 425 39 497 108 497 210 c 2
 497 627 l 2
 497 629 496 630 494 631 c 0
 492 632 490 636 490 640 c 2
 490 654 l 2
 490 660 492 664 494 664 c 0
 496 664 497 666 497 668 c 2
 497 690 l 2
 497 696 501 700 507 700 c 2
 540 700 l 2
 546 700 550 698 550 695 c 0
 550 693 553 693 555 696 c 0xf8
 562 706 567 719 569 733 c 0
 569 740 573 743 579 743 c 2
 597 743 l 2xfc
EndSplineSet
EndChar

StartChar: uni1EF0
Encoding: 7920 7920 138
Width: 636
GlyphClass: 2
Flags: MW
HStem: -174 94<306 333.5> -8 47<264 371.5 264 387.5> 680 20G<96 129 129 132 507 540 540 543>
VStem: 86 53<212 690> 273 94<-140.5 -113.5> 497 53<210 212 212 627 627 628> 569 38<733 736 733 736.5>
AnchorPoint: "Anchor-9" 549 664 basechar 0
AnchorPoint: "Anchor-7" 318 700 basechar 0
AnchorPoint: "Anchor-6" 319 -175 basechar 0
LayerCount: 2
Fore
SplineSet
597 743 m 2
 603 743 607 739 607 733 c 0xf6
 603 693 581 664 553 647 c 0
 551 645 550 644 550 642 c 2
 550 212 l 2
 550 80 457 -8 318 -8 c 0
 179 -8 86 80 86 212 c 2
 86 690 l 2
 86 696 90 700 96 700 c 2
 129 700 l 2
 135 700 139 696 139 690 c 2
 139 210 l 2
 139 108 210 39 318 39 c 0
 425 39 497 108 497 210 c 2
 497 627 l 2
 497 629 496 630 494 631 c 0
 492 632 490 636 490 640 c 2
 490 654 l 2
 490 660 492 664 494 664 c 0
 496 664 497 666 497 668 c 2
 497 690 l 2
 497 696 501 700 507 700 c 2
 540 700 l 2
 546 700 550 698 550 695 c 0
 550 693 553 693 555 696 c 0xf4
 562 706 567 719 569 733 c 0
 569 740 573 743 579 743 c 2
 597 743 l 2
320 -80 m 0xfc
 347 -80 367 -100 367 -127 c 0
 367 -154 347 -174 320 -174 c 0
 292 -174 273 -154 273 -127 c 0
 273 -100 292 -80 320 -80 c 0xfc
EndSplineSet
EndChar

StartChar: uni1EEA
Encoding: 7914 7914 139
Width: 636
GlyphClass: 2
Flags: MW
HStem: -8 47<264 371.5 264 387.5> 680 20G<96 129 129 132 507 540 540 543> 767 129<236 308 236 331>
VStem: 86 53<212 690> 497 53<210 212 212 627 627 628> 569 38<733 736 733 736.5>
AnchorPoint: "Anchor-9" 549 664 basechar 0
AnchorPoint: "Anchor-7" 274 896 basechar 0
AnchorPoint: "Anchor-6" 319 0 basechar 0
LayerCount: 2
Fore
SplineSet
338 779 m 2
 342 772 339 767 331 767 c 2
 308 767 l 2
 303 767 299 770 296 774 c 2
 229 884 l 2
 225 891 228 896 236 896 c 2
 266 896 l 2
 271 896 276 894 278 889 c 2
 338 779 l 2
597 743 m 2xfc
 603 743 607 739 607 733 c 0xfc
 603 693 581 664 553 647 c 0
 551 645 550 644 550 642 c 2
 550 212 l 2
 550 80 457 -8 318 -8 c 0
 179 -8 86 80 86 212 c 2
 86 690 l 2
 86 696 90 700 96 700 c 2
 129 700 l 2
 135 700 139 696 139 690 c 2
 139 210 l 2
 139 108 210 39 318 39 c 0
 425 39 497 108 497 210 c 2
 497 627 l 2
 497 629 496 630 494 631 c 0
 492 632 490 636 490 640 c 2
 490 654 l 2
 490 660 492 664 494 664 c 0
 496 664 497 666 497 668 c 2
 497 690 l 2
 497 696 501 700 507 700 c 2
 540 700 l 2
 546 700 550 698 550 695 c 0
 550 693 553 693 555 696 c 0xf8
 562 706 567 719 569 733 c 0
 569 740 573 743 579 743 c 2
 597 743 l 2xfc
EndSplineSet
EndChar

StartChar: uni1EEC
Encoding: 7916 7916 140
Width: 636
GlyphClass: 2
Flags: MW
HStem: -8 47<264 371.5 264 387.5> 680 20G<96 129 129 132 507 540 540 543> 894 33<307.5 333>
VStem: 86 53<212 690> 366 35<834.5 865.5> 497 53<210 212 212 627 627 628> 569 38<733 736 733 736.5>
AnchorPoint: "Anchor-9" 549 664 basechar 0
AnchorPoint: "Anchor-7" 317 925 basechar 0
AnchorPoint: "Anchor-6" 319 0 basechar 0
LayerCount: 2
Fore
SplineSet
321 894 m 0
 294 894 282 884 265 858 c 0
 261 852 256 851 251 855 c 2
 240 862 l 2
 234 866 234 870 237 876 c 0
 260 910 278 927 322 927 c 0
 368 927 401 897 401 855 c 0
 401 804 352 785 336 752 c 0
 333 746 329 743 323 745 c 2
 312 748 l 2
 306 750 303 755 306 761 c 0
 326 809 366 814 366 855 c 0
 366 876 345 894 321 894 c 0
597 743 m 2xfe
 603 743 607 739 607 733 c 0xfe
 603 693 581 664 553 647 c 0
 551 645 550 644 550 642 c 2
 550 212 l 2
 550 80 457 -8 318 -8 c 0
 179 -8 86 80 86 212 c 2
 86 690 l 2
 86 696 90 700 96 700 c 2
 129 700 l 2
 135 700 139 696 139 690 c 2
 139 210 l 2
 139 108 210 39 318 39 c 0
 425 39 497 108 497 210 c 2
 497 627 l 2
 497 629 496 630 494 631 c 0
 492 632 490 636 490 640 c 2
 490 654 l 2
 490 660 492 664 494 664 c 0
 496 664 497 666 497 668 c 2
 497 690 l 2
 497 696 501 700 507 700 c 2
 540 700 l 2
 546 700 550 698 550 695 c 0
 550 693 553 693 555 696 c 0xfc
 562 706 567 719 569 733 c 0
 569 740 573 743 579 743 c 2
 597 743 l 2xfe
EndSplineSet
EndChar

StartChar: uni1EEE
Encoding: 7918 7918 141
Width: 636
GlyphClass: 2
Flags: MW
HStem: -8 47<264 371.5 264 387.5> 680 20G<96 129 129 132 507 540 540 543> 807 41<371.5 389.5 371.5 394> 850 42<259 279.5>
VStem: 86 53<212 690> 497 53<210 212 212 627 627 628> 569 38<733 736 733 736.5>
AnchorPoint: "Anchor-9" 549 664 basechar 0
AnchorPoint: "Anchor-7" 323 893 basechar 0
AnchorPoint: "Anchor-6" 319 0 basechar 0
LayerCount: 2
Fore
SplineSet
270 850 m 0
 248 850 232 844 215 823 c 0
 211 817 206 816 201 821 c 2
 188 832 l 2
 184 836 183 841 186 846 c 0
 208 878 236 892 268 892 c 0xdc
 294 892 312 880 330 869 c 0
 348 858 363 848 380 848 c 0
 399 848 417 854 434 878 c 0
 438 884 443 884 448 880 c 2
 459 870 l 2
 463 866 465 861 462 856 c 0
 443 822 408 807 380 807 c 0xec
 354 807 335 819 319 829 c 0
 301 841 289 850 270 850 c 0
597 743 m 2xde
 603 743 607 739 607 733 c 0xde
 603 693 581 664 553 647 c 0
 551 645 550 644 550 642 c 2
 550 212 l 2
 550 80 457 -8 318 -8 c 0
 179 -8 86 80 86 212 c 2
 86 690 l 2
 86 696 90 700 96 700 c 2
 129 700 l 2
 135 700 139 696 139 690 c 2
 139 210 l 2
 139 108 210 39 318 39 c 0
 425 39 497 108 497 210 c 2
 497 627 l 2
 497 629 496 630 494 631 c 0
 492 632 490 636 490 640 c 2
 490 654 l 2
 490 660 492 664 494 664 c 0
 496 664 497 666 497 668 c 2
 497 690 l 2
 497 696 501 700 507 700 c 2
 540 700 l 2
 546 700 550 698 550 695 c 0
 550 693 553 693 555 696 c 0xdc
 562 706 567 719 569 733 c 0
 569 740 573 743 579 743 c 2
 597 743 l 2xde
EndSplineSet
EndChar

StartChar: Uhungarumlaut
Encoding: 368 368 142
Width: 657
GlyphClass: 2
Flags: MW
HStem: -8 47<264 371.5 264 387.5> 680 20G<96 129 129 132 507 540 540 543> 767 129<227.5 324 231 324 295 391 295 416>
VStem: 86 53<212 690> 497 53<210 212 212 690>
AnchorPoint: "Anchor-9" 624 700 basechar 0
AnchorPoint: "Anchor-7" 318 700 basechar 0
AnchorPoint: "Anchor-6" 319 0 basechar 0
LayerCount: 2
Fore
SplineSet
231 767 m 2
 224 767 220 772 224 779 c 2
 283 889 l 2
 285 894 290 896 295 896 c 2
 324 896 l 2
 332 896 335 891 331 884 c 2
 270 774 l 2
 268 770 263 767 258 767 c 2
 231 767 l 2
391 767 m 2
 383 767 380 772 384 779 c 2
 444 889 l 2
 446 894 451 896 456 896 c 2
 483 896 l 2
 491 896 494 891 490 884 c 2
 428 774 l 2
 425 770 421 767 416 767 c 2
 391 767 l 2
318 -8 m 0
 179 -8 86 80 86 212 c 2
 86 690 l 2
 86 696 90 700 96 700 c 2
 129 700 l 2
 135 700 139 696 139 690 c 2
 139 210 l 2
 139 108 210 39 318 39 c 0
 425 39 497 108 497 210 c 2
 497 690 l 2
 497 696 501 700 507 700 c 2
 540 700 l 2
 546 700 550 696 550 690 c 2
 550 212 l 2
 550 80 457 -8 318 -8 c 0
EndSplineSet
Substitution2: "'c2sc' Capitals to Small Capitals in Latin lookup 19 subtable" uhungarumlaut.sc
Substitution2: "'aalt' Access All Alternates in Latin lookup 0 subtable" uhungarumlaut.sc
EndChar

StartChar: Umacron
Encoding: 362 362 143
Width: 657
GlyphClass: 2
Flags: MW
HStem: -8 47<264 371.5 264 387.5> 680 20G<96 129 129 132 507 540 540 543> 794 41<205 450 208 450>
VStem: 86 53<212 690> 497 53<210 212 212 690>
AnchorPoint: "Anchor-9" 624 700 basechar 0
AnchorPoint: "Anchor-7" 318 700 basechar 0
AnchorPoint: "Anchor-6" 319 0 basechar 0
LayerCount: 2
Fore
SplineSet
208 794 m 2
 202 794 198 798 198 804 c 2
 198 825 l 2
 198 831 202 835 208 835 c 2
 450 835 l 2
 456 835 460 831 460 825 c 2
 460 804 l 2
 460 798 456 794 450 794 c 2
 208 794 l 2
318 -8 m 0
 179 -8 86 80 86 212 c 2
 86 690 l 2
 86 696 90 700 96 700 c 2
 129 700 l 2
 135 700 139 696 139 690 c 2
 139 210 l 2
 139 108 210 39 318 39 c 0
 425 39 497 108 497 210 c 2
 497 690 l 2
 497 696 501 700 507 700 c 2
 540 700 l 2
 546 700 550 696 550 690 c 2
 550 212 l 2
 550 80 457 -8 318 -8 c 0
EndSplineSet
Substitution2: "'c2sc' Capitals to Small Capitals in Latin lookup 19 subtable" umacron.sc
Substitution2: "'aalt' Access All Alternates in Latin lookup 0 subtable" umacron.sc
EndChar

StartChar: Uogonek
Encoding: 370 370 144
Width: 657
GlyphClass: 2
Flags: MW
HStem: -177.64 34.98 -7 46<294 295.5 344 345> 680 20G<96 129 129 132 507 540 540 543>
VStem: 86 53<212 690> 252.52 42.48 497 53<210 212 212 690>
AnchorPoint: "Anchor-9" 624 700 basechar 0
AnchorPoint: "Anchor-7" 318 700 basechar 0
AnchorPoint: "Anchor-6" 319 0 basechar 0
LayerCount: 2
Fore
SplineSet
497 690 m 2
 497 696 501 700 507 700 c 2
 540 700 l 2
 546 700 550 696 550 690 c 2
 550 212 l 2
 550 89 469 4 345 -7 c 0
 343 -7 341 -8 340 -9 c 0
 310 -38 288 -71 295 -104 c 0
 301 -139 334 -148 368 -140 c 0
 374 -138 379 -141 380 -147 c 2
 383 -161 l 2
 384 -168 382 -172 376 -173 c 0
 332 -184 269 -179 255 -119 c 0
 247 -85 257 -48 295 -11 c 0
 298 -9 297 -7 294 -7 c 0
 168 3 86 88 86 212 c 2
 86 690 l 2
 86 696 90 700 96 700 c 2
 129 700 l 2
 135 700 139 696 139 690 c 2
 139 210 l 2
 139 108 210 39 318 39 c 0
 425 39 497 108 497 210 c 2
 497 690 l 2
EndSplineSet
Substitution2: "'c2sc' Capitals to Small Capitals in Latin lookup 19 subtable" uogonek.sc
Substitution2: "'aalt' Access All Alternates in Latin lookup 0 subtable" uogonek.sc
EndChar

StartChar: Uring
Encoding: 366 366 145
Width: 657
GlyphClass: 2
Flags: MW
HStem: -8 47<264 371.5 264 387.5> 680 20G<96 129 129 132 507 540 540 543> 779 35<309 347 309 357.5> 953 34<309 347>
VStem: 86 53<212 690> 222 36<863.5 903 863.5 912> 398 36<863 903> 497 53<210 212 212 690>
AnchorPoint: "Anchor-9" 624 700 basechar 0
AnchorPoint: "Anchor-7" 318 700 basechar 0
AnchorPoint: "Anchor-6" 319 0 basechar 0
LayerCount: 2
Fore
SplineSet
328 779 m 0
 269 779 222 825 222 883 c 0
 222 941 269 987 328 987 c 0
 387 987 434 941 434 883 c 0
 434 825 387 779 328 779 c 0
328 814 m 0
 366 814 398 843 398 883 c 0
 398 923 366 953 328 953 c 0
 290 953 258 923 258 883 c 0
 258 844 290 814 328 814 c 0
318 -8 m 0
 179 -8 86 80 86 212 c 2
 86 690 l 2
 86 696 90 700 96 700 c 2
 129 700 l 2
 135 700 139 696 139 690 c 2
 139 210 l 2
 139 108 210 39 318 39 c 0
 425 39 497 108 497 210 c 2
 497 690 l 2
 497 696 501 700 507 700 c 2
 540 700 l 2
 546 700 550 696 550 690 c 2
 550 212 l 2
 550 80 457 -8 318 -8 c 0
EndSplineSet
Substitution2: "'c2sc' Capitals to Small Capitals in Latin lookup 19 subtable" uring.sc
Substitution2: "'aalt' Access All Alternates in Latin lookup 0 subtable" uring.sc
EndChar

StartChar: Utilde
Encoding: 360 360 146
Width: 636
GlyphClass: 2
Flags: MW
HStem: -8 47<264 371.5 264 387.5> 680 20G<96 129 129 132 507 540 540 543> 807 41<371.5 389.5 371.5 393.5> 850 42<259 279.5>
VStem: 86 53<212 690> 497 53<210 212 212 690>
AnchorPoint: "Anchor-9" 624 700 basechar 0
AnchorPoint: "Anchor-7" 323 893 basechar 0
AnchorPoint: "Anchor-6" 319 0 basechar 0
LayerCount: 2
Fore
SplineSet
380 807 m 0
 354 807 335 819 319 829 c 0
 301 841 289 850 270 850 c 0
 248 850 232 844 215 823 c 0
 211 817 206 816 201 821 c 2
 188 832 l 2
 184 836 183 841 186 846 c 0
 208 878 236 892 268 892 c 0xdc
 294 892 312 880 330 869 c 0
 348 858 363 848 380 848 c 0
 399 848 417 854 434 878 c 0
 438 884 443 884 448 880 c 2
 459 870 l 2
 463 866 465 860 460 853 c 0
 441 821 407 807 380 807 c 0
318 -8 m 0xdc
 179 -8 86 80 86 212 c 2
 86 690 l 2
 86 696 90 700 96 700 c 2
 129 700 l 2
 135 700 139 696 139 690 c 2
 139 210 l 2
 139 108 210 39 318 39 c 0
 425 39 497 108 497 210 c 2
 497 690 l 2
 497 696 501 700 507 700 c 2
 540 700 l 2
 546 700 550 696 550 690 c 2
 550 212 l 2
 550 80 457 -8 318 -8 c 0xdc
EndSplineSet
EndChar

StartChar: V
Encoding: 86 86 147
Width: 562
Flags: MW
HStem: 0 21G<260.5 263 263 299> 0 75.75 680 20G<38 72 72 74.5 492 525 525 528.5>
VStem: 29.41 504.16
LayerCount: 2
Fore
SplineSet
480 692 m 2xb0
 482 697 487 700 492 700 c 2
 525 700 l 2
 532 700 535 696 533 689 c 2
 311 8 l 2
 309 3 304 0 299 0 c 2
 263 0 l 2
 258 0 253 3 251 8 c 2
 30 689 l 2
 28 696 31 700 38 700 c 2
 72 700 l 2
 77 700 82 697 84 692 c 2
 279 78 l 2
 280 75 284 75 285 78 c 2x70
 480 692 l 2xb0
EndSplineSet
Substitution2: "'c2sc' Capitals to Small Capitals in Latin lookup 19 subtable" v.sc
Substitution2: "'aalt' Access All Alternates in Latin lookup 0 subtable" v.sc
EndChar

StartChar: W
Encoding: 87 87 148
Width: 878
GlyphClass: 2
Flags: MW
HStem: 0 21G<234 237 237 269 606 609 609 644> 0 104.75 607.25 92.75 680 20G<39 73 73 76 420 456 456 459 809 841 841 844.5>
VStem: 29.57 820.84
AnchorPoint: "Anchor-7" 439 700 basechar 0
LayerCount: 2
Fore
SplineSet
798 692 m 2x98
 800 697 803 700 809 700 c 2
 841 700 l 2
 848 700 852 696 850 689 c 2
 655 8 l 2
 653 3 650 0 644 0 c 2
 609 0 l 2
 603 0 599 4 598 9 c 2
 440 605 l 2
 439 608 437 608 436 605 c 2xa8
 280 9 l 2
 279 4 275 0 269 0 c 2
 237 0 l 2
 231 0 228 3 226 8 c 2
 30 689 l 2
 28 696 32 700 39 700 c 2
 73 700 l 2
 79 700 82 697 84 692 c 2
 250 107 l 2
 251 104 254 104 255 107 c 2
 409 691 l 2
 410 696 414 700 420 700 c 2
 456 700 l 2
 462 700 466 696 467 691 c 2
 626 107 l 2
 627 104 630 104 631 107 c 2x58
 798 692 l 2x98
EndSplineSet
Substitution2: "'c2sc' Capitals to Small Capitals in Latin lookup 19 subtable" w.sc
Substitution2: "'aalt' Access All Alternates in Latin lookup 0 subtable" w.sc
EndChar

StartChar: Wacute
Encoding: 7810 7810 149
Width: 884
GlyphClass: 2
Flags: MW
HStem: 0 21G<234 237 237 269 606 609 609 644> 0 104.75 607.25 92.75 680 20G<39 73 73 76 420 456 456 459 809 841 841 844.5> 767 129<411 509 415 509>
VStem: 29.57 820.84
AnchorPoint: "Anchor-7" 464 896 basechar 0
LayerCount: 2
Fore
SplineSet
509 896 m 2x9c
 517 896 520 891 516 884 c 2
 449 774 l 2
 446 770 442 767 437 767 c 2
 415 767 l 2
 407 767 404 772 408 779 c 2
 468 889 l 2
 470 894 475 896 480 896 c 2
 509 896 l 2x9c
798 692 m 2
 800 697 803 700 809 700 c 2
 841 700 l 2
 848 700 852 696 850 689 c 2
 655 8 l 2
 653 3 650 0 644 0 c 2
 609 0 l 2
 603 0 599 4 598 9 c 2
 440 605 l 2
 439 608 437 608 436 605 c 2xac
 280 9 l 2
 279 4 275 0 269 0 c 2
 237 0 l 2
 231 0 228 3 226 8 c 2
 30 689 l 2
 28 696 32 700 39 700 c 2
 73 700 l 2
 79 700 82 697 84 692 c 2
 250 107 l 2
 251 104 254 104 255 107 c 2
 409 691 l 2
 410 696 414 700 420 700 c 2
 456 700 l 2
 462 700 466 696 467 691 c 2
 626 107 l 2
 627 104 630 104 631 107 c 2x5c
 798 692 l 2
EndSplineSet
Substitution2: "'c2sc' Capitals to Small Capitals in Latin lookup 19 subtable" wacute.sc
Substitution2: "'aalt' Access All Alternates in Latin lookup 0 subtable" wacute.sc
EndChar

StartChar: Wcircumflex
Encoding: 372 372 150
Width: 884
GlyphClass: 2
Flags: MW
HStem: 0 21G<234 237 237 269 606 609 609 644> 0 104.75 607.25 92.75 680 20G<39 73 73 76 420 456 456 459 809 841 841 844.5> 771 125<328 459 332 459 421 521 421 548>
VStem: 29.57 820.84
AnchorPoint: "Anchor-7" 440 896 basechar 0
LayerCount: 2
Fore
SplineSet
444 863 m 2x9c
 443 865 440 866 438 863 c 2
 372 777 l 2
 369 772 364 771 359 771 c 2
 332 771 l 2
 324 771 321 777 326 783 c 2
 408 890 l 2
 411 895 416 896 421 896 c 2
 459 896 l 2
 464 896 469 895 472 890 c 2
 554 783 l 2
 559 777 556 771 548 771 c 2
 521 771 l 2
 516 771 511 772 508 777 c 2
 444 863 l 2x9c
798 692 m 2
 800 697 803 700 809 700 c 2
 841 700 l 2
 848 700 852 696 850 689 c 2
 655 8 l 2
 653 3 650 0 644 0 c 2
 609 0 l 2
 603 0 599 4 598 9 c 2
 440 605 l 2
 439 608 437 608 436 605 c 2xac
 280 9 l 2
 279 4 275 0 269 0 c 2
 237 0 l 2
 231 0 228 3 226 8 c 2
 30 689 l 2
 28 696 32 700 39 700 c 2
 73 700 l 2
 79 700 82 697 84 692 c 2
 250 107 l 2
 251 104 254 104 255 107 c 2
 409 691 l 2
 410 696 414 700 420 700 c 2
 456 700 l 2
 462 700 466 696 467 691 c 2
 626 107 l 2
 627 104 630 104 631 107 c 2x5c
 798 692 l 2
EndSplineSet
Substitution2: "'c2sc' Capitals to Small Capitals in Latin lookup 19 subtable" wcircumflex.sc
Substitution2: "'aalt' Access All Alternates in Latin lookup 0 subtable" wcircumflex.sc
EndChar

StartChar: Wdieresis
Encoding: 7812 7812 151
Width: 884
GlyphClass: 2
Flags: MW
HStem: 0 21G<234 237 237 269 606 609 609 644> 0 104.75 607.25 92.75 680 20G<39 73 73 76 420 456 456 459 809 841 841 844.5> 803 100<344.5 373 508.5 537.5>
VStem: 309 100<838.5 867.5> 473 100<838.5 867.5>
AnchorPoint: "Anchor-7" 439 700 basechar 0
LayerCount: 2
Fore
SplineSet
359 803 m 0x9e
 330 803 309 824 309 853 c 0
 309 882 330 903 359 903 c 0
 388 903 409 882 409 853 c 0
 409 824 387 803 359 803 c 0x9e
523 803 m 0
 494 803 473 824 473 853 c 0
 473 882 494 903 523 903 c 0
 552 903 573 882 573 853 c 0
 573 824 552 803 523 803 c 0
798 692 m 2
 800 697 803 700 809 700 c 2
 841 700 l 2
 848 700 852 696 850 689 c 2
 655 8 l 2
 653 3 650 0 644 0 c 2
 609 0 l 2
 603 0 599 4 598 9 c 2
 440 605 l 2
 439 608 437 608 436 605 c 2xae
 280 9 l 2
 279 4 275 0 269 0 c 2
 237 0 l 2
 231 0 228 3 226 8 c 2
 30 689 l 2
 28 696 32 700 39 700 c 2
 73 700 l 2
 79 700 82 697 84 692 c 2
 250 107 l 2
 251 104 254 104 255 107 c 2
 409 691 l 2
 410 696 414 700 420 700 c 2
 456 700 l 2
 462 700 466 696 467 691 c 2
 626 107 l 2
 627 104 630 104 631 107 c 2x5e
 798 692 l 2
EndSplineSet
Substitution2: "'c2sc' Capitals to Small Capitals in Latin lookup 19 subtable" wdieresis.sc
Substitution2: "'aalt' Access All Alternates in Latin lookup 0 subtable" wdieresis.sc
EndChar

StartChar: Wgrave
Encoding: 7808 7808 152
Width: 884
GlyphClass: 2
Flags: MW
HStem: 0 21G<234 237 237 269 606 609 609 644> 0 104.75 607.25 92.75 680 20G<39 73 73 76 420 456 456 459 809 841 841 844.5> 767 129<360 432 360 454>
VStem: 29.57 820.84
AnchorPoint: "Anchor-7" 398 896 basechar 0
LayerCount: 2
Fore
SplineSet
461 779 m 2x9c
 465 772 462 767 454 767 c 2
 432 767 l 2
 427 767 423 770 420 774 c 2
 353 884 l 2
 349 891 352 896 360 896 c 2
 389 896 l 2
 394 896 399 894 401 889 c 2
 461 779 l 2x9c
798 692 m 2
 800 697 803 700 809 700 c 2
 841 700 l 2
 848 700 852 696 850 689 c 2
 655 8 l 2
 653 3 650 0 644 0 c 2
 609 0 l 2
 603 0 599 4 598 9 c 2
 440 605 l 2
 439 608 437 608 436 605 c 2xac
 280 9 l 2
 279 4 275 0 269 0 c 2
 237 0 l 2
 231 0 228 3 226 8 c 2
 30 689 l 2
 28 696 32 700 39 700 c 2
 73 700 l 2
 79 700 82 697 84 692 c 2
 250 107 l 2
 251 104 254 104 255 107 c 2
 409 691 l 2
 410 696 414 700 420 700 c 2
 456 700 l 2
 462 700 466 696 467 691 c 2
 626 107 l 2
 627 104 630 104 631 107 c 2x5c
 798 692 l 2
EndSplineSet
Substitution2: "'c2sc' Capitals to Small Capitals in Latin lookup 19 subtable" wgrave.sc
Substitution2: "'aalt' Access All Alternates in Latin lookup 0 subtable" wgrave.sc
EndChar

StartChar: X
Encoding: 88 88 153
Width: 556
Flags: MW
HStem: 0 21G<34 38 38 74 480.5 483 483 519> 680 20G<38 74 74 76.5 482 519 519 523>
VStem: 30.12 496.75
LayerCount: 2
Fore
SplineSet
38 0 m 2
 30 0 28 5 32 12 c 2
 246 347 l 2
 247 349 247 351 246 353 c 2
 32 688 l 2
 28 695 30 700 38 700 c 2
 74 700 l 2
 79 700 83 697 86 693 c 2
 276 395 l 2
 277 393 281 393 282 395 c 2
 470 693 l 2
 473 697 477 700 482 700 c 2
 519 700 l 2
 527 700 529 695 525 688 c 2
 311 352 l 2
 310 350 310 348 311 346 c 2
 525 12 l 2
 529 5 527 0 519 0 c 2
 483 0 l 2
 478 0 474 3 471 7 c 2
 282 304 l 2
 281 306 277 306 276 304 c 2
 86 7 l 2
 83 3 79 0 74 0 c 2
 38 0 l 2
EndSplineSet
Substitution2: "'c2sc' Capitals to Small Capitals in Latin lookup 19 subtable" x.sc
Substitution2: "'aalt' Access All Alternates in Latin lookup 0 subtable" x.sc
EndChar

StartChar: Y
Encoding: 89 89 154
Width: 540
GlyphClass: 2
Flags: MW
HStem: 0 21G<251 254 254 286> 680 20G<41 75 75 77.5 465 499 499 503>
VStem: 244 52<10 318>
AnchorPoint: "Anchor-7" 270 699 basechar 0
AnchorPoint: "Anchor-6" 270 0 basechar 0
LayerCount: 2
Fore
SplineSet
254 0 m 2
 248 0 244 4 244 10 c 2
 244 318 l 2
 244 320 244 322 243 323 c 2
 34 688 l 2
 30 695 33 700 41 700 c 2
 75 700 l 2
 80 700 84 697 87 693 c 2
 267 379 l 2
 268 377 272 377 273 379 c 2
 453 693 l 2
 456 697 460 700 465 700 c 2
 499 700 l 2
 507 700 510 695 506 688 c 2
 297 323 l 2
 296 322 296 320 296 318 c 2
 296 10 l 2
 296 4 292 0 286 0 c 2
 254 0 l 2
EndSplineSet
Substitution2: "'c2sc' Capitals to Small Capitals in Latin lookup 19 subtable" y.sc
Substitution2: "'aalt' Access All Alternates in Latin lookup 0 subtable" y.sc
EndChar

StartChar: Yacute
Encoding: 221 221 155
Width: 548
GlyphClass: 2
Flags: MW
HStem: 0 21G<251 254 254 286> 680 20G<41 75 75 77.5 465 499 499 503> 766 129<244 343 248 343>
VStem: 244 52<10 318>
AnchorPoint: "Anchor-7" 297 895 basechar 0
AnchorPoint: "Anchor-6" 270 0 basechar 0
LayerCount: 2
Fore
SplineSet
248 766 m 2
 240 766 237 771 241 778 c 2
 301 888 l 2
 303 893 308 895 313 895 c 2
 343 895 l 2
 351 895 354 890 350 883 c 2
 283 773 l 2
 280 769 276 766 271 766 c 2
 248 766 l 2
254 0 m 2
 248 0 244 4 244 10 c 2
 244 318 l 2
 244 320 244 322 243 323 c 2
 34 688 l 2
 30 695 33 700 41 700 c 2
 75 700 l 2
 80 700 84 697 87 693 c 2
 267 379 l 2
 268 377 272 377 273 379 c 2
 453 693 l 2
 456 697 460 700 465 700 c 2
 499 700 l 2
 507 700 510 695 506 688 c 2
 297 323 l 2
 296 322 296 320 296 318 c 2
 296 10 l 2
 296 4 292 0 286 0 c 2
 254 0 l 2
EndSplineSet
Substitution2: "'c2sc' Capitals to Small Capitals in Latin lookup 19 subtable" yacute.sc
Substitution2: "'aalt' Access All Alternates in Latin lookup 0 subtable" yacute.sc
EndChar

StartChar: Ycircumflex
Encoding: 374 374 156
Width: 548
GlyphClass: 2
Flags: MW
HStem: 0 21G<251 254 254 286> 680 20G<41 75 75 77.5 465 499 499 503> 770 125<162 292 166 292 254 355 254 381>
VStem: 244 52<10 318>
AnchorPoint: "Anchor-7" 274 895 basechar 0
AnchorPoint: "Anchor-6" 270 0 basechar 0
LayerCount: 2
Fore
SplineSet
166 770 m 2
 158 770 155 776 160 782 c 2
 241 889 l 2
 244 894 249 895 254 895 c 2
 292 895 l 2
 297 895 302 894 305 889 c 2
 387 782 l 2
 392 776 389 770 381 770 c 2
 355 770 l 2
 350 770 345 771 342 776 c 2
 277 863 l 2
 276 865 273 866 271 863 c 2
 205 776 l 2
 202 771 197 770 192 770 c 2
 166 770 l 2
254 0 m 2
 248 0 244 4 244 10 c 2
 244 318 l 2
 244 320 244 322 243 323 c 2
 34 688 l 2
 30 695 33 700 41 700 c 2
 75 700 l 2
 80 700 84 697 87 693 c 2
 267 379 l 2
 268 377 272 377 273 379 c 2
 453 693 l 2
 456 697 460 700 465 700 c 2
 499 700 l 2
 507 700 510 695 506 688 c 2
 297 323 l 2
 296 322 296 320 296 318 c 2
 296 10 l 2
 296 4 292 0 286 0 c 2
 254 0 l 2
EndSplineSet
Substitution2: "'c2sc' Capitals to Small Capitals in Latin lookup 19 subtable" ycircumflex.sc
Substitution2: "'aalt' Access All Alternates in Latin lookup 0 subtable" ycircumflex.sc
EndChar

StartChar: Ydieresis
Encoding: 376 376 157
Width: 548
GlyphClass: 2
Flags: MW
HStem: 0 21G<251 254 254 286> 680 20G<41 75 75 77.5 465 499 499 503> 802 100<177.5 206.5 341.5 370.5>
VStem: 142 100<837.5 866.5> 244 52<10 318> 306 100<837.5 866.5>
AnchorPoint: "Anchor-7" 270 699 basechar 0
AnchorPoint: "Anchor-6" 270 0 basechar 0
LayerCount: 2
Fore
SplineSet
192 802 m 0
 163 802 142 823 142 852 c 0
 142 881 163 902 192 902 c 0
 221 902 242 881 242 852 c 0
 242 823 221 802 192 802 c 0
356 802 m 0
 327 802 306 823 306 852 c 0
 306 881 327 902 356 902 c 0
 385 902 406 881 406 852 c 0
 406 823 385 802 356 802 c 0
254 0 m 2xe8
 248 0 244 4 244 10 c 2
 244 318 l 2
 244 320 244 322 243 323 c 2
 34 688 l 2
 30 695 33 700 41 700 c 2
 75 700 l 2
 80 700 84 697 87 693 c 2
 267 379 l 2
 268 377 272 377 273 379 c 2
 453 693 l 2
 456 697 460 700 465 700 c 2
 499 700 l 2
 507 700 510 695 506 688 c 2
 297 323 l 2
 296 322 296 320 296 318 c 2
 296 10 l 2
 296 4 292 0 286 0 c 2
 254 0 l 2xe8
EndSplineSet
Substitution2: "'c2sc' Capitals to Small Capitals in Latin lookup 19 subtable" ydieresis.sc
Substitution2: "'aalt' Access All Alternates in Latin lookup 0 subtable" ydieresis.sc
EndChar

StartChar: uni1EF4
Encoding: 7924 7924 158
Width: 540
GlyphClass: 2
Flags: MW
HStem: -174 94<257 284.5> 0 21G<251 254 254 286> 680 20G<41 75 75 77.5 465 499 499 503>
VStem: 224 94<-140.5 -113.5> 244 52<10 318>
AnchorPoint: "Anchor-7" 270 699 basechar 0
AnchorPoint: "Anchor-6" 270 -175 basechar 0
LayerCount: 2
Fore
SplineSet
254 0 m 2xe8
 248 0 244 4 244 10 c 2
 244 318 l 2
 244 320 244 322 243 323 c 2
 34 688 l 2
 30 695 33 700 41 700 c 2
 75 700 l 2
 80 700 84 697 87 693 c 2
 267 379 l 2
 268 377 272 377 273 379 c 2
 453 693 l 2
 456 697 460 700 465 700 c 2
 499 700 l 2
 507 700 510 695 506 688 c 2
 297 323 l 2
 296 322 296 320 296 318 c 2
 296 10 l 2
 296 4 292 0 286 0 c 2
 254 0 l 2xe8
271 -174 m 0xf0
 243 -174 224 -154 224 -127 c 0
 224 -100 243 -80 271 -80 c 0
 298 -80 318 -100 318 -127 c 0
 318 -154 298 -174 271 -174 c 0xf0
EndSplineSet
EndChar

StartChar: Ygrave
Encoding: 7922 7922 159
Width: 548
GlyphClass: 2
Flags: MW
HStem: 0 21G<251 254 254 286> 680 20G<41 75 75 77.5 465 499 499 503> 766 129<193 265 193 288>
VStem: 244 52<10 318>
AnchorPoint: "Anchor-7" 231 895 basechar 0
AnchorPoint: "Anchor-6" 270 0 basechar 0
LayerCount: 2
Fore
SplineSet
295 778 m 2
 299 771 296 766 288 766 c 2
 265 766 l 2
 260 766 256 769 253 773 c 2
 186 883 l 2
 182 890 185 895 193 895 c 2
 222 895 l 2
 227 895 232 892 234 888 c 2
 295 778 l 2
254 0 m 2
 248 0 244 4 244 10 c 2
 244 318 l 2
 244 320 244 322 243 323 c 2
 34 688 l 2
 30 695 33 700 41 700 c 2
 75 700 l 2
 80 700 84 697 87 693 c 2
 267 379 l 2
 268 377 272 377 273 379 c 2
 453 693 l 2
 456 697 460 700 465 700 c 2
 499 700 l 2
 507 700 510 695 506 688 c 2
 297 323 l 2
 296 322 296 320 296 318 c 2
 296 10 l 2
 296 4 292 0 286 0 c 2
 254 0 l 2
EndSplineSet
Substitution2: "'c2sc' Capitals to Small Capitals in Latin lookup 19 subtable" ygrave.sc
Substitution2: "'aalt' Access All Alternates in Latin lookup 0 subtable" ygrave.sc
EndChar

StartChar: uni1EF6
Encoding: 7926 7926 160
Width: 540
GlyphClass: 2
Flags: MW
HStem: 0 21G<251 254 254 286> 680 20G<41 75 75 77.5 465 499 499 503> 893 33<260.5 286>
VStem: 244 52<10 318> 319 35<833.5 864.5>
AnchorPoint: "Anchor-7" 270 924 basechar 0
AnchorPoint: "Anchor-6" 270 0 basechar 0
LayerCount: 2
Fore
SplineSet
265 747 m 2
 259 749 256 754 259 760 c 0
 279 808 319 813 319 854 c 0
 319 875 298 893 274 893 c 0
 247 893 235 883 218 857 c 0
 214 851 209 850 204 854 c 2
 193 861 l 2
 187 865 187 869 190 875 c 0
 213 909 231 926 275 926 c 0
 321 926 354 896 354 854 c 0
 354 804 307 785 289 753 c 0
 288 752 288 750 287 749 c 0
 285 745 281 743 276 744 c 2
 265 747 l 2
254 0 m 2xf0
 248 0 244 4 244 10 c 2
 244 318 l 2
 244 320 244 322 243 323 c 2
 34 688 l 2
 30 695 33 700 41 700 c 2
 75 700 l 2
 80 700 84 697 87 693 c 2
 267 379 l 2
 268 377 272 377 273 379 c 2
 453 693 l 2
 456 697 460 700 465 700 c 2
 499 700 l 2
 507 700 510 695 506 688 c 2
 297 323 l 2
 296 322 296 320 296 318 c 2
 296 10 l 2
 296 4 292 0 286 0 c 2
 254 0 l 2xf0
EndSplineSet
EndChar

StartChar: uni1EF8
Encoding: 7928 7928 161
Width: 540
GlyphClass: 2
Flags: MW
HStem: 0 21G<251 254 254 286> 680 20G<41 75 75 77.5 465 499 499 503> 807 41<324.5 342.5 324.5 346.5> 850 42<212 232.5>
VStem: 244 52<10 318>
AnchorPoint: "Anchor-7" 276 893 basechar 0
AnchorPoint: "Anchor-6" 270 0 basechar 0
LayerCount: 2
Fore
SplineSet
333 807 m 0
 307 807 288 819 272 829 c 0
 254 841 242 850 223 850 c 0
 201 850 185 844 168 823 c 0
 164 817 159 816 154 821 c 2
 141 832 l 2
 137 836 136 841 139 846 c 0
 161 878 189 892 221 892 c 0xd8
 247 892 265 880 283 869 c 0
 301 858 316 848 333 848 c 0
 352 848 370 854 387 878 c 0
 391 884 396 884 401 880 c 2
 412 870 l 2
 416 866 418 860 413 853 c 0
 394 821 360 807 333 807 c 0
254 0 m 2xd8
 248 0 244 4 244 10 c 2
 244 318 l 2
 244 320 244 322 243 323 c 2
 34 688 l 2
 30 695 33 700 41 700 c 2
 75 700 l 2
 80 700 84 697 87 693 c 2
 267 379 l 2
 268 377 272 377 273 379 c 2
 453 693 l 2
 456 697 460 700 465 700 c 2
 499 700 l 2
 507 700 510 695 506 688 c 2
 297 323 l 2
 296 322 296 320 296 318 c 2
 296 10 l 2
 296 4 292 0 286 0 c 2
 254 0 l 2xd8
EndSplineSet
EndChar

StartChar: Z
Encoding: 90 90 162
Width: 525
GlyphClass: 2
Flags: MW
HStem: 0 47<106 473 106 473> 653 47<49 473 52 419>
VStem: 42 441<10 37 7 42 7 44 663 690>
AnchorPoint: "Anchor-7" 258 700 basechar 0
LayerCount: 2
Fore
SplineSet
52 0 m 2
 46 0 42 4 42 10 c 2
 42 42 l 2
 42 46 44 51 46 55 c 2
 422 648 l 2
 424 650 422 653 419 653 c 2
 52 653 l 2
 46 653 42 657 42 663 c 2
 42 690 l 2
 42 696 46 700 52 700 c 2
 473 700 l 2
 479 700 483 696 483 690 c 2
 483 658 l 2
 483 654 481 649 479 645 c 2
 103 52 l 2
 101 50 103 47 106 47 c 2
 473 47 l 2
 479 47 483 43 483 37 c 2
 483 10 l 2
 483 4 479 0 473 0 c 2
 52 0 l 2
EndSplineSet
Substitution2: "'c2sc' Capitals to Small Capitals in Latin lookup 19 subtable" z.sc
Substitution2: "'aalt' Access All Alternates in Latin lookup 0 subtable" z.sc
EndChar

StartChar: Zacute
Encoding: 377 377 163
Width: 549
GlyphClass: 2
Flags: MW
HStem: 0 47<106 473 106 473> 653 47<49 473 52 419> 767 129<236 335 240 335>
VStem: 42 441<10 37 7 42 7 44 663 690>
AnchorPoint: "Anchor-7" 290 896 basechar 0
LayerCount: 2
Fore
SplineSet
240 767 m 2
 232 767 229 772 233 779 c 2
 294 889 l 2
 296 893 301 896 306 896 c 2
 335 896 l 2
 343 896 346 891 342 884 c 2
 275 774 l 2
 272 770 268 767 263 767 c 2
 240 767 l 2
52 0 m 2
 46 0 42 4 42 10 c 2
 42 42 l 2
 42 46 44 51 46 55 c 2
 422 648 l 2
 424 650 422 653 419 653 c 2
 52 653 l 2
 46 653 42 657 42 663 c 2
 42 690 l 2
 42 696 46 700 52 700 c 2
 473 700 l 2
 479 700 483 696 483 690 c 2
 483 658 l 2
 483 654 481 649 479 645 c 2
 103 52 l 2
 101 50 103 47 106 47 c 2
 473 47 l 2
 479 47 483 43 483 37 c 2
 483 10 l 2
 483 4 479 0 473 0 c 2
 52 0 l 2
EndSplineSet
Substitution2: "'c2sc' Capitals to Small Capitals in Latin lookup 19 subtable" zacute.sc
Substitution2: "'aalt' Access All Alternates in Latin lookup 0 subtable" zacute.sc
EndChar

StartChar: Zcaron
Encoding: 381 381 164
Width: 549
GlyphClass: 2
Flags: MW
HStem: 0 47<106 473 106 473> 653 47<49 473 52 419> 771 125<160 248 160 286>
VStem: 42 441<10 37 7 42 7 44 663 690>
AnchorPoint: "Anchor-7" 258 700 basechar 0
LayerCount: 2
Fore
SplineSet
154 884 m 2
 149 890 152 896 160 896 c 2
 186 896 l 2
 191 896 196 895 199 890 c 2
 265 803 l 2
 267 800 270 801 271 803 c 2
 336 890 l 2
 339 895 344 896 349 896 c 2
 375 896 l 2
 383 896 386 890 381 884 c 2
 299 777 l 2
 296 772 291 771 286 771 c 2
 248 771 l 2
 243 771 238 772 235 777 c 2
 154 884 l 2
52 0 m 2
 46 0 42 4 42 10 c 2
 42 42 l 2
 42 46 44 51 46 55 c 2
 422 648 l 2
 424 650 422 653 419 653 c 2
 52 653 l 2
 46 653 42 657 42 663 c 2
 42 690 l 2
 42 696 46 700 52 700 c 2
 473 700 l 2
 479 700 483 696 483 690 c 2
 483 658 l 2
 483 654 481 649 479 645 c 2
 103 52 l 2
 101 50 103 47 106 47 c 2
 473 47 l 2
 479 47 483 43 483 37 c 2
 483 10 l 2
 483 4 479 0 473 0 c 2
 52 0 l 2
EndSplineSet
Substitution2: "'c2sc' Capitals to Small Capitals in Latin lookup 19 subtable" zcaron.sc
Substitution2: "'aalt' Access All Alternates in Latin lookup 0 subtable" zcaron.sc
EndChar

StartChar: Zdotaccent
Encoding: 379 379 165
Width: 549
GlyphClass: 2
Flags: MW
HStem: 0 47<106 473 106 473> 653 47<49 473 52 419> 801 100<251.5 280.5>
VStem: 216 100<836.5 865.5>
AnchorPoint: "Anchor-7" 258 700 basechar 0
LayerCount: 2
Fore
SplineSet
266 801 m 0
 237 801 216 822 216 851 c 0
 216 880 237 901 266 901 c 0
 295 901 316 880 316 851 c 0
 316 822 295 801 266 801 c 0
52 0 m 2
 46 0 42 4 42 10 c 2
 42 42 l 2
 42 46 44 51 46 55 c 2
 422 648 l 2
 424 650 422 653 419 653 c 2
 52 653 l 2
 46 653 42 657 42 663 c 2
 42 690 l 2
 42 696 46 700 52 700 c 2
 473 700 l 2
 479 700 483 696 483 690 c 2
 483 658 l 2
 483 654 481 649 479 645 c 2
 103 52 l 2
 101 50 103 47 106 47 c 2
 473 47 l 2
 479 47 483 43 483 37 c 2
 483 10 l 2
 483 4 479 0 473 0 c 2
 52 0 l 2
EndSplineSet
Substitution2: "'c2sc' Capitals to Small Capitals in Latin lookup 19 subtable" zdotaccent.sc
Substitution2: "'aalt' Access All Alternates in Latin lookup 0 subtable" zdotaccent.sc
EndChar

StartChar: uni0122
Encoding: 290 290 166
Width: 613
GlyphClass: 2
Flags: MW
HStem: -203 21G<248 252 252 274> -203 129<248 346 252 346> -8 47<238 343 238 358.5> 303 47<301 507 304 460> 661 47<237 342.5>
VStem: 61 53<206 494 494 496> 464 53<198 210 210 299 299 300 486 499 499 500>
AnchorPoint: "Anchor-7" 288 700 basechar 0
AnchorPoint: "Anchor-6" 288 -8 basechar 0
LayerCount: 2
Fore
SplineSet
290 -8 m 0xbe
 152 -8 61 78 61 206 c 2
 61 494 l 2
 61 623 152 708 290 708 c 0
 427 708 517 622 517 500 c 2
 517 486 l 2
 517 480 513 476 507 476 c 2
 474 476 l 2
 468 476 464 480 464 486 c 2
 464 499 l 2
 464 595 395 661 290 661 c 0
 184 661 114 595 114 496 c 2
 114 204 l 2
 114 105 185 39 291 39 c 0
 395 39 464 101 464 198 c 2
 464 299 l 2
 464 301 462 303 460 303 c 2
 304 303 l 2
 298 303 294 307 294 313 c 2
 294 340 l 2
 294 346 298 350 304 350 c 2
 507 350 l 2
 513 350 517 346 517 340 c 2
 517 210 l 2
 517 74 427 -8 290 -8 c 0xbe
252 -203 m 2
 244 -203 241 -198 245 -191 c 2
 305 -81 l 2
 307 -76 312 -74 317 -74 c 2
 346 -74 l 2
 354 -74 357 -79 353 -86 c 2x7e
 286 -196 l 2
 283 -200 279 -203 274 -203 c 2
 252 -203 l 2
EndSplineSet
EndChar

StartChar: uni0136
Encoding: 310 310 167
Width: 606
GlyphClass: 2
Flags: MW
HStem: 0 21G<98 101 101 134 516.5 519 519 558> 680 20G<101 134 134 137 498 535 535 539>
VStem: 91 53<10 258 335.5 337 337 690>
AnchorPoint: "Anchor-6" 311 0 basechar 0
LayerCount: 2
Fore
SplineSet
101 0 m 2
 95 0 91 4 91 10 c 2
 91 690 l 2
 91 696 95 700 101 700 c 2
 134 700 l 2
 140 700 144 696 144 690 c 2
 144 337 l 2
 144 334 147 332 149 335 c 2
 486 695 l 2
 489 698 493 700 498 700 c 2
 535 700 l 2
 543 700 547 695 541 688 c 2
 291 413 l 2
 290 412 290 409 291 407 c 2
 565 12 l 2
 569 6 566 0 558 0 c 2
 519 0 l 2
 514 0 510 1 507 6 c 2
 255 369 l 2
 254 371 251 372 249 370 c 2
 146 263 l 2
 145 262 144 260 144 258 c 2
 144 10 l 2
 144 4 140 0 134 0 c 2
 101 0 l 2
271 -195 m 2
 263 -195 260 -190 264 -183 c 2
 324 -73 l 2
 326 -68 331 -66 336 -66 c 2
 366 -66 l 2
 374 -66 377 -71 373 -78 c 2
 306 -188 l 2
 303 -192 299 -195 294 -195 c 2
 271 -195 l 2
EndSplineSet
EndChar

StartChar: uni0145
Encoding: 325 325 168
Width: 684
GlyphClass: 2
Flags: MW
HStem: 0 21G<98 101 101 134 519.5 522 522 555> 680 20G<101 134 134 136.5 522 555 555 558>
VStem: 91 53<7 690> 512 53<690 690>
AnchorPoint: "Anchor-7" 328 700 basechar 0
AnchorPoint: "Anchor-6" 331 0 basechar 0
LayerCount: 2
Fore
SplineSet
512 690 m 2
 512 696 516 700 522 700 c 2
 555 700 l 2
 561 700 565 696 565 690 c 2
 565 10 l 2
 565 4 561 0 555 0 c 2
 522 0 l 2
 517 0 513 3 510 7 c 2
 148 596 l 2
 146 600 143 599 143 595 c 2
 144 10 l 2
 144 4 140 0 134 0 c 2
 101 0 l 2
 95 0 91 4 91 10 c 2
 91 690 l 2
 91 696 95 700 101 700 c 2
 134 700 l 2
 139 700 143 697 146 693 c 2
 508 104 l 2
 510 100 513 101 513 105 c 2
 512 690 l 2
292 -195 m 2
 284 -195 281 -190 285 -183 c 2
 345 -73 l 2
 347 -68 352 -66 357 -66 c 2
 386 -66 l 2
 394 -66 397 -71 393 -78 c 2
 326 -188 l 2
 323 -192 319 -195 314 -195 c 2
 292 -195 l 2
EndSplineSet
EndChar

StartChar: uni0156
Encoding: 342 342 169
Width: 613
GlyphClass: 2
Flags: MW
HStem: 0 21G<98 101 101 134 502.5 505 505 539> 328 44<147 348 148 337> 653 47<147 148 148 348>
VStem: 91 53<10 324 375 376 376 649> 487 52<470.5 554>
AnchorPoint: "Anchor-7" 290 700 basechar 0
AnchorPoint: "Anchor-6" 304 0 basechar 0
LayerCount: 2
Fore
SplineSet
396 332 m 0
 393 331 392 329 393 327 c 2
 546 12 l 2
 549 5 546 0 539 0 c 2
 505 0 l 2
 500 0 495 2 493 7 c 2
 341 325 l 2
 340 327 339 328 337 328 c 2
 148 328 l 2
 146 328 144 326 144 324 c 2
 144 10 l 2
 144 4 140 0 134 0 c 2
 101 0 l 2
 95 0 91 4 91 10 c 2
 91 690 l 2
 91 696 95 700 101 700 c 2
 352 700 l 2
 465 700 539 624 539 512 c 0
 539 417 484 348 396 332 c 0
148 653 m 2
 146 653 144 651 144 649 c 2
 144 376 l 2
 144 374 146 372 148 372 c 2
 348 372 l 2
 431 372 487 429 487 512 c 0
 487 596 431 653 348 653 c 2
 148 653 l 2
264 -195 m 2
 256 -195 253 -190 257 -183 c 2
 318 -73 l 2
 320 -69 325 -66 330 -66 c 2
 359 -66 l 2
 367 -66 370 -71 366 -78 c 2
 299 -188 l 2
 296 -192 292 -195 287 -195 c 2
 264 -195 l 2
EndSplineSet
EndChar

StartChar: uni0162
Encoding: 354 354 170
Width: 564
GlyphClass: 2
Flags: MW
HStem: -184.62 35.24 0 21G<233 236 236 260 283 297 297 299.5> 653 47<29 482 32 222 282 283 283 482>
VStem: 226 53<10 649> 328 41.26
AnchorPoint: "Anchor-7" 252 700 basechar 0
AnchorPoint: "Anchor-6" 256 0 basechar 0
LayerCount: 2
Fore
SplineSet
492 663 m 2
 492 657 488 653 482 653 c 2
 283 653 l 2
 281 653 279 651 279 649 c 2
 279 4 l 2
 279 2 281 0 283 0 c 2
 297 0 l 2
 302 0 306 -1 310 -4 c 0
 362 -45 376 -86 367 -125 c 0
 354 -186 291 -191 246 -180 c 0
 240 -179 238 -175 239 -168 c 2
 242 -154 l 2
 243 -147 247 -145 254 -147 c 0
 288 -154 321 -147 328 -111 c 0
 335 -71 303 -32 265 -2 c 0
 264 0 262 0 260 0 c 2
 236 0 l 2
 230 0 226 4 226 10 c 2
 226 649 l 2
 226 651 224 653 222 653 c 2
 32 653 l 2
 26 653 22 657 22 663 c 2
 22 690 l 2
 22 696 26 700 32 700 c 2
 482 700 l 2
 488 700 492 696 492 690 c 2
 492 663 l 2
EndSplineSet
EndChar

StartChar: uni0218
Encoding: 536 536 171
Width: 576
GlyphClass: 2
Flags: MW
HStem: -203 21G<228 232 232 255> -203 129<228 327 232 327> -8 47<220.5 337.5 220.5 350.5> 661 47<212.5 322.5>
VStem: 39 51<174 177 177 207 136.5 210> 53 52<498 578.5 498 592> 446 53<501 521 521 524 498 561.5> 452 53<129.5 206.5>
AnchorPoint: "Anchor-7" 267 700 basechar 0
AnchorPoint: "Anchor-6" 271 -8 basechar 0
LayerCount: 2
Fore
SplineSet
277 -8 m 0xb9
 129 -8 39 64 39 174 c 2
 39 207 l 2
 39 213 43 217 49 217 c 2
 80 217 l 2
 86 217 90 213 90 207 c 2
 90 177 l 2
 90 96 160 39 281 39 c 0
 394 39 452 90 452 169 c 0xb9
 452 244 396 282 258 340 c 0
 134 392 53 426 53 537 c 0
 53 647 133 708 266 708 c 0
 413 708 499 635 499 524 c 2
 499 501 l 2
 499 495 495 491 489 491 c 2
 456 491 l 2
 450 491 446 495 446 501 c 2
 446 521 l 2
 446 602 382 661 263 661 c 0
 162 661 105 618 105 539 c 0xb6
 105 457 164 432 288 382 c 0
 419 329 505 279 505 171 c 0
 505 65 424 -8 277 -8 c 0xb9
232 -203 m 2xb5
 224 -203 221 -198 225 -191 c 2
 286 -81 l 2
 288 -77 293 -74 298 -74 c 2
 327 -74 l 2
 335 -74 338 -79 334 -86 c 2x75
 267 -196 l 2
 264 -200 260 -203 255 -203 c 2
 232 -203 l 2xb5
EndSplineSet
EndChar

StartChar: uni021A
Encoding: 538 538 172
Width: 564
GlyphClass: 2
Flags: MW
HStem: 0 21G<233 236 236 269> 653 47<29 482 32 222 282 283 283 482>
VStem: 226 53<10 649>
AnchorPoint: "Anchor-7" 252 700 basechar 0
AnchorPoint: "Anchor-6" 256 0 basechar 0
LayerCount: 2
Fore
SplineSet
22 690 m 2
 22 696 26 700 32 700 c 2
 482 700 l 2
 488 700 492 696 492 690 c 2
 492 663 l 2
 492 657 488 653 482 653 c 2
 283 653 l 2
 281 653 279 651 279 649 c 2
 279 10 l 2
 279 4 275 0 269 0 c 2
 236 0 l 2
 230 0 226 4 226 10 c 2
 226 649 l 2
 226 651 224 653 222 653 c 2
 32 653 l 2
 26 653 22 657 22 663 c 2
 22 690 l 2
194 -195 m 2
 186 -195 183 -190 187 -183 c 2
 247 -73 l 2
 249 -68 254 -66 259 -66 c 2
 288 -66 l 2
 296 -66 299 -71 295 -78 c 2
 228 -188 l 2
 225 -192 221 -195 216 -195 c 2
 194 -195 l 2
EndSplineSet
Substitution2: "'c2sc' Capitals to Small Capitals in Latin lookup 19 subtable" uni021B.sc
Substitution2: "'aalt' Access All Alternates in Latin lookup 0 subtable" uni021B.sc
EndChar

StartChar: a
Encoding: 97 97 173
Width: 505
GlyphClass: 2
Flags: MW
HStem: -8 46<185.5 243.5> 0 21G<382 385 385 418> 250 44<251 257 257 371> 465 47<213 292.5>
VStem: 45 53<103 173 103 183.5> 375 53<10 56 56 57.5 155 246 246 247 298 343 343 344>
AnchorPoint: "Anchor-7" 246 507 basechar 0
AnchorPoint: "Anchor-6" 247 0 basechar 0
LayerCount: 2
Fore
SplineSet
248 512 m 0xbc
 368 512 428 444 428 344 c 2
 428 10 l 2
 428 4 424 0 418 0 c 2
 385 0 l 2
 379 0 375 4 375 10 c 2x7c
 375 56 l 2
 375 59 373 61 370 58 c 0
 335 14 276 -8 211 -8 c 0
 128 -8 45 30 45 134 c 0
 45 233 122 294 251 294 c 2
 371 294 l 2
 373 294 375 296 375 298 c 2
 375 343 l 2
 375 414 338 465 247 465 c 0
 179 465 132 435 122 388 c 0
 120 381 116 378 110 379 c 2
 75 384 l 2
 69 385 65 388 66 392 c 0
 78 463 148 512 248 512 c 0xbc
219 38 m 0
 296 38 375 77 375 155 c 2
 375 246 l 2
 375 248 373 250 371 250 c 2
 257 250 l 2
 163 250 98 209 98 137 c 0
 98 69 152 38 219 38 c 0
EndSplineSet
Substitution2: "Single Substitution lookup 25 subtable" ordfeminine
Substitution2: "'smcp' Lowercase to Small Capitals in Latin lookup 20 subtable" a.sc
AlternateSubs2: "'aalt' Access All Alternates in Latin lookup 1 subtable" ordfeminine a.sc
EndChar

StartChar: aacute
Encoding: 225 225 174
Width: 508
GlyphClass: 2
Flags: MW
HStem: -8 46<185.5 243.5> 0 21G<382 385 385 418> 250 44<251 257 257 371> 465 47<213 292.5> 571 129<224 323 228 323> 680 20G<293 323 323 327>
VStem: 45 53<103 173 103 183.5> 375 53<10 56 56 57.5 155 246 246 247 298 343 343 344>
AnchorPoint: "Anchor-7" 277 700 basechar 0
AnchorPoint: "Anchor-6" 247 0 basechar 0
LayerCount: 2
Fore
SplineSet
323 700 m 2xb7
 331 700 334 695 330 688 c 2
 263 578 l 2
 260 574 256 571 251 571 c 2
 228 571 l 2
 220 571 217 576 221 583 c 2xbb
 281 693 l 2
 283 698 288 700 293 700 c 2
 323 700 l 2xb7
248 512 m 0
 368 512 428 444 428 344 c 2
 428 10 l 2
 428 4 424 0 418 0 c 2
 385 0 l 2
 379 0 375 4 375 10 c 2x77
 375 56 l 2
 375 59 373 61 370 58 c 0
 335 14 276 -8 211 -8 c 0
 128 -8 45 30 45 134 c 0
 45 233 122 294 251 294 c 2
 371 294 l 2
 373 294 375 296 375 298 c 2
 375 343 l 2
 375 414 338 465 247 465 c 0
 179 465 132 435 122 388 c 0
 120 381 116 378 110 379 c 2
 75 384 l 2
 69 385 65 388 66 392 c 0
 78 463 148 512 248 512 c 0
219 38 m 0
 296 38 375 77 375 155 c 2
 375 246 l 2
 375 248 373 250 371 250 c 2
 257 250 l 2
 163 250 98 209 98 137 c 0
 98 69 152 38 219 38 c 0
EndSplineSet
Substitution2: "'smcp' Lowercase to Small Capitals in Latin lookup 20 subtable" aacute.sc
Substitution2: "'aalt' Access All Alternates in Latin lookup 0 subtable" aacute.sc
EndChar

StartChar: abreve
Encoding: 259 259 175
Width: 508
GlyphClass: 2
Flags: MW
HStem: -8 46<185.5 243.5> 0 21G<382 385 385 418> 250 44<251 257 257 371> 465 47<213 292.5> 562 35<235 273 235 285>
VStem: 45 53<103 173 103 183.5> 375 53<10 56 56 57.5 155 246 246 247 298 343 343 344>
AnchorPoint: "Anchor-7" 246 507 basechar 0
AnchorPoint: "Anchor-6" 247 0 basechar 0
LayerCount: 2
Fore
SplineSet
254 562 m 0xbe
 194 562 146 603 140 658 c 0
 140 664 144 668 150 668 c 2
 169 668 l 2
 175 668 179 665 180 658 c 0
 185 623 216 597 254 597 c 0
 292 597 323 623 328 658 c 0
 329 665 333 668 339 668 c 2
 359 668 l 2
 365 668 369 665 369 658 c 0
 364 603 316 562 254 562 c 0xbe
248 512 m 0
 368 512 428 444 428 344 c 2
 428 10 l 2
 428 4 424 0 418 0 c 2
 385 0 l 2
 379 0 375 4 375 10 c 2x7e
 375 56 l 2
 375 59 373 61 370 58 c 0
 335 14 276 -8 211 -8 c 0
 128 -8 45 30 45 134 c 0
 45 233 122 294 251 294 c 2
 371 294 l 2
 373 294 375 296 375 298 c 2
 375 343 l 2
 375 414 338 465 247 465 c 0
 179 465 132 435 122 388 c 0
 120 381 116 378 110 379 c 2
 75 384 l 2
 69 385 65 388 66 392 c 0
 78 463 148 512 248 512 c 0
219 38 m 0
 296 38 375 77 375 155 c 2
 375 246 l 2
 375 248 373 250 371 250 c 2
 257 250 l 2
 163 250 98 209 98 137 c 0
 98 69 152 38 219 38 c 0
EndSplineSet
Substitution2: "'smcp' Lowercase to Small Capitals in Latin lookup 20 subtable" abreve.sc
Substitution2: "'aalt' Access All Alternates in Latin lookup 0 subtable" abreve.sc
EndChar

StartChar: uni1EAF
Encoding: 7855 7855 176
Width: 505
GlyphClass: 2
Flags: MW
HStem: -8 46<185.5 243.5> 0 21G<382 385 385 418> 250 44<251 257 257 371> 465 47<213 292.5> 589 33<226.5 265.5 226.5 276.5> 718 130<230 329 234 329>
VStem: 45 53<103 173 103 183.5> 375 53<10 56 56 57.5 155 246 246 247 298 343 343 344>
AnchorPoint: "Anchor-7" 284 848 basechar 0
AnchorPoint: "Anchor-6" 247 0 basechar 0
LayerCount: 2
Fore
SplineSet
329 848 m 2xbf
 337 848 340 843 336 836 c 2
 269 725 l 2
 266 721 262 718 257 718 c 2
 234 718 l 2
 226 718 223 723 227 730 c 2
 288 841 l 2
 290 846 295 848 300 848 c 2
 329 848 l 2xbf
246 589 m 0
 185 589 138 630 133 683 c 0
 132 689 136 693 142 693 c 2
 159 693 l 2
 165 693 169 690 170 683 c 0
 175 648 207 622 246 622 c 0
 285 622 317 648 322 683 c 0
 323 690 327 693 333 693 c 2
 350 693 l 2
 356 693 360 690 360 684 c 0
 355 630 307 589 246 589 c 0
248 512 m 0
 368 512 428 444 428 344 c 2
 428 10 l 2
 428 4 424 0 418 0 c 2
 385 0 l 2
 379 0 375 4 375 10 c 2x7f
 375 56 l 2
 375 59 373 61 370 58 c 0
 335 14 276 -8 211 -8 c 0
 128 -8 45 30 45 134 c 0
 45 233 122 294 251 294 c 2
 371 294 l 2
 373 294 375 296 375 298 c 2
 375 343 l 2
 375 414 338 465 247 465 c 0
 179 465 132 435 122 388 c 0
 120 381 116 378 110 379 c 2
 75 384 l 2
 69 385 65 388 66 392 c 0
 78 463 148 512 248 512 c 0
219 38 m 0
 296 38 375 77 375 155 c 2
 375 246 l 2
 375 248 373 250 371 250 c 2
 257 250 l 2
 163 250 98 209 98 137 c 0
 98 69 152 38 219 38 c 0
EndSplineSet
EndChar

